<svg width="40" height="40" viewBox="0 0 40 40" fill="none" xmlns="http://www.w3.org/2000/svg">
<path d="M20 30C19.5952 30 19.2557 29.8628 18.9814 29.5886C18.7071 29.3143 18.5705 28.9752 18.5714 28.5714V21.4286H11.4286C11.0238 21.4286 10.6843 21.2914 10.41 21.0171C10.1357 20.7429 9.99905 20.4038 10 20C10 19.5952 10.1371 19.2557 10.4114 18.9814C10.6857 18.7071 11.0248 18.5705 11.4286 18.5714H18.5714V11.4286C18.5714 11.0238 18.7086 10.6843 18.9829 10.41C19.2571 10.1357 19.5962 9.99905 20 10C20.4048 10 20.7443 10.1371 21.0186 10.4114C21.2929 10.6857 21.4295 11.0248 21.4286 11.4286V18.5714H28.5714C28.9762 18.5714 29.3157 18.7086 29.59 18.9829C29.8643 19.2571 30.0009 19.5962 30 20C30 20.4048 29.8629 20.7443 29.5886 21.0186C29.3143 21.2929 28.9752 21.4295 28.5714 21.4286H21.4286V28.5714C21.4286 28.9762 21.2914 29.3157 21.0171 29.59C20.7429 29.8643 20.4038 30.0009 20 30Z" fill="#76828F"/>
</svg>
