<svg width="390" height="422" viewBox="0 0 390 422" fill="none" xmlns="http://www.w3.org/2000/svg">
<rect x="-8" y="-55" width="407" height="477" fill="#E6F8FF"/>
<mask id="path-2-inside-1_444_8047" fill="white">
<path d="M-8 331H399V422H-8V331Z"/>
</mask>
<path d="M-8 331H399V422H-8V331Z" fill="#E6F8FF"/>
<path d="M-8 332H399V330H-8V332Z" fill="#04B0EA" mask="url(#path-2-inside-1_444_8047)"/>
<mask id="path-4-inside-2_444_8047" fill="white">
<path d="M-7 -55H399V40H-7V-55Z"/>
</mask>
<path d="M-7 -55H399V40H-7V-55Z" fill="#C8E7F5"/>
<path d="M399 39H-7V41H399V39Z" fill="#04B0EA" mask="url(#path-4-inside-2_444_8047)"/>
<path d="M300.032 120.272H267.063V157.075" stroke="#49576B" stroke-width="0.3"/>
<path d="M266.68 178.926V200.586" stroke="#49576B" stroke-width="0.3"/>
<path d="M284.341 202.778H248.448V231.314H284.341V202.778Z" fill="white"/>
<path d="M257.431 201.537L257.403 201.511H257.365H247.435C247.398 201.511 247.36 201.521 247.327 201.546C247.295 201.571 247.279 201.603 247.269 201.631C247.254 201.677 247.254 201.732 247.254 201.768C247.254 201.77 247.254 201.772 247.254 201.774V211.867L247.254 211.87C247.254 211.887 247.254 211.908 247.256 211.925C247.258 211.942 247.264 211.979 247.294 212.008C247.323 212.038 247.36 212.044 247.377 212.046C247.395 212.048 247.415 212.048 247.432 212.048L247.435 212.048L247.439 212.048C247.456 212.048 247.476 212.048 247.494 212.046C247.511 212.044 247.548 212.038 247.577 212.008C247.607 211.979 247.613 211.942 247.615 211.925C247.617 211.908 247.617 211.887 247.617 211.87L247.617 211.867V201.874H257.446H257.555L257.546 201.766C257.539 201.678 257.498 201.595 257.431 201.537Z" fill="#04B0EA" stroke="#04B0EA" stroke-width="0.2"/>
<path d="M275.958 201.82H285.869V211.569L285.869 211.572C285.869 211.589 285.869 211.61 285.871 211.627C285.873 211.644 285.878 211.681 285.908 211.711C285.938 211.74 285.975 211.746 285.992 211.748C286.009 211.75 286.03 211.75 286.047 211.75L286.05 211.75L286.054 211.75C286.071 211.75 286.091 211.75 286.108 211.748C286.126 211.746 286.162 211.74 286.192 211.71C286.222 211.681 286.228 211.644 286.23 211.627C286.232 211.61 286.232 211.589 286.232 211.572L286.232 211.569V201.639V201.539H286.132H275.795H275.695V201.639C275.695 201.677 275.705 201.715 275.73 201.747C275.755 201.779 275.787 201.796 275.814 201.805C275.861 201.82 275.916 201.82 275.951 201.82C275.954 201.82 275.956 201.82 275.958 201.82Z" fill="#04B0EA" stroke="#04B0EA" stroke-width="0.2"/>
<path d="M286.05 232.667H286.092L286.121 232.638L286.202 232.557L286.231 232.527V232.486V222.312L286.231 222.309C286.232 222.292 286.232 222.271 286.23 222.254C286.228 222.237 286.222 222.2 286.192 222.17C286.162 222.14 286.126 222.135 286.108 222.133C286.091 222.131 286.071 222.131 286.054 222.131L286.05 222.131L286.047 222.131C286.029 222.131 286.009 222.131 285.992 222.133C285.974 222.135 285.938 222.14 285.908 222.17C285.878 222.2 285.873 222.236 285.871 222.254C285.869 222.271 285.869 222.292 285.869 222.309L285.869 222.312V232.305H276.12C276.083 232.305 276.045 232.314 276.012 232.34C275.98 232.364 275.964 232.396 275.954 232.424C275.939 232.47 275.939 232.526 275.939 232.561C275.939 232.563 275.939 232.565 275.939 232.567V232.667H276.039H286.05Z" fill="#04B0EA" stroke="#04B0EA" stroke-width="0.2"/>
<path d="M247.354 222.51H247.254V222.61V232.54C247.254 232.542 247.254 232.544 247.254 232.546C247.254 232.581 247.254 232.637 247.269 232.683C247.278 232.711 247.295 232.743 247.327 232.767C247.359 232.793 247.398 232.802 247.435 232.802H257.522C257.568 232.808 257.615 232.8 257.658 232.781L257.617 232.69L257.658 232.781C257.703 232.761 257.742 232.728 257.769 232.687L257.686 232.631L257.769 232.687C257.797 232.646 257.812 232.598 257.813 232.548C257.815 232.499 257.802 232.45 257.777 232.407L257.748 232.358H257.691H247.617V222.61V222.51H247.517H247.354Z" fill="#04B0EA" stroke="#04B0EA" stroke-width="0.2"/>
<path d="M280.434 237.776H280.184C280.184 237.776 280.184 237.775 280.184 237.775C280.184 237.621 280.185 237.476 280.186 237.34C280.189 237.088 280.191 236.863 280.184 236.655C280.174 236.335 280.144 236.094 280.077 235.908C280.013 235.733 279.917 235.61 279.761 235.521C279.595 235.427 279.345 235.36 278.957 235.34C278.957 235.34 278.957 235.34 278.957 235.34L274.28 235.11C274.289 235.211 274.301 235.336 274.314 235.484C274.352 235.907 274.406 236.514 274.467 237.253C274.589 238.731 274.742 240.735 274.864 242.839C274.986 244.942 275.078 247.147 275.078 249.027C275.078 249.967 275.055 250.829 275.001 251.557C274.948 252.281 274.862 252.889 274.731 253.314C274.621 253.675 274.562 254.251 274.553 255.005C274.544 255.752 274.584 256.653 274.66 257.651C274.812 259.646 275.107 262.013 275.432 264.284C275.757 266.555 276.113 268.728 276.387 270.332C276.524 271.135 276.641 271.795 276.724 272.255C276.765 272.483 276.797 272.662 276.82 272.784L280.519 273.074L280.769 273.094C280.843 271.104 281.335 257.852 281.411 255.519C281.445 254.458 281.263 252.156 281.047 249.421C280.749 245.658 280.387 241.076 280.434 237.776ZM280.434 237.776C280.434 237.628 280.435 237.485 280.436 237.349C280.449 235.918 280.455 235.165 278.969 235.09L280.434 237.776Z" fill="white" stroke="black" stroke-width="0.5"/>
<path d="M281.818 275.867C281.329 273.1 280.922 270.984 280.922 270.984L275.306 269.112L275.958 272.53C275.867 273.423 275.867 274.323 275.958 275.216C275.958 275.216 277.26 279.123 277.097 279.936C276.934 280.75 277.667 281.32 278.074 280.832C278.155 282.378 279.213 280.669 279.213 280.669C279.213 280.669 279.62 281.89 280.108 280.995C280.361 279.626 280.471 278.235 280.434 276.844C280.678 276.681 280.841 277.902 280.841 278.309C280.841 278.716 281.166 280.099 281.492 279.774C281.818 279.448 281.98 276.925 281.818 275.867Z" fill="white"/>
<path d="M281.329 279.937H281.166C280.841 279.774 280.759 278.96 280.759 278.309C280.755 277.742 280.615 277.184 280.352 276.681V276.518C280.374 276.518 280.395 276.527 280.41 276.542C280.425 276.557 280.434 276.578 280.434 276.6C280.703 277.129 280.843 277.715 280.841 278.309C280.841 279.53 281.085 279.692 281.166 279.774H281.411C281.692 278.547 281.775 277.283 281.655 276.03L280.759 271.065V270.902H280.922L281.817 275.867C281.98 276.844 281.817 279.611 281.492 279.855L281.329 279.937Z" fill="#003547"/>
<path d="M277.504 281.239C277.341 281.239 276.934 281.076 277.016 279.937C277.001 278.934 276.808 277.942 276.446 277.006C276.219 276.422 276.029 275.824 275.876 275.216C275.692 274.166 275.692 273.092 275.876 272.042H276.12C275.936 273.062 275.908 274.105 276.039 275.134C276.202 275.704 276.364 276.274 276.609 276.925C276.955 277.896 277.174 278.909 277.26 279.937C277.178 280.75 277.341 280.995 277.504 281.076C277.748 281.076 278.074 280.75 278.155 280.262C278.213 279.312 278.186 278.359 278.074 277.413V277.006C278.074 276.996 278.076 276.985 278.08 276.975C278.084 276.965 278.09 276.956 278.097 276.949C278.105 276.941 278.114 276.935 278.124 276.931C278.134 276.927 278.144 276.925 278.155 276.925C278.236 276.925 278.236 277.006 278.236 277.088V277.332C278.389 278.329 278.417 279.34 278.318 280.343C278.236 280.832 277.829 281.239 277.504 281.239Z" fill="#003547"/>
<path d="M278.318 281.564C278.236 281.564 277.911 281.483 277.911 280.832C277.911 280.789 277.928 280.747 277.959 280.717C277.989 280.686 278.03 280.669 278.074 280.669C278.121 280.711 278.15 280.769 278.155 280.832C278.074 281.157 278.155 281.402 278.318 281.402C278.643 281.402 279.132 280.832 279.294 279.774C279.38 278.935 279.38 278.089 279.294 277.251H279.376C279.397 277.251 279.418 277.259 279.433 277.274C279.449 277.29 279.457 277.31 279.457 277.332C279.543 278.171 279.543 279.016 279.457 279.855C279.294 280.913 278.725 281.646 278.318 281.564Z" fill="#003547"/>
<path d="M279.701 281.402C279.376 281.402 279.132 280.751 279.132 280.751V280.588C279.213 280.588 279.294 280.588 279.294 280.669C279.294 280.751 279.539 281.239 279.701 281.239C279.864 281.239 279.946 281.158 280.027 280.995C280.108 280.832 280.353 276.681 280.353 276.6H280.434C280.445 276.6 280.455 276.602 280.465 276.606C280.475 276.61 280.484 276.616 280.491 276.623C280.499 276.631 280.505 276.64 280.509 276.65C280.513 276.66 280.515 276.67 280.515 276.681C280.515 276.844 280.678 280.262 280.19 281.158C280.146 281.251 280.077 281.331 279.991 281.388C279.905 281.445 279.805 281.478 279.701 281.483V281.402Z" fill="#003547"/>
<path d="M265.458 209.371C265.458 209.371 261.145 209.452 259.68 212.79C258.215 216.127 257.238 215.231 256.912 217.022C256.587 218.812 255.61 218.731 255.203 219.789C254.796 220.847 255.61 221.987 254.226 222.963C253.818 223.203 253.516 223.587 253.38 224.04C253.244 224.493 253.285 224.981 253.494 225.405C254.466 225.533 255.451 225.533 256.424 225.405C257.238 225.079 259.028 224.266 260.168 224.917C261.307 225.568 263.505 224.835 264.4 224.835C265.295 224.835 268.47 225.242 269.609 224.673C270.079 224.448 270.594 224.332 271.115 224.332C271.636 224.332 272.15 224.448 272.621 224.673C273.109 225.079 276.12 224.021 276.772 224.51C277.423 224.998 278.318 224.021 278.318 224.021C278.318 224.021 278.399 222.068 277.341 221.417C276.283 220.766 276.772 218.324 275.551 217.754C274.33 217.185 274.9 214.743 274.004 214.417C273.109 214.092 274.167 212.708 272.214 212.138C270.26 211.569 270.26 208.964 265.458 209.371Z" fill="#2F2E41"/>
<path d="M269.447 322.748V326.004H269.935C273.76 326.004 276.853 328.689 276.853 331.945H263.017C263.017 331.945 260.738 331.213 263.017 322.748C263.424 321.12 269.447 322.748 269.447 322.748Z" fill="#CCCCCC"/>
<path d="M266.353 328.69C266.375 328.69 266.396 328.681 266.411 328.666C266.426 328.65 266.435 328.63 266.435 328.608C266.812 327.692 267.505 326.942 268.388 326.492C268.71 326.301 269.073 326.19 269.446 326.166C269.489 326.166 269.531 326.149 269.561 326.119C269.592 326.088 269.609 326.047 269.609 326.004C269.609 325.922 269.527 325.922 269.446 325.922C268.734 326.036 268.064 326.337 267.506 326.795C266.949 327.253 266.523 327.85 266.272 328.527C266.25 328.527 266.23 328.535 266.214 328.551C266.199 328.566 266.19 328.587 266.19 328.608C266.19 328.63 266.199 328.65 266.214 328.666C266.23 328.681 266.25 328.69 266.272 328.69H266.353Z" fill="white"/>
<path d="M245.762 322.748V326.004H246.169C249.994 326.004 253.087 328.689 253.087 331.945H239.25C239.25 331.945 236.809 331.701 239.25 322.748C239.657 321.12 245.762 322.748 245.762 322.748Z" fill="#CCCCCC"/>
<path d="M242.587 328.69C242.669 328.69 242.669 328.69 242.669 328.608C243.074 327.71 243.76 326.968 244.622 326.492C244.971 326.295 245.361 326.183 245.762 326.166C245.809 326.125 245.838 326.066 245.843 326.004C245.843 325.982 245.835 325.961 245.819 325.946C245.804 325.931 245.783 325.922 245.762 325.922C245.035 326.022 244.348 326.317 243.775 326.776C243.202 327.234 242.763 327.839 242.506 328.527C242.506 328.608 242.506 328.69 242.587 328.69Z" fill="white"/>
<path d="M246.884 324.02L246.877 324.044H237.596C237.622 323.901 237.657 323.705 237.702 323.459C237.807 322.882 237.964 322.031 238.171 320.933C238.585 318.736 239.201 315.553 240.004 311.607C241.611 303.714 243.971 292.771 246.981 280.567C248.202 275.644 249.788 269.48 251.07 264.546C251.711 262.079 252.276 259.919 252.68 258.377C252.882 257.606 253.044 256.989 253.156 256.564L253.269 256.136L277.801 261.011L271.175 324.044H262.197C262.193 323.974 262.189 323.888 262.185 323.786C262.17 323.461 262.15 322.979 262.128 322.355C262.084 321.108 262.03 319.293 261.995 317.026C261.924 312.493 261.924 306.149 262.208 298.911C262.412 294.31 262.534 289.75 262.605 286.341C262.641 284.636 262.664 283.219 262.678 282.228C262.685 281.732 262.689 281.343 262.692 281.078L262.696 280.775L262.697 280.698L262.697 280.678L262.697 280.673L262.697 280.672L262.697 280.672C262.697 280.671 262.697 280.671 262.447 280.669L262.697 280.671L262.222 280.559C259.282 286.55 256.75 292.732 254.641 299.064C253.377 302.651 251.423 308.943 249.785 314.333C248.966 317.029 248.226 319.502 247.69 321.301C247.423 322.2 247.206 322.931 247.056 323.437L246.884 324.02Z" fill="white" stroke="#2F2E41" stroke-width="0.5"/>
<path d="M264.644 233.137L267.249 233.463C267.737 233.463 272.946 231.184 273.353 229.719C273.76 228.254 270.423 226.707 269.283 226.626C269.169 226.606 269.064 226.547 268.99 226.457C268.915 226.367 268.875 226.254 268.877 226.138V222.801C268.877 222.339 268.7 221.896 268.381 221.562C268.063 221.229 267.628 221.031 267.167 221.01H266.191C265.959 221.01 265.73 221.056 265.517 221.147C265.304 221.238 265.112 221.372 264.952 221.539C264.793 221.706 264.668 221.905 264.587 222.121C264.507 222.338 264.47 222.569 264.481 222.801V226.138C264.459 226.268 264.402 226.389 264.316 226.49C264.23 226.59 264.118 226.665 263.993 226.707C263.261 226.87 261.714 227.358 261.796 227.847C262.04 229.556 264.075 233.137 264.644 233.137Z" fill="white"/>
<path fill-rule="evenodd" clip-rule="evenodd" d="M252.939 239.047C249.937 236.353 249.424 233.788 249.424 233.788C254.063 227.847 262.365 227.277 262.365 227.277C262.365 227.277 263.016 230.858 266.353 231.835H267.493C268.04 231.916 268.6 231.861 269.12 231.672L269.446 231.509C269.931 231.152 270.289 230.65 270.47 230.078C270.441 230.245 270.424 230.419 270.585 229.556C270.707 228.909 270.507 228.201 270.354 227.663C270.2 227.119 270.095 226.748 270.423 226.789C277.748 227.847 283.852 236.149 283.852 236.149C282.591 238.786 280.581 240.994 278.074 242.497V265.042C278.074 265.042 271.074 270.007 250.971 261.868C246.494 260.077 248.366 248.601 250.645 239.892C250.729 239.531 251.582 239.256 252.939 239.047ZM270.504 229.963C270.494 230.001 270.482 230.04 270.47 230.078C270.486 229.992 270.504 229.908 270.504 229.963Z" fill="#CCCCCC"/>
<path d="M263.017 220.196C264.4 223.37 267.412 225.079 269.528 223.94C271.644 222.801 271.97 218.731 270.83 216.127C269.691 213.522 266.435 211.243 264.237 212.383C262.04 213.522 261.552 217.022 263.017 220.196Z" fill="white"/>
<path d="M266.679 224.103C265.819 223.751 265.039 223.231 264.382 222.575C263.725 221.918 263.206 221.137 262.854 220.277C261.389 217.022 261.958 213.441 264.237 212.301C264.687 212.069 265.18 211.934 265.685 211.906C266.19 211.878 266.695 211.957 267.167 212.138C268.868 212.915 270.208 214.313 270.911 216.045C272.132 218.812 271.807 222.882 269.609 224.021C269.134 224.28 268.603 224.42 268.063 224.428C267.582 224.429 267.109 224.317 266.679 224.103ZM264.319 212.545C262.203 213.603 261.633 217.022 263.098 220.115C263.778 221.816 265.091 223.187 266.76 223.94C267.209 224.098 267.685 224.165 268.16 224.137C268.636 224.109 269.1 223.987 269.528 223.777C270.504 223.289 271.074 222.149 271.318 220.522C271.503 219.032 271.307 217.52 270.749 216.127C270.044 214.461 268.736 213.123 267.086 212.383L265.784 212.138C265.268 212.139 264.761 212.28 264.319 212.545Z" fill="#2F2E41"/>
<path d="M267.167 210.999C267.167 210.999 268.144 215.475 263.179 221.417C262.175 219.715 261.641 217.777 261.633 215.801C261.551 212.464 267.167 210.999 267.167 210.999Z" fill="#2F2E41"/>
<path d="M265.784 213.359C265.784 213.359 269.283 215.801 270.993 215.394C270.993 215.394 269.609 212.627 268.063 211.894C266.516 211.162 266.191 211.487 266.191 211.487L265.784 213.359Z" fill="#2F2E41"/>
<path d="M263.261 221.336C263.831 221.661 264.482 221.58 264.645 221.091C264.807 220.603 264.482 220.033 264.075 219.789C263.668 219.545 262.935 219.545 262.691 220.033C262.447 220.522 262.773 221.01 263.261 221.336Z" fill="white"/>
<path d="M245.441 257.284L245.44 257.281C244.796 251.808 246.427 245.811 248.233 241.163C249.135 238.843 250.077 236.867 250.794 235.472C251.152 234.774 251.454 234.222 251.666 233.844C251.737 233.718 251.798 233.611 251.848 233.525L258.637 239.465L258.487 239.767C258.336 240.07 258.119 240.506 257.856 241.038C257.329 242.102 256.617 243.547 255.873 245.074C254.391 248.12 252.777 251.511 252.283 252.827C252.146 253.192 252.072 253.757 252.036 254.44C252 255.131 252.003 255.969 252.033 256.896C252.095 258.75 252.268 260.974 252.472 263.113C252.675 265.252 252.91 267.309 253.093 268.831C253.185 269.593 253.264 270.22 253.32 270.657C253.343 270.837 253.362 270.985 253.376 271.097L248.696 271.765C247.044 267.084 245.951 262.223 245.441 257.284Z" fill="white" stroke="black" stroke-width="0.5"/>
<path d="M254.715 273.914L253.412 268.949L247.39 267.565L248.366 270.984C248.39 271.883 248.472 272.78 248.61 273.669C248.61 273.669 250.238 277.576 250.157 278.39C250.075 279.204 250.889 279.774 251.215 279.204C251.378 280.75 252.354 278.96 252.354 278.96C252.354 278.96 252.924 280.181 253.331 279.204C253.738 278.227 253.494 276.111 253.412 274.972C253.331 273.832 253.819 276.03 253.901 276.437C253.982 276.844 254.389 278.227 254.715 277.902C255.04 277.576 254.959 274.972 254.715 273.914Z" fill="white"/>
<path d="M254.552 278.065H254.389C254.064 277.902 253.901 277.088 253.819 276.518C253.775 275.921 253.608 275.34 253.331 274.809C253.25 274.809 253.25 274.728 253.331 274.728C253.412 274.728 253.412 274.646 253.412 274.728C253.412 274.809 253.819 275.216 253.982 276.437C254.145 277.658 254.389 277.821 254.47 277.902H254.715C254.93 276.606 254.903 275.281 254.633 273.995L253.331 269.112V268.949H253.494L254.796 273.914C255.04 274.891 255.122 277.658 254.796 277.983L254.552 278.065Z" fill="#003547"/>
<path d="M250.727 279.692C250.482 279.692 250.075 279.53 250.075 278.39C249.971 277.364 249.667 276.369 249.18 275.46C248.927 274.877 248.71 274.279 248.529 273.669C248.282 272.631 248.199 271.56 248.285 270.495C248.285 270.414 248.366 270.332 248.366 270.414C248.366 270.495 248.529 270.414 248.448 270.495C248.362 271.56 248.444 272.631 248.692 273.669L249.343 275.379C249.827 276.324 250.157 277.34 250.32 278.39C250.32 279.204 250.482 279.448 250.727 279.448C250.889 279.448 251.215 279.123 251.215 278.634C251.221 277.652 251.139 276.672 250.971 275.704C250.983 275.589 250.954 275.474 250.889 275.379C250.889 275.297 250.971 275.297 251.052 275.297C251.074 275.297 251.094 275.306 251.11 275.321C251.125 275.336 251.133 275.357 251.133 275.379V275.704C251.376 276.661 251.486 277.647 251.459 278.634C251.378 279.204 251.052 279.692 250.727 279.692Z" fill="#003547"/>
<path d="M251.541 279.937C251.459 279.937 251.134 279.937 251.134 279.204C251.134 278.472 251.134 279.123 251.215 279.123C251.237 279.123 251.257 279.131 251.273 279.147C251.288 279.162 251.296 279.183 251.296 279.204C251.296 279.53 251.378 279.774 251.541 279.774C251.866 279.774 252.355 279.123 252.436 278.065C252.456 277.22 252.402 276.376 252.273 275.542C252.192 275.46 252.273 275.46 252.355 275.379H252.436C252.56 276.241 252.614 277.112 252.599 277.983C252.517 279.204 252.029 279.937 251.541 279.937Z" fill="#003547"/>
<path d="M253.005 279.693C252.599 279.693 252.354 279.123 252.273 279.041C252.192 278.96 252.273 278.879 252.354 278.879H252.436C252.517 278.96 252.761 279.367 253.005 279.367C253.114 279.367 253.195 279.286 253.25 279.123C253.657 278.227 253.25 274.728 253.25 274.728C253.255 274.665 253.284 274.607 253.331 274.565H253.494C253.494 274.728 253.819 278.227 253.412 279.123C253.005 280.018 253.168 279.53 253.005 279.53V279.693Z" fill="#003547"/>
<path d="M249.424 233.788C249.424 233.788 251.784 240.951 258.865 241.52C265.946 242.09 257.726 230.533 257.726 230.533L252.029 231.672L249.424 233.788Z" fill="#CCCCCC"/>
<path d="M254.906 171.733L254.911 171.741L254.917 171.749C256.369 173.823 258.3 175.514 260.546 176.681C262.792 177.847 265.287 178.453 267.818 178.449C270.11 178.464 272.376 177.966 274.451 176.993C276.526 176.02 278.356 174.597 279.81 172.826C280.482 172.067 281.065 171.233 281.549 170.342C282.814 168.04 283.469 165.451 283.451 162.824C283.606 160.673 283.317 158.514 282.601 156.48C281.885 154.443 280.756 152.575 279.285 150.993C277.814 149.412 276.033 148.151 274.054 147.288C272.074 146.426 269.937 145.981 267.778 145.981C265.618 145.981 263.482 146.426 261.502 147.288C259.522 148.151 257.741 149.412 256.27 150.993C254.8 152.575 253.671 154.443 252.954 156.48C252.238 158.514 251.949 160.674 252.104 162.825C252.115 165.46 252.798 168.048 254.09 170.345L254.09 170.345L254.092 170.349L254.906 171.733Z" fill="white" stroke="#04B0EA" stroke-width="0.5"/>
<path d="M267.656 151.421C267.656 151.421 264.156 151.34 262.854 154.026C261.552 156.711 260.819 155.898 260.493 157.281C260.168 158.665 259.354 158.665 259.028 159.479C258.703 160.293 259.273 161.269 258.133 162.083C257.966 162.161 257.816 162.272 257.692 162.41C257.568 162.547 257.473 162.707 257.413 162.882C257.352 163.056 257.327 163.241 257.339 163.426C257.351 163.61 257.399 163.79 257.482 163.955C258.258 164.121 259.057 164.148 259.842 164.037C260.493 163.874 261.958 163.223 262.854 163.792C263.749 164.362 265.54 163.874 266.272 163.874C267.005 163.874 269.609 164.362 270.504 163.955C270.891 163.781 271.311 163.698 271.735 163.712C272.158 163.726 272.573 163.837 272.946 164.037C273.353 164.362 275.795 163.63 276.283 164.037C276.772 164.444 277.504 163.711 277.504 163.711C277.504 163.711 277.667 162.083 276.853 161.595C276.039 161.106 276.527 159.072 275.551 158.583C274.574 158.095 275.062 156.06 274.411 155.816C273.76 155.572 274.574 154.432 273.028 153.863C271.481 153.293 271.563 151.258 267.656 151.421Z" fill="#2F2E41"/>
<path d="M266.191 170.629L268.307 170.955C268.714 170.955 272.946 169.327 273.353 168.106C273.76 166.885 271.074 165.664 270.098 165.502C270.02 165.468 269.954 165.41 269.91 165.337C269.866 165.264 269.847 165.179 269.854 165.095V162.409C269.877 162.033 269.754 161.663 269.512 161.375C269.269 161.087 268.925 160.903 268.551 160.862H267.737C267.363 160.862 267.002 161.005 266.729 161.262C266.457 161.52 266.293 161.872 266.272 162.246V164.932C266.272 165.095 266.11 165.339 265.947 165.339C265.784 165.339 263.993 165.827 264.075 166.234C264.156 166.641 265.703 170.548 266.191 170.629Z" fill="white"/>
<path d="M264.481 165.909H264.563L266.272 165.42H266.353L266.516 162.327C266.516 161.982 266.653 161.651 266.897 161.407C267.142 161.162 267.473 161.025 267.818 161.025H268.632C268.803 161.036 268.971 161.08 269.125 161.155C269.279 161.23 269.416 161.335 269.53 161.463C269.643 161.592 269.73 161.742 269.786 161.904C269.841 162.066 269.864 162.238 269.853 162.409L269.69 165.42C269.695 165.483 269.724 165.541 269.772 165.583L271.155 165.909C271.166 165.909 271.176 165.907 271.186 165.902C271.196 165.898 271.205 165.892 271.213 165.885C271.22 165.877 271.226 165.868 271.23 165.858C271.234 165.849 271.237 165.838 271.237 165.827V165.664L270.016 165.339V162.409C270.038 162.21 270.02 162.008 269.961 161.817C269.903 161.626 269.806 161.448 269.676 161.295C269.547 161.143 269.387 161.019 269.207 160.93C269.028 160.842 268.832 160.791 268.632 160.781H267.818C267.422 160.78 267.04 160.932 266.753 161.205C266.465 161.477 266.293 161.85 266.272 162.246V165.176L264.563 165.664V165.827C264.552 165.827 264.541 165.829 264.531 165.833C264.522 165.838 264.513 165.844 264.505 165.851C264.497 165.859 264.491 165.868 264.487 165.877C264.483 165.887 264.481 165.898 264.481 165.909Z" fill="#2F2E41"/>
<path d="M265.295 160.13C266.354 162.734 268.714 164.199 270.504 163.304C272.295 162.409 272.621 159.235 271.807 157.037C270.993 154.84 268.388 152.968 266.598 153.863C264.807 154.758 264.237 157.444 265.295 160.13Z" fill="white"/>
<path d="M271.888 157.037L271.644 156.549C271.113 155.359 270.195 154.384 269.039 153.781H268.958C268.685 153.626 268.377 153.542 268.063 153.537C267.542 153.469 267.012 153.525 266.516 153.7C264.807 154.595 264.156 157.281 265.133 159.886C265.129 159.93 265.134 159.974 265.148 160.016C265.162 160.058 265.185 160.097 265.214 160.13L265.54 160.862L265.703 161.107C265.872 161.437 266.091 161.739 266.354 162.002C266.354 162.045 266.371 162.086 266.401 162.117C266.432 162.147 266.473 162.165 266.516 162.165C266.958 162.691 267.515 163.109 268.144 163.385C268.503 163.545 268.891 163.628 269.284 163.63C269.446 163.711 269.609 163.63 269.772 163.63H270.016L270.505 163.385C272.376 162.572 272.702 159.235 271.888 157.037ZM270.016 163.385H269.772C269.255 163.529 268.702 163.471 268.226 163.223C267.569 162.916 266.986 162.472 266.516 161.92L266.354 161.758L265.947 161.188L265.703 160.781L265.377 160.048C265.296 159.967 265.296 159.804 265.214 159.723C264.4 157.281 264.97 154.677 266.598 153.944L267.819 153.7H268.063L268.877 153.944H268.958C270.034 154.446 270.898 155.31 271.4 156.386L271.644 157.037C272.11 158.17 272.251 159.41 272.051 160.618C271.99 161.135 271.811 161.631 271.529 162.068C271.247 162.505 270.869 162.872 270.423 163.141L270.016 163.385Z" fill="#2F2E41"/>
<path d="M268.958 152.805C268.958 152.805 269.609 156.467 265.377 161.107C264.634 159.676 264.269 158.079 264.319 156.467C264.4 153.781 268.958 152.805 268.958 152.805Z" fill="#2F2E41"/>
<path d="M267.819 154.677C267.819 154.677 270.504 156.712 271.888 156.467C271.888 156.467 270.911 154.188 269.691 153.537C268.47 152.886 268.225 153.13 268.225 153.13L267.819 154.677Z" fill="#2F2E41"/>
<path d="M265.54 161.025C265.947 161.269 266.435 161.269 266.598 160.944C266.76 160.618 266.516 160.049 266.191 159.804C265.865 159.56 265.214 159.56 265.051 159.886C264.97 160.102 264.975 160.341 265.066 160.554C265.157 160.766 265.327 160.935 265.54 161.025Z" fill="white"/>
<path d="M279.62 172.664C278.189 174.407 276.387 175.809 274.346 176.767C272.304 177.724 270.074 178.213 267.819 178.199C265.328 178.203 262.872 177.607 260.662 176.459C258.451 175.311 256.551 173.646 255.122 171.606L254.308 170.222C254.821 169.571 255.424 168.996 256.098 168.513C258.597 166.789 261.53 165.802 264.563 165.664C264.574 165.75 264.601 165.833 264.644 165.909C264.774 166.701 265.114 167.444 265.63 168.06C266.145 168.676 266.817 169.141 267.574 169.408H268.551C268.983 169.514 269.437 169.485 269.853 169.327L270.097 169.164C270.328 169.062 270.531 168.904 270.687 168.706C270.843 168.507 270.948 168.273 270.993 168.025C271.048 167.925 271.076 167.813 271.074 167.699C271.152 167.017 271.097 166.326 270.911 165.664V165.502C270.911 165.42 270.993 165.42 271.074 165.42C275.713 167.292 278.236 170.06 279.62 172.664Z" fill="#CCCCCC"/>
<path d="M289.062 331.213H327.071L348.232 223.777H320.397C303.142 223.777 289.062 239.73 289.062 259.426V331.213Z" fill="#4FAEE5"/>
<path d="M332.198 232.486L308.188 232.73L295.247 254.787H322.269L332.198 232.486Z" fill="#EBEDEF"/>
<path d="M300.484 248.188L308.903 233.711L324.57 233.554L318.118 248.188H300.484Z" fill="#E6F8FF" stroke="#04B0EA" stroke-width="0.5"/>
<path d="M315.676 254.787H295.247V331.147H315.676V254.787Z" fill="#EBEDEF"/>
<path d="M297.363 258.612H303.223C303.493 258.612 303.712 258.394 303.712 258.124V258.059C303.712 257.789 303.493 257.57 303.223 257.57H297.363C297.094 257.57 296.875 257.789 296.875 258.059V258.124C296.875 258.394 297.094 258.612 297.363 258.612Z" fill="#04B0EA"/>
<path d="M306.153 258.612H312.014C312.283 258.612 312.502 258.394 312.502 258.124V258.059C312.502 257.789 312.283 257.57 312.014 257.57H306.153C305.884 257.57 305.665 257.789 305.665 258.059V258.124C305.665 258.394 305.884 258.612 306.153 258.612Z" fill="#04B0EA"/>
<path d="M349.529 330.963H314.949V255.927C314.949 247.488 318.301 239.395 324.268 233.428C330.235 227.461 338.329 224.109 346.767 224.109H349.529V330.963Z" fill="#E6F8FF" stroke="#2BB1D2" stroke-width="0.5"/>
<path d="M350 264H315V265H350V264Z" fill="#04B0EA"/>
<path d="M138.858 123.722L101.068 89.708V53.5677H101.312V89.6347L139.021 123.576L138.858 123.722Z" fill="#2F2E41"/>
<path d="M139.624 150.221H81.3481C79.8198 150.221 78.5809 151.46 78.5809 152.989V243.348C78.5809 244.876 79.8198 246.115 81.3481 246.115H139.624C141.152 246.115 142.391 244.876 142.391 243.348V152.989C142.391 151.46 141.152 150.221 139.624 150.221Z" fill="#EBEDEF"/>
<path d="M88.9235 223.328V169.679H131.805V223.328H88.9235Z" fill="#E6F8FF" stroke="#04B0EA" stroke-width="0.5"/>
<path d="M145.402 236.576H74.9998L78.5809 229.251H142.391L145.402 236.576Z" fill="#CCCCCC"/>
<path d="M145.402 236.576H74.9998V249.094H145.402V236.576Z" fill="#EBEDEF"/>
<path d="M78.5811 163.813C78.5811 163.732 142.391 163.813 142.391 163.813L143.531 157.872H76.7092L78.5811 163.813Z" fill="#CCCCCC"/>
<path d="M76.7092 153.07V157.872H143.531V152.989C143.531 152.053 143.165 151.154 142.511 150.485C141.857 149.815 140.966 149.429 140.031 149.407H80.3717C79.4004 149.407 78.4688 149.793 77.7819 150.48C77.095 151.167 76.7092 152.099 76.7092 153.07Z" fill="#EBEDEF"/>
<path d="M110.323 162.43C109.184 162.348 108.289 161.697 108.37 160.883C108.451 160.069 109.347 159.581 110.486 159.662C111.626 159.744 112.439 160.395 112.358 161.127C112.277 161.86 111.381 162.43 110.323 162.43Z" fill="#49576B"/>
<path d="M85.6621 152.744H82.4065C82.0918 152.744 81.8367 152.999 81.8367 153.314V155.031C81.8367 155.346 82.0918 155.601 82.4065 155.601H85.6621C85.9767 155.601 86.2318 155.346 86.2318 155.031V153.314C86.2318 152.999 85.9767 152.744 85.6621 152.744Z" fill="#04B0EA"/>
<path d="M86.5573 154.616V153.721L86.72 153.477L87.127 153.07C87.1737 153.042 87.2267 153.027 87.2809 153.025C87.3351 153.023 87.3889 153.035 87.4374 153.059C87.4859 153.084 87.5276 153.12 87.5587 153.164C87.5898 153.209 87.6092 153.26 87.6153 153.314V154.942C87.6092 154.996 87.5898 155.047 87.5587 155.092C87.5276 155.136 87.4859 155.172 87.4374 155.196C87.3889 155.221 87.3351 155.232 87.2809 155.231C87.2267 155.229 87.1737 155.213 87.127 155.186L86.72 154.86L86.5573 154.616Z" fill="#04B0EA"/>
<path d="M228.563 150.221H170.288C168.759 150.221 167.521 151.46 167.521 152.989V243.348C167.521 244.876 168.759 246.115 170.288 246.115H228.563C230.092 246.115 231.331 244.876 231.331 243.348V152.989C231.331 151.46 230.092 150.221 228.563 150.221Z" fill="#EBEDEF"/>
<path d="M177.863 223.328V169.679H220.744V223.328H177.863Z" fill="#E6F8FF" stroke="#04B0EA" stroke-width="0.5"/>
<path d="M234.342 236.576H163.939L167.52 229.251H231.33L234.342 236.576Z" fill="#CCCCCC"/>
<path d="M234.342 236.576H163.939V249.094H234.342V236.576Z" fill="#EBEDEF"/>
<path d="M167.52 163.813C167.52 163.732 231.331 163.813 231.331 163.813L232.47 157.872H165.648L167.52 163.813Z" fill="#CCCCCC"/>
<path d="M165.648 153.07V157.872H232.47V152.989C232.47 152.039 232.093 151.128 231.421 150.456C230.75 149.785 229.839 149.407 228.889 149.407H169.23C168.272 149.429 167.362 149.824 166.692 150.508C166.023 151.193 165.648 152.112 165.648 153.07Z" fill="#EBEDEF"/>
<path d="M199.181 162.43C198.123 162.348 197.228 161.697 197.309 160.883C197.391 160.069 198.286 159.581 199.344 159.662C200.402 159.744 201.379 160.395 201.297 161.127C201.216 161.86 200.321 162.43 199.181 162.43Z" fill="#49576B"/>
<path d="M174.276 152.744H171.02C170.706 152.744 170.451 152.999 170.451 153.314V155.031C170.451 155.346 170.706 155.601 171.02 155.601H174.276C174.591 155.601 174.846 155.346 174.846 155.031V153.314C174.846 152.999 174.591 152.744 174.276 152.744Z" fill="#04B0EA"/>
<path d="M175.171 154.616V153.721C175.167 153.677 175.173 153.633 175.187 153.591C175.201 153.549 175.223 153.51 175.253 153.477L175.741 153.07C175.904 152.907 176.229 153.07 176.229 153.314V154.942C176.229 155.186 175.904 155.349 175.741 155.186L175.253 154.86C175.223 154.827 175.201 154.789 175.187 154.747C175.173 154.705 175.167 154.66 175.171 154.616Z" fill="#04B0EA"/>
<path d="M101.047 91.0943C102.306 91.0943 103.326 90.074 103.326 88.8154C103.326 87.5568 102.306 86.5364 101.047 86.5364C99.7886 86.5364 98.7682 87.5568 98.7682 88.8154C98.7682 90.074 99.7886 91.0943 101.047 91.0943Z" fill="#04B0EA"/>
<path d="M300.578 120.103L300.415 119.858L320.193 100.08V48.9673H320.437V100.243L300.578 120.103Z" fill="#49576B"/>
<path d="M300.394 122.53C299.135 122.53 298.115 121.509 298.115 120.251C298.115 118.992 299.135 117.972 300.394 117.972C301.652 117.972 302.673 118.992 302.673 120.251C302.673 121.509 301.652 122.53 300.394 122.53Z" fill="#04B0EA"/>
<path d="M266.658 180.417C265.399 180.417 264.379 179.397 264.379 178.138C264.379 176.879 265.399 175.859 266.658 175.859C267.916 175.859 268.937 176.879 268.937 178.138C268.937 179.397 267.916 180.417 266.658 180.417Z" fill="#04B0EA"/>
<path d="M319.826 102.317C318.633 101.916 317.991 100.623 318.393 99.4305C318.794 98.2376 320.087 97.596 321.28 97.9975C322.473 98.3989 323.114 99.6914 322.713 100.884C322.311 102.077 321.019 102.719 319.826 102.317Z" fill="#04B0EA"/>
<path d="M189.312 186.065C189.312 182.489 189.312 180.701 189.734 180.1C190.156 179.499 191.836 178.924 195.199 177.773L195.839 177.554C197.591 176.953 198.467 176.654 199.375 176.654C200.282 176.654 201.158 176.953 202.91 177.554L203.551 177.773C206.913 178.924 208.594 179.499 209.015 180.1C209.438 180.701 209.438 182.49 209.438 186.065V187.825C209.438 194.129 204.698 197.189 201.724 198.488C200.918 198.84 200.515 199.016 199.375 199.016C198.234 199.016 197.832 198.84 197.026 198.488C194.051 197.188 189.312 194.13 189.312 187.825V186.065Z" stroke="#04B0EA"/>
<path d="M199.375 183.363V187.835" stroke="#04B0EA" stroke-width="2" stroke-linecap="round"/>
<path d="M199.411 192.079C199.909 192.079 200.313 191.675 200.313 191.178C200.313 190.68 199.909 190.276 199.411 190.276C198.913 190.276 198.51 190.68 198.51 191.178C198.51 191.675 198.913 192.079 199.411 192.079Z" fill="#04B0EA"/>
<path d="M181.987 201.167H146.094V229.702H181.987V201.167Z" fill="white"/>
<path d="M155.077 199.925L155.049 199.9H155.011H145.081C145.044 199.9 145.006 199.91 144.973 199.935C144.941 199.96 144.924 199.992 144.915 200.019C144.9 200.066 144.9 200.121 144.9 200.157C144.9 200.159 144.9 200.161 144.9 200.163V210.255L144.9 210.259C144.9 210.276 144.9 210.296 144.902 210.313C144.904 210.331 144.91 210.367 144.939 210.397C144.969 210.427 145.006 210.433 145.023 210.435C145.04 210.437 145.061 210.437 145.078 210.437L145.081 210.437L145.085 210.437C145.102 210.437 145.122 210.437 145.14 210.435C145.157 210.433 145.193 210.427 145.223 210.397C145.253 210.367 145.259 210.331 145.261 210.313C145.263 210.296 145.263 210.276 145.263 210.259L145.263 210.255V200.263H155.092H155.201L155.192 200.155C155.185 200.066 155.144 199.984 155.077 199.925Z" fill="#04B0EA" stroke="#04B0EA" stroke-width="0.2"/>
<path d="M173.604 200.209H183.515V209.957L183.515 209.961C183.515 209.978 183.515 209.998 183.517 210.015C183.519 210.033 183.524 210.069 183.554 210.099C183.584 210.129 183.621 210.135 183.638 210.137C183.655 210.139 183.676 210.139 183.693 210.139L183.696 210.139L183.7 210.139C183.717 210.139 183.737 210.139 183.754 210.137C183.772 210.135 183.808 210.129 183.838 210.099C183.868 210.069 183.874 210.033 183.876 210.015C183.878 209.998 183.878 209.978 183.878 209.961L183.878 209.957V200.028V199.928H183.778H173.441H173.341V200.028C173.341 200.065 173.351 200.104 173.376 200.136C173.401 200.168 173.433 200.185 173.46 200.194C173.507 200.209 173.562 200.209 173.597 200.209C173.6 200.209 173.602 200.209 173.604 200.209Z" fill="#04B0EA" stroke="#04B0EA" stroke-width="0.2"/>
<path d="M183.696 231.056H183.738L183.767 231.027L183.848 230.945L183.878 230.916V230.875V220.701L183.878 220.697C183.878 220.68 183.878 220.66 183.876 220.643C183.874 220.625 183.868 220.589 183.838 220.559C183.808 220.529 183.772 220.523 183.754 220.521C183.737 220.519 183.717 220.519 183.7 220.519L183.696 220.519L183.693 220.519C183.676 220.519 183.655 220.519 183.638 220.521C183.621 220.523 183.584 220.529 183.554 220.559C183.524 220.589 183.519 220.625 183.517 220.643C183.515 220.66 183.515 220.68 183.515 220.697L183.515 220.701V230.693H173.767C173.729 230.693 173.691 230.703 173.658 230.728C173.626 230.753 173.61 230.785 173.601 230.812C173.585 230.859 173.585 230.914 173.585 230.95C173.585 230.952 173.585 230.954 173.585 230.956V231.056H173.685H183.696Z" fill="#04B0EA" stroke="#04B0EA" stroke-width="0.2"/>
<path d="M145 220.899H144.9V220.999V230.928C144.9 230.93 144.9 230.932 144.9 230.935C144.9 230.97 144.9 231.025 144.915 231.072C144.924 231.099 144.941 231.131 144.973 231.156C145.006 231.181 145.044 231.191 145.081 231.191H155.168C155.214 231.196 155.261 231.189 155.304 231.17L155.263 231.078L155.304 231.17C155.349 231.149 155.388 231.117 155.415 231.076L155.332 231.02L155.415 231.076C155.443 231.034 155.458 230.986 155.459 230.937C155.461 230.887 155.448 230.838 155.423 230.796L155.394 230.747H155.337H145.263V220.999V220.899H145.163H145Z" fill="#04B0EA" stroke="#04B0EA" stroke-width="0.2"/>
<path d="M176.163 318.899L181.003 327.816L179.297 328.747L173.36 320.428L176.163 318.899Z" fill="white" stroke="#49576B"/>
<path d="M161.547 305.819L173.791 323.086L178.488 319.738L168.262 298.67L161.547 305.819Z" fill="white"/>
<path d="M142.568 266.72L142.568 266.72L142.564 266.72C142.171 266.82 141.755 266.772 141.395 266.585C141.035 266.397 140.755 266.084 140.61 265.703C140.465 265.323 140.463 264.902 140.607 264.521C140.75 264.139 141.028 263.824 141.387 263.635L141.463 263.595L141.521 263.531L146.021 258.645L148.689 259.288L143.794 263.877L143.535 264.12L143.679 264.445C143.777 264.665 143.825 264.905 143.82 265.147C143.816 265.388 143.758 265.626 143.652 265.843C143.546 266.06 143.394 266.251 143.207 266.402C143.019 266.554 142.801 266.662 142.568 266.72Z" fill="white" stroke="#49576B"/>
<path d="M145.565 262.998L142.967 259.325L152.726 249.206L154.991 233.257C155.103 232.468 155.387 231.714 155.823 231.048C156.258 230.382 156.834 229.82 157.511 229.402C158.187 228.985 158.947 228.721 159.736 228.631C160.525 228.541 161.324 228.626 162.077 228.88C163.436 229.341 164.557 230.324 165.195 231.613C165.832 232.901 165.933 234.391 165.477 235.754L159.695 252.95L145.565 262.998Z" fill="#CCCCCC"/>
<path d="M163.388 320.306L163.388 330.459L161.446 330.459L160.197 320.306L163.388 320.306Z" fill="white" stroke="#49576B"/>
<path d="M165.439 336.449H163.393L163.028 334.512L162.092 336.449H156.664C156.404 336.449 156.151 336.366 155.941 336.211C155.732 336.056 155.577 335.839 155.499 335.59C155.422 335.341 155.426 335.073 155.511 334.827C155.596 334.58 155.757 334.367 155.971 334.219L160.305 331.218V329.26L164.864 329.532L165.439 336.449Z" fill="#CCCCCC"/>
<path d="M185.661 332.095L183.863 333.076L182.619 331.55L182.721 333.699L177.953 336.3C177.725 336.425 177.462 336.473 177.205 336.438C176.947 336.403 176.707 336.285 176.52 336.104C176.334 335.922 176.21 335.685 176.167 335.428C176.124 335.171 176.164 334.907 176.281 334.674L178.657 329.961L177.724 328.241L181.858 326.296L185.661 332.095Z" fill="#CCCCCC"/>
<path d="M165.103 326.987H159.143V305.709L155.453 291.837C152.805 281.916 152.101 271.575 153.38 261.386L153.386 261.344L153.418 261.317C153.512 261.237 162.956 253.409 168.93 259.397C172.956 263.434 169.173 277.95 168.961 278.746V303.769L165.103 326.987Z" fill="white"/>
<path d="M151.565 265.251L153.486 245.992C153.237 245.466 149.644 242.14 153.401 236.291L157.458 226.743L165.056 226.625L165.088 226.657C166.875 228.445 168.194 230.649 168.926 233.072C169.657 235.495 169.78 238.062 169.282 240.543L167.043 251.767L168.983 259.546L151.565 265.251Z" fill="#CCCCCC"/>
<path d="M167.063 217.768C167.063 221.378 164.144 224.302 160.547 224.302C156.949 224.302 154.031 221.378 154.031 217.768C154.031 214.159 156.949 211.234 160.547 211.234C164.144 211.234 167.063 214.159 167.063 217.768Z" fill="white" stroke="#49576B"/>
<path d="M160.321 273.945L160.321 273.945L160.318 273.947C160.018 274.221 159.628 274.375 159.223 274.38C158.817 274.385 158.424 274.24 158.117 273.973C157.81 273.707 157.612 273.336 157.559 272.932C157.506 272.528 157.604 272.119 157.832 271.782L157.88 271.71L157.902 271.627L159.577 265.191L162.231 264.499L160.068 270.858L159.954 271.194L160.234 271.413C160.423 271.561 160.578 271.75 160.688 271.965C160.797 272.18 160.858 272.417 160.867 272.659C160.875 272.9 160.83 273.141 160.736 273.363C160.642 273.585 160.5 273.784 160.321 273.945Z" fill="white" stroke="#49576B"/>
<path d="M187.833 217.425C186.948 218.865 185.073 219.5 183.41 219.212C181.747 218.923 180.302 217.847 179.235 216.537C178.168 215.226 177.429 213.683 176.703 212.156C175.976 210.629 175.241 209.085 174.179 207.77C173.117 206.455 171.68 205.37 170.019 205.068C169.116 204.904 168.092 205.013 167.433 205.654C166.978 206.134 166.73 206.774 166.742 207.436C166.454 207.335 166.146 207.306 165.845 207.352C165.544 207.398 165.258 207.517 165.014 207.7C164.77 207.883 164.574 208.123 164.444 208.399C164.314 208.675 164.254 208.979 164.269 209.285C164.245 209.284 164.22 209.282 164.196 209.282C161.102 207.519 156.405 208.543 156.405 210.469C154.708 210.469 152.633 212.15 152.633 214.703C156.143 214.703 158.209 219.213 156.16 222.446C155.631 223.271 155.048 224.06 154.414 224.807H158.804C159.173 224.277 159.395 223.659 159.448 223.015C159.61 223.6 159.706 224.201 159.736 224.807C159.736 224.807 171.728 226.356 168.633 214.372C168.838 214.362 169.037 214.301 169.213 214.196C169.68 213.913 169.935 213.316 169.98 212.71C170.095 212.741 170.211 212.772 170.326 212.803C171.151 213.026 172.008 213.315 172.574 213.957C173.531 215.041 173.33 216.688 173.677 218.093C174.096 219.788 175.35 221.159 176.743 222.208C178.24 223.335 179.988 224.191 181.851 224.368C183.714 224.546 185.696 223.978 186.987 222.619C188.278 221.261 188.728 219.073 187.833 217.425Z" fill="#49576B"/>
<path fill-rule="evenodd" clip-rule="evenodd" d="M159.147 262.768L155.031 264.116L156.727 254.765L158.823 243.21L160.744 254.765L159.147 262.768Z" fill="#CCCCCC"/>
<path d="M160.1 255.41L157.867 242.648L163.358 246.477L165.205 253.496L163.358 265.301H158.505L160.1 255.41Z" fill="#CCCCCC"/>
<path d="M81.4369 212.167H45.5438V240.703H81.4369V212.167Z" fill="white"/>
<path d="M54.5275 210.925L54.4991 210.9H54.4611H44.5315C44.4939 210.9 44.4556 210.91 44.423 210.935C44.3914 210.96 44.3746 210.992 44.3654 211.019C44.3499 211.066 44.35 211.121 44.3501 211.157C44.3501 211.159 44.3501 211.161 44.3501 211.163V221.255L44.3501 221.259C44.3501 221.276 44.3501 221.296 44.352 221.313C44.3539 221.331 44.3597 221.367 44.3896 221.397C44.4194 221.427 44.4558 221.433 44.4734 221.435C44.4905 221.437 44.5109 221.437 44.5281 221.437L44.5315 221.437L44.5349 221.437C44.5521 221.437 44.5725 221.437 44.5896 221.435C44.6071 221.433 44.6436 221.427 44.6734 221.397C44.7033 221.367 44.709 221.331 44.711 221.313C44.7129 221.296 44.7129 221.276 44.7129 221.259L44.7129 221.255V211.263H54.5425H54.651L54.6422 211.155C54.6349 211.066 54.5939 210.984 54.5275 210.925Z" fill="#04B0EA" stroke="#04B0EA" stroke-width="0.2"/>
<path d="M73.0538 211.209H82.9648V220.957L82.9648 220.961C82.9648 220.978 82.9648 220.998 82.9667 221.015C82.9686 221.033 82.9744 221.069 83.0043 221.099C83.0342 221.129 83.0706 221.135 83.0881 221.137C83.1052 221.139 83.1256 221.139 83.1428 221.139L83.1462 221.139L83.1496 221.139C83.1668 221.139 83.1872 221.139 83.2043 221.137C83.2219 221.135 83.2583 221.129 83.2881 221.099C83.318 221.069 83.3238 221.033 83.3257 221.015C83.3276 220.998 83.3276 220.978 83.3276 220.961L83.3276 220.957V211.028V210.928H83.2276H72.891H72.791V211.028C72.791 211.065 72.8007 211.104 72.8261 211.136C72.8507 211.168 72.8828 211.185 72.9103 211.194C72.9567 211.209 73.0119 211.209 73.0474 211.209C73.0496 211.209 73.0517 211.209 73.0538 211.209Z" fill="#04B0EA" stroke="#04B0EA" stroke-width="0.2"/>
<path d="M83.1462 242.056H83.1876L83.2169 242.027L83.2983 241.945L83.3276 241.916V241.875V231.701L83.3276 231.697C83.3276 231.68 83.3276 231.66 83.3257 231.643C83.3237 231.625 83.318 231.589 83.2881 231.559C83.2583 231.529 83.2218 231.523 83.2043 231.521C83.1872 231.519 83.1668 231.519 83.1496 231.519L83.1462 231.519L83.1428 231.519C83.1255 231.519 83.1052 231.519 83.0881 231.521C83.0705 231.523 83.0341 231.529 83.0043 231.559C82.9744 231.589 82.9686 231.625 82.9667 231.643C82.9648 231.66 82.9648 231.68 82.9648 231.697L82.9648 231.701V241.693H73.2166C73.1789 241.693 73.1406 241.703 73.1081 241.728C73.0764 241.753 73.0596 241.785 73.0505 241.812C73.035 241.859 73.0351 241.914 73.0351 241.95C73.0351 241.952 73.0351 241.954 73.0351 241.956V242.056H73.1351H83.1462Z" fill="#04B0EA" stroke="#04B0EA" stroke-width="0.2"/>
<path d="M44.45 231.899H44.35V231.999V241.928C44.35 241.93 44.35 241.932 44.35 241.935C44.3499 241.97 44.3498 242.025 44.3653 242.072C44.3745 242.099 44.3913 242.131 44.423 242.156C44.4555 242.181 44.4938 242.191 44.5314 242.191H54.6176C54.6642 242.196 54.7112 242.189 54.754 242.17L54.7131 242.078L54.754 242.17C54.7992 242.149 54.8377 242.117 54.8652 242.076L54.782 242.02L54.8652 242.076C54.8927 242.034 54.908 241.986 54.9093 241.937C54.9106 241.887 54.8979 241.838 54.8726 241.796L54.8436 241.747H54.7866H44.7128V231.999V231.899H44.6128H44.45Z" fill="#04B0EA" stroke="#04B0EA" stroke-width="0.2"/>
<path d="M67.8421 317.202L72.4663 331.158H74.303L73.851 316.871L67.8421 317.202Z" fill="white" stroke="#49576B"/>
<path d="M71.3253 339.923C72.1676 340.283 72.8731 337.364 73.5836 338.018C75.5708 339.849 77.6241 340.248 80.2767 339.448L80.3381 339.439C80.4982 339.39 80.6462 339.312 80.773 339.209C80.8999 339.105 81.0031 338.979 81.0763 338.837C81.1495 338.695 81.1912 338.541 81.1989 338.383C81.2067 338.226 81.1802 338.069 81.1212 337.921C81.0505 337.745 80.9352 337.587 80.785 337.461C80.6349 337.336 80.4545 337.246 80.2593 337.2L78.1458 336.705L74.8274 331.235L71.4398 331.02C70.6845 331.923 70.1575 332.974 69.8982 334.095C69.6389 335.216 69.6542 336.377 69.9429 337.492C70.2503 338.668 70.7249 339.666 71.3253 339.923Z" fill="#CCCCCC"/>
<path d="M48.0002 315.105L47.2614 329.075L48.9931 329.736L53.7491 316.957L48.0002 315.105Z" fill="white" stroke="#49576B"/>
<path d="M43.3351 337.151C43.97 337.81 45.7522 335.206 46.1518 336.105C47.2693 338.621 49.0035 339.758 51.7539 339.938L51.8142 339.951C51.9802 339.962 52.1466 339.939 52.3035 339.884C52.4603 339.829 52.6043 339.742 52.7267 339.63C52.8492 339.517 52.9474 339.381 53.0156 339.23C53.0838 339.078 53.1205 338.915 53.1235 338.749C53.1271 338.55 53.0822 338.353 52.9929 338.176C52.9035 337.998 52.7723 337.845 52.6105 337.729L50.8585 336.476L49.9292 329.909L46.8961 328.468C45.851 329.078 44.9581 329.917 44.2844 330.921C43.6108 331.926 43.174 333.069 43.0069 334.267C42.8331 335.531 42.8824 336.681 43.3351 337.151Z" fill="#CCCCCC"/>
<path d="M54.7097 257.292L54.7656 257.293L54.8196 257.308L58.8864 258.363C59.1213 258.424 59.3666 258.431 59.6044 258.384C59.8423 258.337 60.067 258.236 60.2619 258.09C60.4569 257.943 60.6173 257.754 60.731 257.536C60.8447 257.318 60.9086 257.076 60.918 256.83C60.9267 256.603 60.889 256.377 60.8073 256.166C60.7257 255.954 60.602 255.763 60.4442 255.602L60.8005 255.252L60.4442 255.602C60.2864 255.442 60.0979 255.317 59.8905 255.233C59.6832 255.15 59.4612 255.111 59.2385 255.118L55.6563 255.235L55.559 255.238L55.4675 255.205L48.5648 252.667L47.7033 252.351L48.4366 251.799L54.7335 247.058L54.108 241.375L42.1047 251.103C41.9315 251.243 41.7886 251.419 41.6852 251.618C41.5817 251.817 41.52 252.036 41.5041 252.261C41.4774 252.639 41.5814 253.014 41.7976 253.322C42.0138 253.631 42.3285 253.853 42.6873 253.952L42.7899 253.98L42.872 254.048C45.7137 256.389 49.9047 257.141 54.7097 257.292Z" fill="white" stroke="#49576B"/>
<mask id="path-113-inside-3_444_8047" fill="white">
<path fill-rule="evenodd" clip-rule="evenodd" d="M59.4606 230.698C58.3052 229.428 57.5904 227.673 57.5904 225.734C57.5904 221.857 60.4473 218.715 63.9715 218.715C67.4956 218.715 70.3525 221.857 70.3525 225.734C70.3525 229.029 68.2881 231.794 65.5043 232.549C64.7307 234.404 64.4093 236.45 64.5875 238.496L56.3142 234.93C57.9878 233.64 59.0438 232.231 59.4606 230.698Z"/>
</mask>
<path fill-rule="evenodd" clip-rule="evenodd" d="M59.4606 230.698C58.3052 229.428 57.5904 227.673 57.5904 225.734C57.5904 221.857 60.4473 218.715 63.9715 218.715C67.4956 218.715 70.3525 221.857 70.3525 225.734C70.3525 229.029 68.2881 231.794 65.5043 232.549C64.7307 234.404 64.4093 236.45 64.5875 238.496L56.3142 234.93C57.9878 233.64 59.0438 232.231 59.4606 230.698Z" fill="white"/>
<path d="M59.4606 230.698L60.4256 230.961L60.5695 230.431L60.2004 230.025L59.4606 230.698ZM65.5043 232.549L65.2425 231.584L64.7698 231.712L64.5813 232.164L65.5043 232.549ZM64.5875 238.496L64.1917 239.414L65.729 240.077L65.5837 238.409L64.5875 238.496ZM56.3142 234.93L55.7039 234.138L54.3571 235.175L55.9184 235.848L56.3142 234.93ZM60.2004 230.025C59.2141 228.941 58.5904 227.426 58.5904 225.734H56.5904C56.5904 227.919 57.3962 229.915 58.7209 231.371L60.2004 230.025ZM58.5904 225.734C58.5904 222.318 61.0872 219.715 63.9715 219.715V217.715C59.8075 217.715 56.5904 221.397 56.5904 225.734H58.5904ZM63.9715 219.715C66.8558 219.715 69.3525 222.318 69.3525 225.734H71.3525C71.3525 221.397 68.1354 217.715 63.9715 217.715V219.715ZM69.3525 225.734C69.3525 228.625 67.5462 230.959 65.2425 231.584L65.766 233.514C69.03 232.629 71.3525 229.433 71.3525 225.734H69.3525ZM65.5837 238.409C65.4195 236.524 65.716 234.639 66.4272 232.934L64.5813 232.164C63.7454 234.168 63.3991 236.377 63.5913 238.582L65.5837 238.409ZM55.9184 235.848L64.1917 239.414L64.9833 237.577L56.71 234.011L55.9184 235.848ZM58.4956 230.436C58.1533 231.695 57.265 232.935 55.7039 234.138L56.9245 235.722C58.7105 234.346 59.9344 232.768 60.4256 230.961L58.4956 230.436Z" fill="#49576B" mask="url(#path-113-inside-3_444_8047)"/>
<path d="M54.7059 250.464C61.5233 251.037 65.2523 250.087 70.9905 246.597L68.8313 241.315C68.9396 240.519 68.8367 239.708 68.5339 238.97C68.231 238.232 67.7399 237.596 67.1146 237.131L64.8726 235.466L58.0348 233.391L57.7281 233.407C56.8185 233.455 55.9567 233.848 55.3041 234.514C54.6515 235.181 54.253 236.073 54.1832 237.025C52.6977 241.68 52.688 246.179 54.7059 250.464Z" fill="#49576B"/>
<path d="M56.2334 261.467L71.6329 259.827L72.7737 255.086C75.3021 251.426 74.1985 248.073 71.2527 244.877C65.8832 248.181 60.8989 249.609 53.7618 248.523C55.6598 252.95 57.4128 257.3 56.2334 261.467Z" fill="#EBEDEF"/>
<path d="M43.5522 318.896L55.9685 318.232L60.011 286.533L63.2835 318.042L78.0097 317.378C73.5176 296.663 70.3969 276.999 71.2722 258.915L55.8722 260.244C50.653 265.67 48.0615 274.332 46.536 284.635C45.0105 294.938 43.7809 306.881 43.5522 318.896Z" fill="#EBEDEF"/>
<path d="M57.0342 219.3C55.8007 219.3 54.8008 218.3 54.8008 217.067C54.8008 215.834 55.8007 214.834 57.0342 214.834C58.2676 214.834 59.2675 215.834 59.2675 217.067C59.2675 218.3 58.2676 219.3 57.0342 219.3Z" fill="#49576B"/>
<path d="M59.2174 216.995C59.1802 216.428 58.9252 215.897 58.5043 215.508C58.0835 215.12 57.5285 214.905 56.9524 214.907C56.9991 214.901 57.0455 214.894 57.0932 214.891C57.693 214.853 58.2835 215.051 58.7349 215.442C59.1863 215.834 59.4615 216.386 59.5001 216.977C59.5386 217.569 59.3374 218.151 58.9405 218.596C58.5437 219.041 57.9838 219.313 57.384 219.351C57.3363 219.354 57.2894 219.352 57.2422 219.353C57.8138 219.281 58.3363 218.998 58.7033 218.56C59.0703 218.122 59.2541 217.562 59.2174 216.995Z" fill="#49576B"/>
<path d="M59.1045 217.439C61.0524 215.712 66.6396 217.908 67.0001 219.069C69.6343 219.453 71.6286 221.096 71.6286 224.018C70.0625 224.704 68.2814 224.62 66.3561 224.018C63.2869 226.693 63.0765 230.055 64.943 233.916L62.6466 233.965L59.8002 229.517L59.6641 234.029L54.4003 233.916V227.45C54.3833 225.3 54.8461 223.177 55.7502 221.257C56.5705 219.553 57.8435 218.558 59.1045 217.439Z" fill="#49576B"/>
<path d="M64.1656 227.648C64.1656 227.838 64.2244 227.977 64.2795 228.051C64.2834 228.056 64.2871 228.061 64.2905 228.065C64.294 228.061 64.2977 228.056 64.3015 228.051C64.3567 227.977 64.4154 227.838 64.4154 227.648C64.4154 227.458 64.3567 227.318 64.3015 227.245C64.2977 227.24 64.294 227.235 64.2905 227.231C64.2871 227.235 64.2834 227.24 64.2795 227.245C64.2244 227.318 64.1656 227.458 64.1656 227.648ZM64.3272 228.099C64.3273 228.099 64.3258 228.098 64.3228 228.097C64.3257 228.099 64.3272 228.099 64.3272 228.099ZM64.2583 228.097C64.2552 228.098 64.2538 228.099 64.2538 228.099C64.2539 228.099 64.2554 228.099 64.2583 228.097ZM64.2538 227.197C64.2538 227.197 64.2552 227.198 64.2583 227.199C64.2554 227.197 64.2539 227.197 64.2538 227.197ZM64.3228 227.199C64.3258 227.198 64.3273 227.197 64.3272 227.197C64.3272 227.197 64.3257 227.197 64.3228 227.199Z" fill="white" stroke="#49576B" stroke-width="1.6645"/>
<path d="M71.5894 280.447L71.6534 280.57L71.6455 280.707L71.2741 287.22C71.2543 287.566 71.311 287.911 71.4399 288.232C71.5687 288.553 71.7664 288.84 72.0181 289.073C72.2698 289.306 72.5693 289.479 72.8946 289.58C73.2199 289.681 73.5631 289.707 73.8996 289.657C74.2264 289.609 74.4368 289.498 74.578 289.367C74.7206 289.234 74.8252 289.05 74.8886 288.803C75.0208 288.288 74.9547 287.577 74.7597 286.788L73.2335 280.614C69.4705 266.965 68.457 253.576 68.6471 240.537L68.6471 240.535C68.6536 240.161 68.5851 239.789 68.4457 239.442C68.3063 239.096 68.0991 238.781 67.8368 238.519C67.5746 238.256 67.2627 238.05 66.9203 237.913C66.578 237.776 66.212 237.71 65.8443 237.72C65.4857 237.731 65.1325 237.813 64.805 237.962C64.4774 238.112 64.1818 238.325 63.9354 238.591C63.689 238.857 63.4968 239.169 63.37 239.511C63.2432 239.853 63.1844 240.217 63.1971 240.582L63.1971 240.582C63.7268 255.835 65.9263 269.62 71.5894 280.447Z" fill="white" stroke="#49576B"/>
<path d="M106.052 188.997L111.604 183.541C111.812 183.337 112.077 183.235 112.398 183.235C112.719 183.235 112.983 183.337 113.191 183.541C113.398 183.745 113.502 184.005 113.502 184.32C113.502 184.636 113.398 184.896 113.191 185.1L106.846 191.335C106.619 191.557 106.355 191.669 106.052 191.669C105.75 191.669 105.486 191.557 105.259 191.335L102.313 188.44C102.105 188.236 102.002 187.976 102.002 187.661C102.002 187.345 102.105 187.085 102.313 186.881C102.521 186.677 102.785 186.575 103.106 186.575C103.427 186.575 103.692 186.677 103.899 186.881L106.052 188.997Z" fill="#04B0EA"/>
<path d="M103.152 196.269H111.447" stroke="#04B0EA" stroke-linecap="round"/>
<path d="M103.152 205.086H107.618" stroke="#04B0EA" stroke-linecap="round"/>
<path d="M103.152 200.736H119.104" stroke="#04B0EA" stroke-linecap="round"/>
<path d="M289.847 161H298.143" stroke="#04B0EA" stroke-linecap="round"/>
<path d="M289.847 169.817H294.314" stroke="#04B0EA" stroke-linecap="round"/>
<path d="M289.847 165.467H305.8" stroke="#04B0EA" stroke-linecap="round"/>
<path d="M139.021 123.722V143.657L110.652 160.716" stroke="#49576B" stroke-width="0.3"/>
<path d="M139 125.98C140.258 125.98 141.279 124.96 141.279 123.701C141.279 122.442 140.258 121.422 139 121.422C137.741 121.422 136.721 122.442 136.721 123.701C136.721 124.96 137.741 125.98 139 125.98Z" fill="#04B0EA"/>
<path d="M199.592 51.0757V160.525" stroke="#49576B" stroke-width="0.3"/>
<path d="M323.405 46.8135C325.563 46.8135 327.312 45.0644 327.312 42.9067C327.312 40.7491 325.563 39 323.405 39C321.248 39 319.499 40.7491 319.499 42.9067C319.499 45.0644 321.248 46.8135 323.405 46.8135Z" fill="#04B0EA"/>
<path d="M318.929 57.3128C323.648 57.3128 327.475 53.4867 327.475 48.7668C327.475 44.047 323.648 40.2209 318.929 40.2209C314.209 40.2209 310.383 44.047 310.383 48.7668C310.383 53.4867 314.209 57.3128 318.929 57.3128Z" fill="#CCCCCC"/>
<path d="M318.148 55.349C320.51 54.7906 321.973 52.4229 321.414 50.0607C320.856 47.6985 318.488 46.2362 316.126 46.7946C313.764 47.353 312.301 49.7207 312.86 52.0829C313.418 54.4451 315.786 55.9074 318.148 55.349Z" fill="#E6F8FF"/>
<path d="M317.138 52.9992C318.127 52.9992 318.929 52.1975 318.929 51.2086C318.929 50.2197 318.127 49.418 317.138 49.418C316.149 49.418 315.347 50.2197 315.347 51.2086C315.347 52.1975 316.149 52.9992 317.138 52.9992Z" fill="#49576B"/>
<path d="M316.568 51.5342C316.772 51.5586 316.978 51.505 317.144 51.3843C317.31 51.2635 317.424 51.0845 317.464 50.8831C317.467 50.6713 317.395 50.4652 317.261 50.3012C317.127 50.1373 316.939 50.0263 316.731 49.9878C316.635 49.9765 316.537 49.9844 316.444 50.0111C316.351 50.0378 316.264 50.0827 316.188 50.1433C316.112 50.2039 316.049 50.2789 316.003 50.3639C315.956 50.449 315.927 50.5425 315.917 50.6389C315.893 50.7412 315.892 50.8474 315.913 50.9502C315.934 51.0531 315.977 51.1503 316.038 51.2352C316.1 51.3201 316.179 51.3907 316.271 51.4423C316.362 51.4939 316.464 51.5253 316.568 51.5342Z" fill="white"/>
<path d="M96.7042 46.8135C98.8618 46.8135 100.611 45.0644 100.611 42.9067C100.611 40.7491 98.8618 39 96.7042 39C94.5465 39 92.7974 40.7491 92.7974 42.9067C92.7974 45.0644 94.5465 46.8135 96.7042 46.8135Z" fill="#04B0EA"/>
<path d="M101.181 57.3128C105.9 57.3128 109.727 53.4867 109.727 48.7668C109.727 44.047 105.9 40.2209 101.181 40.2209C96.4607 40.2209 92.6345 44.047 92.6345 48.7668C92.6345 53.4867 96.4607 57.3128 101.181 57.3128Z" fill="#CCCCCC"/>
<path d="M102.971 55.6038C105.398 55.6038 107.366 53.636 107.366 51.2087C107.366 48.7813 105.398 46.8136 102.971 46.8136C100.544 46.8136 98.576 48.7813 98.576 51.2087C98.576 53.636 100.544 55.6038 102.971 55.6038Z" fill="#E6F8FF"/>
<path d="M102.971 52.9992C103.96 52.9992 104.762 52.1975 104.762 51.2086C104.762 50.2197 103.96 49.418 102.971 49.418C101.982 49.418 101.18 50.2197 101.18 51.2086C101.18 52.1975 101.982 52.9992 102.971 52.9992Z" fill="#49576B"/>
<path d="M103.541 51.5342C103.443 51.5595 103.34 51.5617 103.242 51.5406C103.143 51.5194 103.05 51.4755 102.971 51.4123C102.892 51.3491 102.829 51.2684 102.786 51.1765C102.744 51.0847 102.724 50.9842 102.727 50.8831C102.703 50.7808 102.702 50.6746 102.723 50.5718C102.744 50.4689 102.786 50.3717 102.848 50.2868C102.91 50.2019 102.989 50.1312 103.081 50.0797C103.172 50.0281 103.273 49.9967 103.378 49.9878C103.474 49.9765 103.572 49.9844 103.665 50.0111C103.758 50.0378 103.845 50.0827 103.921 50.1433C103.997 50.2039 104.06 50.2789 104.106 50.3639C104.153 50.449 104.182 50.5425 104.192 50.6389C104.216 50.7412 104.217 50.8474 104.196 50.9502C104.175 51.0531 104.133 51.1503 104.071 51.2352C104.009 51.3201 103.93 51.3907 103.838 51.4423C103.747 51.4939 103.645 51.5253 103.541 51.5342Z" fill="white"/>
<path d="M208.767 44.2224C208.782 45.9043 208.465 47.5724 207.835 49.1299L207.49 49.9653C205.867 53.2718 202.898 55.4646 199.515 55.4646C196.132 55.4646 193.163 53.2718 191.54 49.9653L191.195 49.1299C190.565 47.5724 190.249 45.9043 190.263 44.2224V43.7003C190.307 42.4937 190.516 41.2989 190.885 40.1501H208.146C208.514 41.2989 208.723 42.4937 208.767 43.7003V44.2224Z" fill="#EBEDEF"/>
<path d="M208.589 40.1501H190.442C189.99 40.1501 189.625 40.5534 189.625 41.051V43.0779C189.625 43.5754 189.99 43.9787 190.442 43.9787H208.589C209.04 43.9787 209.406 43.5754 209.406 43.0779V41.051C209.406 40.5534 209.04 40.1501 208.589 40.1501Z" fill="#667285"/>
<path d="M199.515 53.5503C201.101 53.5503 202.387 52.2647 202.387 50.6788C202.387 49.093 201.101 47.8074 199.515 47.8074C197.929 47.8074 196.644 49.093 196.644 50.6788C196.644 52.2647 197.929 53.5503 199.515 53.5503Z" fill="white"/>
<path d="M199.515 51.636C200.044 51.636 200.472 51.2074 200.472 50.6788C200.472 50.1502 200.044 49.7216 199.515 49.7216C198.986 49.7216 198.558 50.1502 198.558 50.6788C198.558 51.2074 198.986 51.636 199.515 51.636Z" fill="#04B0EA"/>
</svg>
