<svg width="390" height="422" viewBox="0 0 390 422" fill="none" xmlns="http://www.w3.org/2000/svg">
<rect x="-8" y="-55" width="407" height="477" fill="#E6F8FF"/>
<mask id="path-2-inside-1_444_7594" fill="white">
<path d="M-8 327H399V422H-8V327Z"/>
</mask>
<path d="M-8 327H399V422H-8V327Z" fill="#E6F8FF"/>
<path d="M-8 328H399V326H-8V328Z" fill="#04B0EA" mask="url(#path-2-inside-1_444_7594)"/>
<mask id="path-4-inside-2_444_7594" fill="white">
<path d="M-8 -55H399V40H-8V-55Z"/>
</mask>
<path d="M-8 -55H399V40H-8V-55Z" fill="#C8E7F5"/>
<path d="M399 39H-8V41H399V39Z" fill="#04B0EA" mask="url(#path-4-inside-2_444_7594)"/>
<path d="M220.422 331.641L215.653 329.635L212.382 305.745H168.817L165.271 329.537L161.005 331.669C160.801 331.771 160.637 331.939 160.54 332.145C160.443 332.352 160.419 332.585 160.472 332.807C160.524 333.029 160.65 333.227 160.829 333.368C161.008 333.51 161.23 333.587 161.458 333.587H220.029C220.263 333.587 220.49 333.506 220.671 333.358C220.852 333.21 220.976 333.004 221.022 332.775C221.068 332.546 221.034 332.308 220.924 332.101C220.815 331.894 220.638 331.732 220.422 331.641Z" fill="#50A4D6"/>
<path d="M83.8848 308.48H298.148L298.149 308.48M83.8848 308.48L302.385 304.783C302.385 305.905 301.939 306.982 301.145 307.776C300.351 308.57 299.273 309.018 298.149 309.02V308.48M83.8848 308.48C83.8844 308.48 83.884 308.48 83.8836 308.48C82.9026 308.477 81.9628 308.087 81.2702 307.394L80.888 307.776L81.2702 307.394C80.5773 306.701 80.1884 305.762 80.1884 304.783V275.167H301.844M83.8848 308.48L83.8836 309.02L301.844 275.167M298.149 308.48C299.13 308.477 300.07 308.087 300.762 307.394C301.455 306.701 301.844 305.762 301.844 304.783V275.167M298.149 308.48L301.844 275.167" fill="#50A4D6" stroke="#FEFEFE" stroke-width="1.08068"/>
<path d="M302.385 288.821H79.6481V159.637C79.6496 158.282 80.1883 156.982 81.1458 156.023C82.1034 155.065 83.4017 154.526 84.7559 154.524H297.277C298.631 154.526 299.929 155.065 300.887 156.023C301.844 156.982 302.383 158.282 302.385 159.637V288.821Z" fill="#C8E7F5"/>
<path d="M289.163 279.54H191.016H92.8698C91.8249 279.539 90.8232 279.123 90.0844 278.383C89.3455 277.642 88.9299 276.639 88.9288 275.592V167.754C88.9299 166.707 89.3455 165.703 90.0843 164.963C90.8232 164.222 91.8249 163.806 92.8698 163.805H289.163C290.208 163.806 291.21 164.222 291.948 164.963C292.687 165.703 293.103 166.707 293.104 167.754V275.592C293.103 276.639 292.687 277.642 291.948 278.383C291.21 279.123 290.208 279.539 289.163 279.54Z" fill="white"/>
<path d="M226.501 188.917H98.7554V254.428H226.501V188.917Z" fill="#F2F2F2"/>
<path d="M224.318 191.101H100.939V252.244H224.318V191.101Z" fill="white"/>
<path d="M208.75 242.964H118.69C118.616 242.964 118.544 242.934 118.491 242.881C118.438 242.828 118.409 242.757 118.409 242.682V199.571C118.409 199.497 118.438 199.425 118.491 199.372C118.544 199.319 118.616 199.29 118.69 199.29C118.765 199.29 118.837 199.319 118.89 199.372C118.943 199.425 118.972 199.497 118.972 199.571V242.401H208.75C208.825 242.401 208.896 242.43 208.949 242.483C209.002 242.536 209.032 242.607 209.032 242.682C209.032 242.757 209.002 242.828 208.949 242.881C208.896 242.934 208.825 242.964 208.75 242.964Z" fill="#CCCCCC"/>
<path fill-rule="evenodd" clip-rule="evenodd" d="M130.161 238.888H138.319C138.325 238.888 138.332 238.886 138.34 238.879C138.347 238.871 138.354 238.858 138.354 238.842C138.354 238.842 138.354 238.842 138.354 238.842V227.432C138.354 227.432 138.354 227.432 138.354 227.432C138.354 227.416 138.347 227.403 138.34 227.395C138.332 227.388 138.325 227.386 138.319 227.386H130.161C130.156 227.386 130.149 227.388 130.141 227.395C130.134 227.403 130.127 227.416 130.127 227.432V238.842C130.127 238.858 130.134 238.871 130.141 238.879C130.149 238.886 130.156 238.888 130.161 238.888ZM130.161 239.688C129.94 239.688 129.728 239.599 129.572 239.44C129.415 239.282 129.327 239.067 129.327 238.843V227.431C129.327 227.207 129.415 226.992 129.572 226.834C129.728 226.675 129.94 226.586 130.161 226.586H138.32C138.541 226.586 138.753 226.675 138.909 226.834C139.066 226.992 139.153 227.207 139.154 227.431V238.843C139.153 239.067 139.066 239.282 138.909 239.44C138.753 239.599 138.541 239.688 138.32 239.688H130.161Z" fill="#3F3D56"/>
<path fill-rule="evenodd" clip-rule="evenodd" d="M152.813 238.607H145.148V217.294H152.813V238.607ZM153.06 216.213H144.9C144.679 216.214 144.468 216.301 144.311 216.457C144.155 216.612 144.067 216.823 144.067 217.043V238.859C144.067 239.078 144.155 239.289 144.311 239.445C144.468 239.6 144.679 239.688 144.9 239.688H153.06C153.281 239.688 153.493 239.6 153.649 239.445C153.805 239.289 153.893 239.078 153.894 238.859V217.043C153.893 216.823 153.805 216.612 153.649 216.457C153.493 216.301 153.281 216.214 153.06 216.213Z" fill="#CCCCCC"/>
<path d="M167.8 239.688H159.64C159.419 239.688 159.208 239.599 159.051 239.44C158.895 239.282 158.807 239.067 158.807 238.843V227.431C158.807 227.207 158.895 226.992 159.051 226.834C159.208 226.675 159.419 226.586 159.64 226.586H167.8C168.021 226.586 168.233 226.675 168.389 226.834C168.545 226.992 168.633 227.207 168.634 227.431V238.843C168.633 239.067 168.545 239.282 168.389 239.44C168.233 239.599 168.021 239.688 167.8 239.688Z" fill="#04B0EA"/>
<path d="M183.086 239.688H174.926C174.71 239.692 174.501 239.611 174.345 239.462C174.189 239.312 174.098 239.107 174.093 238.891V212.643C174.098 212.427 174.189 212.222 174.345 212.072C174.501 211.923 174.71 211.841 174.926 211.846H183.086C183.302 211.841 183.511 211.923 183.667 212.072C183.823 212.222 183.914 212.427 183.919 212.643V238.891C183.914 239.107 183.823 239.312 183.667 239.462C183.511 239.611 183.302 239.692 183.086 239.688Z" fill="#EBEDEF"/>
<path d="M197.826 239.688H189.666C189.445 239.688 189.233 239.6 189.077 239.443C188.921 239.286 188.833 239.074 188.833 238.852V205.039C188.833 204.817 188.921 204.605 189.077 204.448C189.233 204.291 189.445 204.203 189.666 204.203H197.826C198.047 204.203 198.259 204.291 198.415 204.448C198.571 204.605 198.659 204.817 198.659 205.039V238.852C198.659 239.074 198.571 239.286 198.415 239.443C198.259 239.6 198.047 239.688 197.826 239.688Z" fill="#EBEDEF"/>
<path d="M134.24 223.31C135.145 223.31 135.878 222.577 135.878 221.673C135.878 220.768 135.145 220.035 134.24 220.035C133.336 220.035 132.603 220.768 132.603 221.673C132.603 222.577 133.336 223.31 134.24 223.31Z" fill="#EBEDEF"/>
<path d="M148.98 212.392C149.885 212.392 150.618 211.659 150.618 210.754C150.618 209.85 149.885 209.116 148.98 209.116C148.076 209.116 147.343 209.85 147.343 210.754C147.343 211.659 148.076 212.392 148.98 212.392Z" fill="#EBEDEF"/>
<path d="M163.72 223.31C164.625 223.31 165.358 222.577 165.358 221.673C165.358 220.768 164.625 220.035 163.72 220.035C162.816 220.035 162.082 220.768 162.082 221.673C162.082 222.577 162.816 223.31 163.72 223.31Z" fill="#EBEDEF"/>
<path d="M163.787 222.218L148.808 211.041L134.032 222.066L133.694 221.616L148.808 210.339L163.716 221.463L178.531 205.312L178.591 205.288L193.535 199.29L193.746 199.811L178.861 205.785L163.787 222.218Z" fill="#EBEDEF"/>
<path d="M179.006 206.933C179.911 206.933 180.644 206.199 180.644 205.295C180.644 204.39 179.911 203.657 179.006 203.657C178.101 203.657 177.368 204.39 177.368 205.295C177.368 206.199 178.101 206.933 179.006 206.933Z" fill="#04B0EA"/>
<path d="M193.746 200.928C194.65 200.928 195.384 200.194 195.384 199.29C195.384 198.385 194.65 197.652 193.746 197.652C192.841 197.652 192.108 198.385 192.108 199.29C192.108 200.194 192.841 200.928 193.746 200.928Z" fill="#04B0EA"/>
<path d="M285.461 181.82H240.695V216.759H285.461V181.82Z" fill="#F2F2F2"/>
<path d="M284.369 182.912H241.787V215.667H284.369V182.912Z" fill="white"/>
<path fill-rule="evenodd" clip-rule="evenodd" d="M263.882 184.809L263.624 207.213C263.623 207.283 263.651 207.35 263.701 207.4C263.751 207.449 263.82 207.478 263.891 207.479C263.897 207.479 263.903 207.479 263.909 207.478C266.904 207.326 269.726 206.068 271.803 203.961C273.88 201.854 275.054 199.055 275.088 196.135C275.121 193.215 274.012 190.391 271.984 188.239C269.956 186.088 267.163 184.769 264.173 184.551C264.136 184.548 264.099 184.552 264.063 184.564C264.028 184.576 263.996 184.595 263.969 184.619C263.942 184.643 263.92 184.673 263.905 184.705C263.89 184.738 263.882 184.773 263.882 184.809ZM264.135 185.049L264.136 185.049L264.135 185.049ZM264.379 185.07C267.155 185.33 269.734 186.581 271.62 188.582C273.56 190.641 274.62 193.34 274.588 196.129C274.556 198.918 273.434 201.594 271.447 203.61C269.516 205.569 266.908 206.764 264.127 206.964L264.379 185.07ZM263.883 206.979C263.883 206.979 263.883 206.979 263.883 206.979L263.883 206.979Z" fill="#49576B"/>
<path d="M255.223 188.371C255.31 188.372 255.393 188.409 255.454 188.472L262.984 196.288C263.015 196.319 263.039 196.356 263.055 196.397C263.071 196.438 263.079 196.481 263.078 196.525L262.961 207.148C262.961 207.194 262.951 207.239 262.933 207.28C262.914 207.322 262.888 207.359 262.854 207.39C262.821 207.421 262.782 207.445 262.739 207.46C262.696 207.475 262.651 207.481 262.606 207.478C260.512 207.319 258.504 206.57 256.806 205.316C255.109 204.062 253.789 202.353 252.996 200.38C252.203 198.407 251.968 196.248 252.317 194.147C252.666 192.046 253.585 190.085 254.972 188.485C255.002 188.45 255.038 188.422 255.079 188.403C255.121 188.383 255.165 188.373 255.21 188.371C255.215 188.371 255.219 188.371 255.223 188.371Z" fill="#E6E6E6"/>
<path d="M262.762 184.55C262.844 184.551 262.922 184.585 262.98 184.644C263.012 184.676 263.037 184.715 263.054 184.757C263.07 184.8 263.079 184.846 263.078 184.892L262.976 194.589C262.975 194.655 262.956 194.72 262.92 194.775C262.885 194.831 262.834 194.873 262.776 194.898C262.718 194.923 262.654 194.929 262.592 194.915C262.53 194.901 262.474 194.869 262.43 194.821L256.072 187.921C256.042 187.888 256.018 187.849 256.003 187.806C255.987 187.763 255.98 187.718 255.981 187.672C255.983 187.626 255.993 187.581 256.012 187.539C256.03 187.498 256.057 187.461 256.089 187.431C257.938 185.703 260.282 184.689 262.743 184.55C262.749 184.55 262.756 184.55 262.762 184.55Z" fill="#04B0EA"/>
<path d="M258.711 211.858C258.708 212.074 258.642 212.285 258.52 212.463C258.398 212.641 258.226 212.779 258.025 212.859C257.825 212.94 257.605 212.959 257.394 212.914C257.183 212.87 256.989 212.764 256.838 212.609C256.687 212.455 256.585 212.259 256.546 212.047C256.506 211.835 256.53 211.615 256.615 211.417C256.7 211.218 256.842 211.049 257.023 210.931C257.203 210.813 257.415 210.752 257.631 210.754C257.921 210.758 258.197 210.876 258.399 211.083C258.602 211.29 258.714 211.569 258.711 211.858Z" fill="#E6E6E6"/>
<path d="M265.262 211.858C265.259 212.074 265.193 212.285 265.071 212.463C264.949 212.641 264.777 212.779 264.577 212.859C264.376 212.94 264.156 212.959 263.945 212.914C263.734 212.87 263.54 212.764 263.389 212.609C263.238 212.455 263.137 212.259 263.097 212.047C263.057 211.835 263.081 211.615 263.166 211.417C263.251 211.218 263.393 211.049 263.574 210.931C263.755 210.813 263.966 210.752 264.182 210.754C264.472 210.758 264.748 210.876 264.95 211.083C265.153 211.29 265.265 211.569 265.262 211.858Z" fill="#E6E6E6"/>
<path d="M271.813 211.858C271.81 212.074 271.744 212.285 271.622 212.463C271.5 212.641 271.328 212.779 271.128 212.859C270.927 212.94 270.707 212.959 270.496 212.914C270.285 212.87 270.091 212.764 269.94 212.609C269.789 212.455 269.688 212.259 269.648 212.047C269.608 211.835 269.632 211.615 269.717 211.417C269.802 211.218 269.944 211.049 270.125 210.931C270.306 210.813 270.517 210.752 270.733 210.754C271.023 210.758 271.299 210.876 271.501 211.083C271.704 211.29 271.816 211.569 271.813 211.858Z" fill="#E6E6E6"/>
<path d="M71.6888 204.128C77.3926 211.978 84.6258 217.006 93.3883 219.212C102.151 217.006 109.385 211.978 115.092 204.128C120.795 196.281 123.647 187.566 123.647 177.984V154.912L93.3883 143.564L63.1292 154.912V177.984C63.1292 187.566 65.9824 196.281 71.6888 204.128Z" fill="white"/>
<path fill-rule="evenodd" clip-rule="evenodd" d="M93.3883 142.763L124.397 154.392V177.984C124.397 187.727 121.494 196.595 115.698 204.569C109.897 212.549 102.517 217.687 93.5714 219.939L93.3883 219.985L93.2051 219.939C84.2592 217.687 76.8811 212.549 71.0822 204.569C65.2839 196.595 62.3792 187.727 62.3792 177.984V154.392L93.3883 142.763ZM63.8792 155.431V177.984C63.8792 187.405 66.6809 195.966 72.2953 203.687C77.8641 211.351 84.8914 216.254 93.3883 218.438C101.885 216.254 108.914 211.351 114.485 203.687C120.097 195.966 122.897 187.406 122.897 177.984V155.431L93.3883 144.365L63.8792 155.431Z" fill="#04B0EA"/>
<path d="M91.1111 196L76 181.13L83.6218 173.565L90.1833 180.022L101.517 166L110 172.652L91.1111 196Z" fill="#04B0EA"/>
<path d="M276.255 237.117L277.046 230.778C277.327 228.526 278.491 226.477 280.283 225.082C282.075 223.688 284.347 223.063 286.6 223.344C288.853 223.625 290.902 224.789 292.296 226.581C293.69 228.373 294.316 230.645 294.035 232.898L293.244 239.237C293.206 239.539 293.049 239.814 292.809 240.001C292.568 240.189 292.263 240.273 291.96 240.235L277.254 238.401C276.951 238.363 276.676 238.206 276.489 237.965C276.302 237.725 276.217 237.42 276.255 237.117Z" fill="#49576B"/>
<path d="M289.035 232.732C289.035 235.9 286.467 238.468 283.299 238.468C280.132 238.468 277.564 235.9 277.564 232.732C277.564 229.565 280.132 226.997 283.299 226.997C286.467 226.997 289.035 229.565 289.035 232.732Z" fill="white" stroke="#49576B" stroke-width="1.08068"/>
<path d="M274.973 231.035C275.197 229.254 276.119 227.634 277.536 226.532C278.952 225.429 280.749 224.934 282.531 225.154L283.799 225.312C285.58 225.536 287.199 226.458 288.302 227.875C289.404 229.292 289.9 231.088 289.68 232.87L289.664 232.996L286.984 232.662L286.39 229.989L285.888 232.525L284.503 232.353L284.203 231.004L283.95 232.284L274.957 231.162L274.973 231.035Z" fill="#49576B"/>
<path d="M253.049 254.893L253.049 254.893L253.047 254.89C252.776 254.367 252.707 253.762 252.852 253.191C252.997 252.62 253.347 252.122 253.834 251.792C254.322 251.461 254.914 251.321 255.498 251.398C256.082 251.475 256.618 251.763 257.004 252.208L257.06 252.273L257.135 252.316L264.69 256.6L262.538 258.823L257.176 255.682L256.888 255.513L256.622 255.714C256.343 255.925 256.021 256.073 255.68 256.146C255.338 256.219 254.984 256.216 254.643 256.138C254.303 256.059 253.983 255.907 253.708 255.692C253.432 255.477 253.207 255.204 253.049 254.893Z" fill="white" stroke="black"/>
<path d="M271.286 261.12C267.082 261.12 259.682 259.238 259.273 259.132L259.143 259.099L260.308 253.204L271.609 255.436L277.749 246.79L284.798 246.074L284.601 246.332C284.509 246.453 275.423 258.414 274.009 260.42C273.652 260.927 272.633 261.12 271.286 261.12Z" fill="#CCCCCC"/>
<path d="M272.413 283.248L272.245 283.168C272.209 283.151 268.637 281.413 266.787 278.021C264.945 274.645 273.566 260.324 274.169 259.33L274.178 254.782L277.279 246.409L281.234 244.174L277.838 252.097L272.413 283.248Z" fill="#CCCCCC"/>
<path d="M268.451 332.131L264.671 332.131L262.873 317.552L268.452 317.553L268.451 332.131Z" fill="#EBEDEF"/>
<path d="M269.415 335.795L257.227 335.795V335.641C257.227 334.383 257.727 333.176 258.617 332.287C259.506 331.397 260.713 330.897 261.971 330.897H261.971L269.415 330.897L269.415 335.795Z" fill="#CCCCCC"/>
<path d="M309.051 328.819L305.46 329.996L299.211 316.702L304.512 314.965L309.051 328.819Z" fill="#EBEDEF"/>
<path d="M311.108 332L299.526 335.795L299.478 335.649C299.087 334.453 299.186 333.151 299.754 332.028C300.323 330.906 301.314 330.055 302.509 329.664L302.509 329.664L309.583 327.346L311.108 332Z" fill="#CCCCCC"/>
<path d="M273.141 306.126L269.957 327.658L259.716 327.801L276.921 259.441L289.611 261.337L289.023 269.86L289.01 270.052L289.12 270.208L289.49 270.735L289.491 270.735C291.042 272.94 292.574 275.12 293.502 277.348C294.423 279.559 294.728 281.767 293.875 284.043L293.808 284.223L293.869 284.405L299.059 299.816L299.068 299.841L299.078 299.865L310.268 324.857L302.016 325.857L291.435 308.192L282.35 288.998L281.866 287.975L281.375 288.994L273.189 305.97L273.154 306.045L273.141 306.126Z" fill="white" stroke="#667285" stroke-width="1.08068"/>
<path d="M277.141 273.862C275.161 273.862 272.901 271.601 274.073 267.74L273.997 267.685L276.813 255.246C274.356 251.732 277.595 248.832 277.899 248.573L279.445 245.79L286.268 241.463L289.72 270.145L289.669 270.194C287.176 272.579 278.802 273.862 277.141 273.862Z" fill="#49576B"/>
<path d="M291.114 280.334C290.843 280.338 290.572 280.31 290.308 280.249C290.043 280.182 289.613 279.844 288.95 277.683C286.311 269.091 283.195 243.239 285.458 240.709L285.51 240.651L289.227 241.271C289.536 241.043 291.157 239.911 292.653 240.108C292.961 240.146 293.258 240.248 293.525 240.406C293.792 240.564 294.024 240.775 294.207 241.026L294.233 241.06L295.417 257.904L299.754 277.727L299.65 277.774C299.398 277.889 293.981 280.334 291.114 280.334Z" fill="#CCCCCC"/>
<path d="M288.597 273.21L288.597 273.21L288.593 273.21C288.014 273.233 287.447 273.043 286.999 272.676C286.551 272.309 286.253 271.79 286.162 271.218C286.071 270.646 286.193 270.061 286.505 269.572C286.816 269.084 287.296 268.727 287.854 268.569L287.943 268.544L288.019 268.49L295.059 263.494L296.131 266.307L291.039 269.814L290.742 270.018L290.817 270.371C290.889 270.707 290.886 271.055 290.809 271.39C290.731 271.725 290.582 272.039 290.37 272.309C290.158 272.58 289.89 272.801 289.583 272.957C289.277 273.112 288.94 273.199 288.597 273.21Z" fill="white" stroke="#49576B" stroke-width="1.08068"/>
<path d="M294.991 269.514L290.145 265.96L296.957 256.671L291.729 247.446L294.068 240.758L294.219 241.046C294.29 241.18 301.271 254.48 302.489 256.611C303.756 258.828 295.431 268.98 295.076 269.411L294.991 269.514Z" fill="#CCCCCC"/>
<path d="M132.541 81.1292H82.2078C80.4219 81.1312 78.7098 81.8415 77.447 83.1043C76.1842 84.3671 75.4739 86.0792 75.4719 87.8651V114.587C75.4739 116.373 76.1842 118.085 77.447 119.348C78.7098 120.611 80.4219 121.321 82.2078 121.323H132.541C134.326 121.321 136.039 120.611 137.301 119.348C138.564 118.085 139.274 116.373 139.276 114.587V87.8651C139.274 86.0792 138.564 84.3671 137.301 83.1043C136.039 81.8415 134.326 81.1312 132.541 81.1292Z" fill="#C8E7F5"/>
<path d="M82.2076 86.6103C81.8749 86.6106 81.5559 86.7429 81.3207 86.9782C81.0854 87.2134 80.9531 87.5324 80.9528 87.8651V114.587C80.9531 114.92 81.0854 115.239 81.3207 115.474C81.5559 115.71 81.8749 115.842 82.2076 115.842H132.541C132.873 115.842 133.192 115.71 133.427 115.474C133.663 115.239 133.795 114.92 133.795 114.587V87.8651C133.795 87.5324 133.663 87.2134 133.427 86.9782C133.192 86.7429 132.873 86.6106 132.541 86.6103H82.2076Z" fill="white"/>
<path d="M106.356 113.025C106.338 113.025 106.321 113.025 106.304 113.024C106.098 113.012 105.903 112.931 105.749 112.793C105.596 112.656 105.494 112.47 105.46 112.267L102.547 94.7886L99.9748 105.077C99.9257 105.273 99.8124 105.448 99.6529 105.572C99.4933 105.697 99.2967 105.764 99.0943 105.764H95.4638C95.2231 105.764 94.9923 105.669 94.8221 105.499C94.6519 105.328 94.5562 105.097 94.5562 104.857C94.5562 104.616 94.6519 104.385 94.8221 104.215C94.9923 104.045 95.2231 103.949 95.4638 103.949H98.3857L101.844 90.1148C101.895 89.9124 102.014 89.7336 102.181 89.6085C102.348 89.4834 102.552 89.4197 102.761 89.428C102.969 89.4363 103.169 89.5162 103.325 89.6542C103.482 89.7922 103.586 89.9799 103.62 90.1857L106.589 107.997L109.113 99.1617C109.166 98.9753 109.278 98.8109 109.431 98.6925C109.585 98.5741 109.772 98.5079 109.966 98.5037C110.16 98.4995 110.35 98.5574 110.508 98.6691C110.667 98.7807 110.785 98.9402 110.847 99.1241L112.455 103.949H115.431C115.672 103.949 115.903 104.045 116.073 104.215C116.243 104.385 116.339 104.616 116.339 104.857C116.339 105.097 116.243 105.328 116.073 105.499C115.903 105.669 115.672 105.764 115.431 105.764H111.801C111.61 105.764 111.425 105.704 111.27 105.593C111.116 105.482 111 105.324 110.94 105.144L110.052 102.481L107.228 112.367C107.174 112.557 107.059 112.723 106.902 112.842C106.745 112.961 106.553 113.025 106.356 113.025Z" fill="#CCCCCC"/>
<path d="M117.522 107.541C118.996 107.541 120.192 106.346 120.192 104.871C120.192 103.396 118.996 102.201 117.522 102.201C116.047 102.201 114.851 103.396 114.851 104.871C114.851 106.346 116.047 107.541 117.522 107.541Z" fill="#04B0EA"/>
<path d="M210.68 81.1292H160.347C158.561 81.1312 156.849 81.8416 155.586 83.1043C154.324 84.3671 153.613 86.0793 153.611 87.8651V114.587C153.613 116.373 154.324 118.085 155.586 119.348C156.849 120.611 158.561 121.321 160.347 121.323H210.68C212.466 121.321 214.178 120.611 215.441 119.348C216.704 118.085 217.414 116.373 217.416 114.587V87.8651C217.414 86.0793 216.704 84.3671 215.441 83.1043C214.178 81.8415 212.466 81.1312 210.68 81.1292Z" fill="#C8E7F5"/>
<path d="M160.347 86.6103C160.014 86.6106 159.696 86.7429 159.46 86.9782C159.225 87.2134 159.093 87.5324 159.092 87.8651V114.587C159.093 114.92 159.225 115.239 159.46 115.474C159.696 115.71 160.014 115.842 160.347 115.842H210.68C211.013 115.842 211.332 115.71 211.567 115.474C211.802 115.239 211.935 114.92 211.935 114.587V87.8651C211.935 87.5324 211.802 87.2134 211.567 86.9782C211.332 86.7429 211.013 86.6106 210.68 86.6103H160.347Z" fill="white"/>
<path d="M185.514 102.665C189.18 102.665 192.153 99.6923 192.153 96.0256C192.153 92.3588 189.18 89.3863 185.514 89.3863C181.847 89.3863 178.874 92.3588 178.874 96.0256C178.874 99.6923 181.847 102.665 185.514 102.665Z" fill="#04B0EA"/>
<path d="M185.514 103.771C187.861 103.771 190.113 104.704 191.773 106.364C193.433 108.024 194.366 110.276 194.366 112.624V113.066H176.661V112.624C176.661 110.276 177.594 108.024 179.254 106.364C180.914 104.704 183.166 103.771 185.514 103.771Z" fill="#04B0EA"/>
<path d="M172.014 105.984C174.581 105.984 176.661 103.904 176.661 101.337C176.661 98.7702 174.581 96.6895 172.014 96.6895C169.447 96.6895 167.366 98.7702 167.366 101.337C167.366 103.904 169.447 105.984 172.014 105.984Z" fill="#D9D9D9"/>
<path d="M176.565 108.12C175.672 107.328 174.569 106.811 173.389 106.631C172.209 106.451 171.002 106.615 169.913 107.105C168.824 107.595 167.9 108.389 167.252 109.392C166.604 110.394 166.26 111.563 166.26 112.756V113.066H175.333V112.624C175.331 111.039 175.757 109.483 176.565 108.12Z" fill="#D9D9D9"/>
<path d="M199.013 105.984C201.58 105.984 203.661 103.904 203.661 101.337C203.661 98.7702 201.58 96.6895 199.013 96.6895C196.447 96.6895 194.366 98.7702 194.366 101.337C194.366 103.904 196.447 105.984 199.013 105.984Z" fill="#D9D9D9"/>
<path d="M194.462 108.12C195.355 107.328 196.458 106.811 197.638 106.631C198.818 106.451 200.025 106.615 201.114 107.105C202.203 107.595 203.127 108.389 203.775 109.392C204.423 110.394 204.768 111.563 204.767 112.756V113.066H195.694V112.624C195.696 111.039 195.27 109.483 194.462 108.12Z" fill="#D9D9D9"/>
<path d="M288.82 81.1292H238.487C236.701 81.1312 234.989 81.8415 233.726 83.1043C232.463 84.3671 231.753 86.0793 231.751 87.8651V114.587C231.753 116.373 232.463 118.085 233.726 119.348C234.989 120.611 236.701 121.321 238.487 121.323H288.82C290.605 121.321 292.318 120.611 293.58 119.348C294.843 118.085 295.554 116.373 295.556 114.587V87.8651C295.554 86.0793 294.843 84.3671 293.58 83.1043C292.318 81.8415 290.605 81.1312 288.82 81.1292Z" fill="#C8E7F5"/>
<path d="M238.487 86.6103C238.154 86.6106 237.835 86.7429 237.6 86.9782C237.365 87.2134 237.232 87.5324 237.232 87.8651V114.587C237.232 114.92 237.365 115.239 237.6 115.474C237.835 115.71 238.154 115.842 238.487 115.842H288.82C289.152 115.842 289.471 115.71 289.707 115.474C289.942 115.239 290.074 114.92 290.074 114.587V87.8651C290.074 87.5324 289.942 87.2134 289.707 86.9782C289.471 86.7429 289.152 86.6106 288.82 86.6103H238.487Z" fill="white"/>
<path d="M262.81 113.584C262.702 113.584 262.595 113.562 262.495 113.521C262.395 113.479 262.304 113.419 262.228 113.342C262.151 113.266 262.091 113.175 262.049 113.075C262.008 112.975 261.987 112.868 261.987 112.76V106.169C261.987 105.951 262.074 105.742 262.228 105.588C262.383 105.434 262.592 105.347 262.81 105.347C263.029 105.347 263.238 105.434 263.392 105.588C263.547 105.742 263.634 105.951 263.634 106.169V112.76C263.634 112.868 263.613 112.975 263.572 113.075C263.53 113.175 263.469 113.266 263.393 113.342C263.316 113.419 263.226 113.479 263.126 113.521C263.026 113.562 262.919 113.584 262.81 113.584Z" fill="#04B0EA"/>
<path d="M265.694 110.288H259.927C259.709 110.288 259.499 110.201 259.345 110.047C259.19 109.892 259.103 109.683 259.103 109.464C259.103 109.246 259.19 109.036 259.345 108.882C259.499 108.727 259.709 108.641 259.927 108.641H265.694C265.912 108.641 266.122 108.727 266.276 108.882C266.431 109.036 266.518 109.246 266.518 109.464C266.518 109.683 266.431 109.892 266.276 110.047C266.122 110.201 265.912 110.288 265.694 110.288Z" fill="#04B0EA"/>
<path d="M273.932 94.6358C273.824 94.6358 273.717 94.6145 273.617 94.5731C273.517 94.5317 273.426 94.471 273.349 94.3945C273.273 94.318 273.212 94.2272 273.171 94.1272C273.129 94.0273 273.108 93.9202 273.108 93.812V90.5167H269.813C269.705 90.5167 269.598 90.4954 269.498 90.454C269.398 90.4126 269.307 90.3519 269.23 90.2754C269.154 90.1989 269.093 90.1081 269.052 90.0082C269.01 89.9082 268.989 89.8011 268.989 89.6929C268.989 89.5847 269.01 89.4776 269.052 89.3777C269.093 89.2777 269.154 89.1869 269.23 89.1104C269.307 89.0339 269.398 88.9732 269.498 88.9318C269.598 88.8904 269.705 88.8691 269.813 88.8691H273.932C274.04 88.8691 274.147 88.8904 274.247 88.9318C274.347 88.9732 274.438 89.0339 274.515 89.1104C274.591 89.1869 274.652 89.2777 274.693 89.3777C274.734 89.4776 274.756 89.5847 274.756 89.6929V93.812C274.756 93.9202 274.734 94.0273 274.693 94.1272C274.652 94.2272 274.591 94.318 274.515 94.3945C274.438 94.471 274.347 94.5317 274.247 94.5731C274.147 94.6145 274.04 94.6358 273.932 94.6358Z" fill="#04B0EA"/>
<path d="M268.952 95.4966C268.789 95.4966 268.63 95.4483 268.494 95.3578C268.359 95.2672 268.253 95.1386 268.191 94.9881C268.129 94.8375 268.112 94.6719 268.144 94.5121C268.176 94.3523 268.254 94.2055 268.369 94.0903L273.349 89.1103C273.504 88.9562 273.713 88.8697 273.932 88.8698C274.15 88.87 274.359 88.9567 274.514 89.1111C274.668 89.2655 274.755 89.4748 274.755 89.6931C274.755 89.9114 274.669 90.1208 274.514 90.2754L269.535 95.2553C269.458 95.332 269.367 95.3927 269.267 95.4341C269.167 95.4755 269.06 95.4968 268.952 95.4966Z" fill="#04B0EA"/>
<path d="M262.81 106.169C261.263 106.169 259.749 105.71 258.462 104.85C257.175 103.99 256.172 102.768 255.58 101.338C254.988 99.9078 254.833 98.3342 255.135 96.8161C255.437 95.2979 256.182 93.9034 257.277 92.8089C258.371 91.7144 259.766 90.969 261.284 90.667C262.802 90.3651 264.375 90.5201 265.805 91.1124C267.235 91.7047 268.458 92.7079 269.318 93.9949C270.178 95.2819 270.637 96.795 270.637 98.3429C270.634 100.418 269.809 102.407 268.342 103.874C266.875 105.341 264.885 106.167 262.81 106.169ZM262.81 92.1643C261.588 92.1643 260.394 92.5267 259.378 93.2056C258.362 93.8845 257.57 94.8494 257.102 95.9784C256.635 97.1074 256.512 98.3497 256.751 99.5483C256.989 100.747 257.577 101.848 258.442 102.712C259.306 103.576 260.407 104.164 261.605 104.403C262.804 104.641 264.046 104.519 265.175 104.051C266.304 103.583 267.269 102.792 267.948 101.776C268.627 100.759 268.989 99.5649 268.989 98.3429C268.987 96.7048 268.336 95.1343 267.177 93.976C266.019 92.8177 264.449 92.1662 262.81 92.1643Z" fill="#CCCCCC"/>
<path d="M97.0169 77.3724L101.21 60.6774C101.369 60.0459 100.986 59.4054 100.354 59.2468C99.7226 59.0881 99.082 59.4715 98.9234 60.103L94.73 76.798C94.5714 77.4295 94.9548 78.07 95.5863 78.2286C96.2178 78.3873 96.8583 78.0039 97.0169 77.3724Z" fill="#EBEDEF"/>
<path d="M267.255 60.4984L271.448 77.1934C271.607 77.8249 272.247 78.2083 272.879 78.0496C273.51 77.891 273.894 77.2505 273.735 76.619L269.542 59.924C269.383 59.2925 268.743 58.9091 268.111 59.0678C267.48 59.2264 267.096 59.8669 267.255 60.4984Z" fill="#EBEDEF"/>
<path d="M94.4812 78.8149C92.9241 78.548 91.0555 77.1688 89.6763 75.3002C88.8947 74.2117 88.3386 72.9779 88.0407 71.6714C87.7427 70.3649 87.7089 69.012 87.9412 67.6922C88.5196 64.4889 87.8522 63.4211 86.2061 60.8406C84.6278 58.3871 83.2444 55.8136 82.0686 53.1437C80.8229 50.3408 80.7784 47.9383 81.8906 46.0252C83.9372 42.5104 89.1424 41.9765 89.3649 41.9765L89.4539 42.8218C89.3649 42.8218 84.4265 43.3112 82.6025 46.4256C81.6237 48.1162 81.7127 50.2518 82.8694 52.8323C83.9964 55.4522 85.3512 57.9681 86.918 60.3512C88.6086 62.9762 89.4094 64.3109 88.742 67.8702C88.5411 69.0784 88.5832 70.3146 88.8659 71.5063C89.1485 72.6981 89.6661 73.8215 90.3882 74.8108C91.7673 76.7684 93.5024 77.7917 94.6147 77.9696L94.4812 78.8149Z" fill="#CCCCCC"/>
<path d="M90.8518 78.8541C86.7587 77.3414 84.2228 75.1614 83.333 72.3139C82.4432 69.4665 83.422 64.884 86.8922 59.7675C90.3624 54.6511 90.2734 47.577 90.2734 47.488H91.1187C91.1187 47.7995 91.2967 54.6956 87.5596 60.2124C83.8224 65.7293 83.1551 69.0216 84.1338 72.0915C85.1126 75.1614 87.3371 76.6296 91.1632 78.0533L90.8518 78.8541Z" fill="#CCCCCC"/>
<path d="M124.779 52.8322C124.779 52.8322 126.247 52.7432 127.404 50.2962C128.56 47.8492 128.738 44.1565 126.781 43.8005C124.823 43.4446 118.773 44.9573 118.773 44.9573L124.779 52.8322Z" fill="#CCCCCC"/>
<path d="M92.1528 53.188L117.823 60.0841L121.783 45.1797L96.1569 38.2836L92.1528 53.188Z" fill="#CCCCCC"/>
<path d="M124.286 53.947C125.479 49.867 124.266 45.9221 121.578 45.1359C118.889 44.3497 115.743 47.0199 114.55 51.0999C113.357 55.18 114.569 59.1248 117.257 59.911C119.946 60.6972 123.093 58.027 124.286 53.947Z" fill="white"/>
<path d="M99.1145 47.2347C100.308 43.1547 99.0953 39.2098 96.4068 38.4236C93.7183 37.6374 90.5717 40.3076 89.3786 44.3877C88.1856 48.4677 89.3979 52.4125 92.0864 53.1987C94.7749 53.9849 97.9215 51.3147 99.1145 47.2347Z" fill="#CCCCCC"/>
<path d="M93.3529 45.0337C94.0632 42.6045 93.339 40.2551 91.7353 39.7862C90.1317 39.3172 88.2558 40.9063 87.5455 43.3354C86.8352 45.7646 87.5594 48.114 89.1631 48.5829C90.7667 49.0519 92.6426 47.4628 93.3529 45.0337Z" fill="#CCCCCC"/>
<path d="M123.517 53.7222C124.579 50.0903 123.605 46.6093 121.341 45.9473C119.077 45.2852 116.38 47.6928 115.318 51.3247C114.256 54.9566 115.231 58.4376 117.495 59.0997C119.759 59.7617 122.455 57.3542 123.517 53.7222Z" fill="white"/>
<path d="M120.666 52.8901C120.949 51.9231 120.662 50.9883 120.025 50.8021C119.389 50.6159 118.643 51.2488 118.36 52.2158C118.078 53.1827 118.365 54.1175 119.001 54.3037C119.638 54.4899 120.384 53.857 120.666 52.8901Z" fill="#04B0EA"/>
<path d="M92.1232 53.1881L98.2183 57.9931L102.222 58.3935L108.184 57.5037L92.1232 53.1881Z" fill="#CCCCCC"/>
<path d="M100.443 61.3299C101.72 61.3299 102.756 60.2941 102.756 59.0164C102.756 57.7386 101.72 56.7029 100.443 56.7029C99.1651 56.7029 98.1293 57.7386 98.1293 59.0164C98.1293 60.2941 99.1651 61.3299 100.443 61.3299Z" fill="#CCCCCC"/>
<path d="M100.443 60.0842C101.032 60.0842 101.511 59.6061 101.511 59.0164C101.511 58.4267 101.032 57.9486 100.443 57.9486C99.8531 57.9486 99.375 58.4267 99.375 59.0164C99.375 59.6061 99.8531 60.0842 100.443 60.0842Z" fill="#04B0EA"/>
<path d="M89.316 44.7352C89.316 44.7352 113.118 50.3855 113.874 50.4745C114.631 50.5635 115.965 49.9406 117.255 48.5614C118.546 47.1822 124.418 43.4895 126.91 43.9789L94.5657 37.8391C93.1443 38.3994 91.9035 39.3384 90.978 40.5541C90.0525 41.7699 89.4777 43.2159 89.316 44.7352Z" fill="#EBEDEF"/>
<path d="M100.575 82.0699C102.653 79.4847 102.242 75.704 99.6573 73.6255C97.0722 71.5469 93.2915 71.9576 91.213 74.5428C89.1346 77.128 89.5453 80.9088 92.1304 82.9873C94.7155 85.0659 98.4961 84.6551 100.575 82.0699Z" fill="#04B0EA"/>
<path d="M95.8605 80.995C97.3593 80.995 98.5743 79.7799 98.5743 78.281C98.5743 76.7822 97.3593 75.5671 95.8605 75.5671C94.3616 75.5671 93.1466 76.7822 93.1466 78.281C93.1466 79.7799 94.3616 80.995 95.8605 80.995Z" fill="white"/>
<path d="M273.953 78.8149L273.864 77.9696C274.931 77.7917 276.666 76.7684 278.046 74.8108C278.768 73.8215 279.285 72.6981 279.568 71.5063C279.85 70.3146 279.893 69.0784 279.692 67.8702C279.024 64.3109 279.87 62.9762 281.516 60.3512C283.084 57.9613 284.453 55.4465 285.609 52.8323C286.721 50.2518 286.81 48.1162 285.831 46.4256C284.007 43.3112 279.069 42.8218 279.024 42.8218L279.113 41.9765C279.291 41.9765 284.497 42.5104 286.543 46.0252C287.655 47.9383 287.611 50.3408 286.365 53.1437C285.207 55.8224 283.823 58.3974 282.228 60.8406C280.581 63.4211 279.914 64.4889 280.492 67.6922C280.725 69.012 280.691 70.3649 280.393 71.6714C280.095 72.9779 279.539 74.2117 278.757 75.3002C277.423 77.1688 275.51 78.548 273.953 78.8149Z" fill="#CCCCCC"/>
<path d="M277.512 78.6814L277.245 77.8805C281.071 76.4568 283.429 74.4547 284.23 71.9188C285.03 69.3828 284.096 64.9337 280.804 60.0397C277.512 55.1457 277.245 47.6267 277.289 47.3153H278.09C278.09 47.4043 277.957 54.3004 281.516 59.5948C285.075 64.8892 286.098 68.8489 285.03 72.1412C283.963 75.4335 281.605 77.1687 277.512 78.6814Z" fill="#CCCCCC"/>
<path d="M243.655 52.8322C243.655 52.8322 242.187 52.7432 241.03 50.2962C239.873 47.8492 239.696 44.1565 241.653 43.8005C243.611 43.4446 249.706 44.9573 249.706 44.9573L243.655 52.8322Z" fill="#CCCCCC"/>
<path d="M276.31 53.0972L250.595 59.9933L246.635 45.0889L272.306 38.1928L276.31 53.0972Z" fill="#CCCCCC"/>
<path d="M251.009 60.0783C253.697 59.2921 254.909 55.3473 253.716 51.2672C252.523 47.1872 249.377 44.517 246.688 45.3032C244 46.0894 242.787 50.0343 243.98 54.1143C245.173 58.1943 248.32 60.8645 251.009 60.0783Z" fill="white"/>
<path d="M276.299 53.1986C278.988 52.4124 280.2 48.4676 279.007 44.3875C277.814 40.3075 274.667 37.6373 271.979 38.4235C269.29 39.2097 268.078 43.1546 269.271 47.2346C270.464 51.3146 273.611 53.9848 276.299 53.1986Z" fill="#CCCCCC"/>
<path d="M279.316 48.7124C280.919 48.2434 281.643 45.894 280.933 43.4649C280.223 41.0357 278.347 39.4467 276.743 39.9156C275.14 40.3846 274.415 42.734 275.126 45.1631C275.836 47.5923 277.712 49.1813 279.316 48.7124Z" fill="#CCCCCC"/>
<path d="M250.771 59.2225C253.035 58.5604 254.01 55.0794 252.948 51.4475C251.886 47.8156 249.189 45.408 246.925 46.0701C244.661 46.7321 243.687 50.2131 244.749 53.845C245.811 57.477 248.507 59.8845 250.771 59.2225Z" fill="white"/>
<path d="M249.36 54.4416C249.997 54.2554 250.284 53.3206 250.001 52.3537C249.719 51.3867 248.973 50.7538 248.336 50.94C247.7 51.1262 247.413 52.0611 247.695 53.028C247.978 53.9949 248.724 54.6279 249.36 54.4416Z" fill="#04B0EA"/>
<path d="M276.355 53.1881L270.215 57.9931L266.211 58.3935L260.25 57.5037L276.355 53.1881Z" fill="#CCCCCC"/>
<path d="M270.459 59.1379C270.517 57.8615 269.529 56.7798 268.253 56.7218C266.976 56.6639 265.894 57.6516 265.836 58.928C265.779 60.2045 266.766 61.2862 268.043 61.3441C269.319 61.4021 270.401 60.4144 270.459 59.1379Z" fill="#CCCCCC"/>
<path d="M266.968 58.9274C266.924 59.0773 266.914 59.2348 266.939 59.3889C266.963 59.543 267.02 59.69 267.107 59.8194C267.194 59.9489 267.309 60.0577 267.442 60.1382C267.576 60.2187 267.725 60.269 267.881 60.2855C268.036 60.302 268.192 60.2843 268.34 60.2337C268.488 60.1831 268.622 60.1008 268.735 59.9925C268.847 59.8843 268.934 59.7527 268.99 59.6071C269.046 59.4616 269.07 59.3055 269.059 59.1499C269.041 58.8996 268.936 58.6634 268.762 58.4827C268.588 58.302 268.356 58.1885 268.106 58.1619C267.857 58.1354 267.606 58.1976 267.398 58.3375C267.19 58.4775 267.037 58.6864 266.968 58.9274Z" fill="#04B0EA"/>
<path d="M279.291 44.5569C279.291 44.5569 255.489 50.2072 254.688 50.2962C253.888 50.3852 252.597 49.7623 251.307 48.3831C250.017 47.0039 244.189 43.3111 241.653 43.8005L273.997 37.6608C275.421 38.223 276.666 39.1614 277.599 40.376C278.531 41.5906 279.116 43.0357 279.291 44.5569Z" fill="#EBEDEF"/>
<path d="M277.48 81.7067C279.458 79.0436 278.902 75.2814 276.239 73.3037C273.576 71.3259 269.814 71.8814 267.836 74.5445C265.859 77.2076 266.414 80.9698 269.077 82.9475C271.74 84.9253 275.502 84.3698 277.48 81.7067Z" fill="#04B0EA"/>
<path d="M272.618 80.995C274.117 80.995 275.332 79.7799 275.332 78.281C275.332 76.7822 274.117 75.5671 272.618 75.5671C271.119 75.5671 269.904 76.7822 269.904 78.281C269.904 79.7799 271.119 80.995 272.618 80.995Z" fill="white"/>
<path d="M197.608 44.0675C197.627 46.2174 197.219 48.3497 196.407 50.3407L195.962 51.4085C193.871 55.6351 190.045 58.438 185.685 58.438C181.325 58.438 177.499 55.6351 175.408 51.4085L174.963 50.3407C174.151 48.3497 173.743 46.2174 173.762 44.0675V43.4001C173.818 41.8577 174.088 40.3305 174.563 38.862H196.807C197.282 40.3305 197.552 41.8577 197.608 43.4001V44.0675Z" fill="#EBEDEF"/>
<path d="M197.564 38.862H173.851C173.261 38.862 172.783 39.3401 172.783 39.9298V42.3323C172.783 42.922 173.261 43.4001 173.851 43.4001H197.564C198.153 43.4001 198.632 42.922 198.632 42.3323V39.9298C198.632 39.3401 198.153 38.862 197.564 38.862Z" fill="#04B0EA"/>
<path d="M185.685 56.525C187.798 56.525 189.511 54.8119 189.511 52.6987C189.511 50.5856 187.798 48.8725 185.685 48.8725C183.572 48.8725 181.859 50.5856 181.859 52.6987C181.859 54.8119 183.572 56.525 185.685 56.525Z" fill="white"/>
<path d="M185.685 54.167C186.496 54.167 187.153 53.5097 187.153 52.6988C187.153 51.8879 186.496 51.2306 185.685 51.2306C184.874 51.2306 184.217 51.8879 184.217 52.6988C184.217 53.5097 184.874 54.167 185.685 54.167Z" fill="#04B0EA"/>
</svg>
