<svg width="390" height="422" viewBox="0 0 390 422" fill="none" xmlns="http://www.w3.org/2000/svg">
<mask id="path-1-inside-1_444_7725" fill="white">
<path d="M-9 -55H398V422H-9V-55Z"/>
</mask>
<path d="M-9 -55H398V422H-9V-55Z" fill="#E6F8FF"/>
<path d="M398 421H-9V423H398V421Z" fill="#04B0EA" mask="url(#path-1-inside-1_444_7725)"/>
<g opacity="0.3">
<path d="M240.824 59.976C242.027 59.976 243.002 59.0002 243.002 57.7965C243.002 56.5928 242.027 55.617 240.824 55.617C239.621 55.617 238.645 56.5928 238.645 57.7965C238.645 59.0002 239.621 59.976 240.824 59.976Z" fill="#E6E6E6"/>
<path d="M251.851 59.9755C253.054 59.9755 254.029 58.9997 254.029 57.796C254.029 56.5924 253.054 55.6166 251.851 55.6166C250.648 55.6166 249.672 56.5924 249.672 57.796C249.672 58.9997 250.648 59.9755 251.851 59.9755Z" fill="#E6E6E6"/>
<path d="M262.877 59.9755C264.081 59.9755 265.056 58.9997 265.056 57.796C265.056 56.5924 264.081 55.6166 262.877 55.6166C261.674 55.6166 260.699 56.5924 260.699 57.796C260.699 58.9997 261.674 59.9755 262.877 59.9755Z" fill="#E6E6E6"/>
<path d="M273.904 59.9755C275.107 59.9755 276.083 58.9997 276.083 57.796C276.083 56.5924 275.107 55.6166 273.904 55.6166C272.701 55.6166 271.726 56.5924 271.726 57.796C271.726 58.9997 272.701 59.9755 273.904 59.9755Z" fill="#E6E6E6"/>
<path d="M284.931 59.9755C286.134 59.9755 287.109 58.9997 287.109 57.796C287.109 56.5924 286.134 55.6166 284.931 55.6166C283.728 55.6166 282.753 56.5924 282.753 57.796C282.753 58.9997 283.728 59.9755 284.931 59.9755Z" fill="#E6E6E6"/>
<path d="M295.958 59.9755C297.161 59.9755 298.136 58.9997 298.136 57.796C298.136 56.5924 297.161 55.6166 295.958 55.6166C294.755 55.6166 293.779 56.5924 293.779 57.796C293.779 58.9997 294.755 59.9755 295.958 59.9755Z" fill="#E6E6E6"/>
<path d="M306.984 59.9755C308.188 59.9755 309.163 58.9997 309.163 57.796C309.163 56.5924 308.188 55.6166 306.984 55.6166C305.781 55.6166 304.806 56.5924 304.806 57.796C304.806 58.9997 305.781 59.9755 306.984 59.9755Z" fill="#E6E6E6"/>
<path d="M318.011 59.9755C319.214 59.9755 320.19 58.9997 320.19 57.796C320.19 56.5924 319.214 55.6166 318.011 55.6166C316.808 55.6166 315.833 56.5924 315.833 57.796C315.833 58.9997 316.808 59.9755 318.011 59.9755Z" fill="#E6E6E6"/>
<path d="M329.038 59.9755C330.241 59.9755 331.216 58.9997 331.216 57.796C331.216 56.5924 330.241 55.6166 329.038 55.6166C327.835 55.6166 326.86 56.5924 326.86 57.796C326.86 58.9997 327.835 59.9755 329.038 59.9755Z" fill="#E6E6E6"/>
<path d="M340.065 59.9755C341.268 59.9755 342.243 58.9997 342.243 57.796C342.243 56.5924 341.268 55.6166 340.065 55.6166C338.862 55.6166 337.886 56.5924 337.886 57.796C337.886 58.9997 338.862 59.9755 340.065 59.9755Z" fill="#E6E6E6"/>
<path d="M240.824 71.1468C242.027 71.1468 243.002 70.171 243.002 68.9673C243.002 67.7636 242.027 66.7879 240.824 66.7879C239.621 66.7879 238.646 67.7636 238.646 68.9673C238.646 70.171 239.621 71.1468 240.824 71.1468Z" fill="#E6E6E6"/>
<path d="M251.851 71.1468C253.054 71.1468 254.029 70.171 254.029 68.9673C254.029 67.7636 253.054 66.7879 251.851 66.7879C250.648 66.7879 249.672 67.7636 249.672 68.9673C249.672 70.171 250.648 71.1468 251.851 71.1468Z" fill="#E6E6E6"/>
<path d="M262.877 71.1468C264.081 71.1468 265.056 70.171 265.056 68.9673C265.056 67.7636 264.081 66.7879 262.877 66.7879C261.674 66.7879 260.699 67.7636 260.699 68.9673C260.699 70.171 261.674 71.1468 262.877 71.1468Z" fill="#E6E6E6"/>
<path d="M273.904 71.1468C275.107 71.1468 276.083 70.171 276.083 68.9673C276.083 67.7636 275.107 66.7879 273.904 66.7879C272.701 66.7879 271.726 67.7636 271.726 68.9673C271.726 70.171 272.701 71.1468 273.904 71.1468Z" fill="#04B0EA"/>
<path d="M284.931 71.1468C286.134 71.1468 287.109 70.171 287.109 68.9673C287.109 67.7636 286.134 66.7879 284.931 66.7879C283.728 66.7879 282.753 67.7636 282.753 68.9673C282.753 70.171 283.728 71.1468 284.931 71.1468Z" fill="#E6E6E6"/>
<path d="M295.958 71.1468C297.161 71.1468 298.136 70.171 298.136 68.9673C298.136 67.7636 297.161 66.7879 295.958 66.7879C294.755 66.7879 293.779 67.7636 293.779 68.9673C293.779 70.171 294.755 71.1468 295.958 71.1468Z" fill="#E6E6E6"/>
<path d="M306.984 71.1468C308.188 71.1468 309.163 70.171 309.163 68.9673C309.163 67.7636 308.188 66.7879 306.984 66.7879C305.781 66.7879 304.806 67.7636 304.806 68.9673C304.806 70.171 305.781 71.1468 306.984 71.1468Z" fill="#E6E6E6"/>
<path d="M318.011 71.1468C319.214 71.1468 320.19 70.171 320.19 68.9673C320.19 67.7636 319.214 66.7879 318.011 66.7879C316.808 66.7879 315.833 67.7636 315.833 68.9673C315.833 70.171 316.808 71.1468 318.011 71.1468Z" fill="#E6E6E6"/>
<path d="M329.038 71.1468C330.241 71.1468 331.216 70.171 331.216 68.9673C331.216 67.7636 330.241 66.7879 329.038 66.7879C327.835 66.7879 326.86 67.7636 326.86 68.9673C326.86 70.171 327.835 71.1468 329.038 71.1468Z" fill="#E6E6E6"/>
<path d="M340.065 71.1468C341.268 71.1468 342.243 70.171 342.243 68.9673C342.243 67.7636 341.268 66.7879 340.065 66.7879C338.862 66.7879 337.886 67.7636 337.886 68.9673C337.886 70.171 338.862 71.1468 340.065 71.1468Z" fill="#E6E6E6"/>
<path d="M240.824 82.3176C242.027 82.3176 243.002 81.3418 243.002 80.1381C243.002 78.9345 242.027 77.9587 240.824 77.9587C239.621 77.9587 238.646 78.9345 238.646 80.1381C238.646 81.3418 239.621 82.3176 240.824 82.3176Z" fill="#E6E6E6"/>
<path d="M251.851 82.3176C253.054 82.3176 254.029 81.3418 254.029 80.1381C254.029 78.9345 253.054 77.9587 251.851 77.9587C250.648 77.9587 249.672 78.9345 249.672 80.1381C249.672 81.3418 250.648 82.3176 251.851 82.3176Z" fill="#E6E6E6"/>
<path d="M262.877 82.3176C264.081 82.3176 265.056 81.3418 265.056 80.1381C265.056 78.9345 264.081 77.9587 262.877 77.9587C261.674 77.9587 260.699 78.9345 260.699 80.1381C260.699 81.3418 261.674 82.3176 262.877 82.3176Z" fill="#E6E6E6"/>
<path d="M273.904 82.3176C275.107 82.3176 276.083 81.3418 276.083 80.1381C276.083 78.9345 275.107 77.9587 273.904 77.9587C272.701 77.9587 271.726 78.9345 271.726 80.1381C271.726 81.3418 272.701 82.3176 273.904 82.3176Z" fill="#E6E6E6"/>
<path d="M284.931 82.3176C286.134 82.3176 287.109 81.3418 287.109 80.1381C287.109 78.9345 286.134 77.9587 284.931 77.9587C283.728 77.9587 282.753 78.9345 282.753 80.1381C282.753 81.3418 283.728 82.3176 284.931 82.3176Z" fill="#E6E6E6"/>
<path d="M295.958 82.3176C297.161 82.3176 298.136 81.3418 298.136 80.1381C298.136 78.9345 297.161 77.9587 295.958 77.9587C294.755 77.9587 293.779 78.9345 293.779 80.1381C293.779 81.3418 294.755 82.3176 295.958 82.3176Z" fill="#E6E6E6"/>
<path d="M306.984 82.3176C308.188 82.3176 309.163 81.3418 309.163 80.1381C309.163 78.9345 308.188 77.9587 306.984 77.9587C305.781 77.9587 304.806 78.9345 304.806 80.1381C304.806 81.3418 305.781 82.3176 306.984 82.3176Z" fill="#E6E6E6"/>
<path d="M318.011 82.3176C319.214 82.3176 320.19 81.3418 320.19 80.1381C320.19 78.9345 319.214 77.9587 318.011 77.9587C316.808 77.9587 315.833 78.9345 315.833 80.1381C315.833 81.3418 316.808 82.3176 318.011 82.3176Z" fill="#E6E6E6"/>
<path d="M329.038 82.3176C330.241 82.3176 331.216 81.3418 331.216 80.1381C331.216 78.9345 330.241 77.9587 329.038 77.9587C327.835 77.9587 326.86 78.9345 326.86 80.1381C326.86 81.3418 327.835 82.3176 329.038 82.3176Z" fill="#E6E6E6"/>
<path d="M340.065 82.3176C341.268 82.3176 342.243 81.3418 342.243 80.1381C342.243 78.9345 341.268 77.9587 340.065 77.9587C338.862 77.9587 337.886 78.9345 337.886 80.1381C337.886 81.3418 338.862 82.3176 340.065 82.3176Z" fill="#E6E6E6"/>
<path d="M240.824 93.4882C242.027 93.4882 243.002 92.5124 243.002 91.3087C243.002 90.105 242.027 89.1292 240.824 89.1292C239.621 89.1292 238.646 90.105 238.646 91.3087C238.646 92.5124 239.621 93.4882 240.824 93.4882Z" fill="#E6E6E6"/>
<path d="M251.851 93.4882C253.054 93.4882 254.029 92.5124 254.029 91.3087C254.029 90.105 253.054 89.1292 251.851 89.1292C250.648 89.1292 249.672 90.105 249.672 91.3087C249.672 92.5124 250.648 93.4882 251.851 93.4882Z" fill="#E6E6E6"/>
<path d="M262.877 93.4882C264.081 93.4882 265.056 92.5124 265.056 91.3087C265.056 90.105 264.081 89.1292 262.877 89.1292C261.674 89.1292 260.699 90.105 260.699 91.3087C260.699 92.5124 261.674 93.4882 262.877 93.4882Z" fill="#E6E6E6"/>
<path d="M273.904 93.4882C275.107 93.4882 276.083 92.5124 276.083 91.3087C276.083 90.105 275.107 89.1292 273.904 89.1292C272.701 89.1292 271.726 90.105 271.726 91.3087C271.726 92.5124 272.701 93.4882 273.904 93.4882Z" fill="#E6E6E6"/>
<path d="M284.931 93.4882C286.134 93.4882 287.109 92.5124 287.109 91.3087C287.109 90.105 286.134 89.1292 284.931 89.1292C283.728 89.1292 282.753 90.105 282.753 91.3087C282.753 92.5124 283.728 93.4882 284.931 93.4882Z" fill="#E6E6E6"/>
<path d="M295.958 93.4882C297.161 93.4882 298.136 92.5124 298.136 91.3087C298.136 90.105 297.161 89.1292 295.958 89.1292C294.755 89.1292 293.779 90.105 293.779 91.3087C293.779 92.5124 294.755 93.4882 295.958 93.4882Z" fill="#E6E6E6"/>
<path d="M306.984 93.4882C308.188 93.4882 309.163 92.5124 309.163 91.3087C309.163 90.105 308.188 89.1292 306.984 89.1292C305.781 89.1292 304.806 90.105 304.806 91.3087C304.806 92.5124 305.781 93.4882 306.984 93.4882Z" fill="#E6E6E6"/>
<path d="M318.011 93.4882C319.214 93.4882 320.19 92.5124 320.19 91.3087C320.19 90.105 319.214 89.1292 318.011 89.1292C316.808 89.1292 315.833 90.105 315.833 91.3087C315.833 92.5124 316.808 93.4882 318.011 93.4882Z" fill="#E6E6E6"/>
<path d="M329.038 93.4882C330.241 93.4882 331.216 92.5124 331.216 91.3087C331.216 90.105 330.241 89.1292 329.038 89.1292C327.835 89.1292 326.86 90.105 326.86 91.3087C326.86 92.5124 327.835 93.4882 329.038 93.4882Z" fill="#E6E6E6"/>
<path d="M340.065 93.4882C341.268 93.4882 342.243 92.5124 342.243 91.3087C342.243 90.105 341.268 89.1292 340.065 89.1292C338.862 89.1292 337.886 90.105 337.886 91.3087C337.886 92.5124 338.862 93.4882 340.065 93.4882Z" fill="#E6E6E6"/>
<path d="M240.824 104.659C242.027 104.659 243.002 103.683 243.002 102.48C243.002 101.276 242.027 100.3 240.824 100.3C239.621 100.3 238.646 101.276 238.646 102.48C238.646 103.683 239.621 104.659 240.824 104.659Z" fill="#E6E6E6"/>
<path d="M251.851 104.659C253.054 104.659 254.029 103.683 254.029 102.48C254.029 101.276 253.054 100.3 251.851 100.3C250.648 100.3 249.672 101.276 249.672 102.48C249.672 103.683 250.648 104.659 251.851 104.659Z" fill="#04B0EA"/>
<path d="M262.877 104.659C264.081 104.659 265.056 103.683 265.056 102.48C265.056 101.276 264.081 100.3 262.877 100.3C261.674 100.3 260.699 101.276 260.699 102.48C260.699 103.683 261.674 104.659 262.877 104.659Z" fill="#E6E6E6"/>
<path d="M273.904 104.659C275.107 104.659 276.083 103.683 276.083 102.48C276.083 101.276 275.107 100.3 273.904 100.3C272.701 100.3 271.726 101.276 271.726 102.48C271.726 103.683 272.701 104.659 273.904 104.659Z" fill="#E6E6E6"/>
<path d="M284.931 104.659C286.134 104.659 287.109 103.683 287.109 102.48C287.109 101.276 286.134 100.3 284.931 100.3C283.728 100.3 282.753 101.276 282.753 102.48C282.753 103.683 283.728 104.659 284.931 104.659Z" fill="#E6E6E6"/>
<path d="M295.958 104.659C297.161 104.659 298.136 103.683 298.136 102.48C298.136 101.276 297.161 100.3 295.958 100.3C294.755 100.3 293.779 101.276 293.779 102.48C293.779 103.683 294.755 104.659 295.958 104.659Z" fill="#E6E6E6"/>
<path d="M306.984 104.659C308.188 104.659 309.163 103.683 309.163 102.48C309.163 101.276 308.188 100.3 306.984 100.3C305.781 100.3 304.806 101.276 304.806 102.48C304.806 103.683 305.781 104.659 306.984 104.659Z" fill="#E6E6E6"/>
<path d="M318.011 104.659C319.214 104.659 320.19 103.683 320.19 102.48C320.19 101.276 319.214 100.3 318.011 100.3C316.808 100.3 315.833 101.276 315.833 102.48C315.833 103.683 316.808 104.659 318.011 104.659Z" fill="#E6E6E6"/>
<path d="M329.038 104.659C330.241 104.659 331.216 103.683 331.216 102.48C331.216 101.276 330.241 100.3 329.038 100.3C327.835 100.3 326.86 101.276 326.86 102.48C326.86 103.683 327.835 104.659 329.038 104.659Z" fill="#E6E6E6"/>
<path d="M340.065 104.659C341.268 104.659 342.243 103.683 342.243 102.48C342.243 101.276 341.268 100.3 340.065 100.3C338.862 100.3 337.886 101.276 337.886 102.48C337.886 103.683 338.862 104.659 340.065 104.659Z" fill="#E6E6E6"/>
<path d="M240.824 115.83C242.027 115.83 243.002 114.855 243.002 113.651C243.002 112.447 242.027 111.471 240.824 111.471C239.621 111.471 238.646 112.447 238.646 113.651C238.646 114.855 239.621 115.83 240.824 115.83Z" fill="#E6E6E6"/>
<path d="M251.851 115.83C253.054 115.83 254.029 114.855 254.029 113.651C254.029 112.447 253.054 111.471 251.851 111.471C250.648 111.471 249.672 112.447 249.672 113.651C249.672 114.855 250.648 115.83 251.851 115.83Z" fill="#E6E6E6"/>
<path d="M262.877 115.83C264.081 115.83 265.056 114.855 265.056 113.651C265.056 112.447 264.081 111.471 262.877 111.471C261.674 111.471 260.699 112.447 260.699 113.651C260.699 114.855 261.674 115.83 262.877 115.83Z" fill="#E6E6E6"/>
<path d="M273.904 115.83C275.107 115.83 276.083 114.855 276.083 113.651C276.083 112.447 275.107 111.471 273.904 111.471C272.701 111.471 271.726 112.447 271.726 113.651C271.726 114.855 272.701 115.83 273.904 115.83Z" fill="#E6E6E6"/>
<path d="M284.931 115.83C286.134 115.83 287.109 114.855 287.109 113.651C287.109 112.447 286.134 111.471 284.931 111.471C283.728 111.471 282.753 112.447 282.753 113.651C282.753 114.855 283.728 115.83 284.931 115.83Z" fill="#E6E6E6"/>
<path d="M295.958 115.83C297.161 115.83 298.136 114.855 298.136 113.651C298.136 112.447 297.161 111.471 295.958 111.471C294.755 111.471 293.779 112.447 293.779 113.651C293.779 114.855 294.755 115.83 295.958 115.83Z" fill="#E6E6E6"/>
<path d="M306.984 115.83C308.188 115.83 309.163 114.855 309.163 113.651C309.163 112.447 308.188 111.471 306.984 111.471C305.781 111.471 304.806 112.447 304.806 113.651C304.806 114.855 305.781 115.83 306.984 115.83Z" fill="#E6E6E6"/>
<path d="M318.011 115.83C319.214 115.83 320.19 114.855 320.19 113.651C320.19 112.447 319.214 111.471 318.011 111.471C316.808 111.471 315.833 112.447 315.833 113.651C315.833 114.855 316.808 115.83 318.011 115.83Z" fill="#E6E6E6"/>
<path d="M329.038 115.83C330.241 115.83 331.216 114.855 331.216 113.651C331.216 112.447 330.241 111.471 329.038 111.471C327.835 111.471 326.86 112.447 326.86 113.651C326.86 114.855 327.835 115.83 329.038 115.83Z" fill="#E6E6E6"/>
<path d="M340.065 115.83C341.268 115.83 342.243 114.855 342.243 113.651C342.243 112.447 341.268 111.471 340.065 111.471C338.862 111.471 337.886 112.447 337.886 113.651C337.886 114.855 338.862 115.83 340.065 115.83Z" fill="#E6E6E6"/>
<path d="M240.824 127.001C242.027 127.001 243.002 126.025 243.002 124.821C243.002 123.618 242.027 122.642 240.824 122.642C239.621 122.642 238.646 123.618 238.646 124.821C238.646 126.025 239.621 127.001 240.824 127.001Z" fill="#E6E6E6"/>
<path d="M251.851 127.001C253.054 127.001 254.029 126.025 254.029 124.821C254.029 123.618 253.054 122.642 251.851 122.642C250.648 122.642 249.672 123.618 249.672 124.821C249.672 126.025 250.648 127.001 251.851 127.001Z" fill="#E6E6E6"/>
<path d="M262.877 127.001C264.081 127.001 265.056 126.025 265.056 124.821C265.056 123.618 264.081 122.642 262.877 122.642C261.674 122.642 260.699 123.618 260.699 124.821C260.699 126.025 261.674 127.001 262.877 127.001Z" fill="#04B0EA"/>
<path d="M273.904 127.001C275.107 127.001 276.083 126.025 276.083 124.821C276.083 123.618 275.107 122.642 273.904 122.642C272.701 122.642 271.726 123.618 271.726 124.821C271.726 126.025 272.701 127.001 273.904 127.001Z" fill="#E6E6E6"/>
<path d="M284.931 127.001C286.134 127.001 287.109 126.025 287.109 124.821C287.109 123.618 286.134 122.642 284.931 122.642C283.728 122.642 282.753 123.618 282.753 124.821C282.753 126.025 283.728 127.001 284.931 127.001Z" fill="#E6E6E6"/>
<path d="M295.958 127.001C297.161 127.001 298.136 126.025 298.136 124.821C298.136 123.618 297.161 122.642 295.958 122.642C294.755 122.642 293.779 123.618 293.779 124.821C293.779 126.025 294.755 127.001 295.958 127.001Z" fill="#E6E6E6"/>
<path d="M306.984 127.001C308.188 127.001 309.163 126.025 309.163 124.821C309.163 123.618 308.188 122.642 306.984 122.642C305.781 122.642 304.806 123.618 304.806 124.821C304.806 126.025 305.781 127.001 306.984 127.001Z" fill="#E6E6E6"/>
<path d="M318.011 127.001C319.214 127.001 320.19 126.025 320.19 124.821C320.19 123.618 319.214 122.642 318.011 122.642C316.808 122.642 315.833 123.618 315.833 124.821C315.833 126.025 316.808 127.001 318.011 127.001Z" fill="#E6E6E6"/>
<path d="M329.038 127.001C330.241 127.001 331.216 126.025 331.216 124.821C331.216 123.618 330.241 122.642 329.038 122.642C327.835 122.642 326.86 123.618 326.86 124.821C326.86 126.025 327.835 127.001 329.038 127.001Z" fill="#E6E6E6"/>
<path d="M340.065 127.001C341.268 127.001 342.243 126.025 342.243 124.821C342.243 123.618 341.268 122.642 340.065 122.642C338.862 122.642 337.886 123.618 337.886 124.821C337.886 126.025 338.862 127.001 340.065 127.001Z" fill="#E6E6E6"/>
<path d="M240.824 138.172C242.027 138.172 243.002 137.196 243.002 135.992C243.002 134.788 242.027 133.813 240.824 133.813C239.621 133.813 238.646 134.788 238.646 135.992C238.646 137.196 239.621 138.172 240.824 138.172Z" fill="#E6E6E6"/>
<path d="M251.851 138.172C253.054 138.172 254.029 137.196 254.029 135.992C254.029 134.788 253.054 133.813 251.851 133.813C250.648 133.813 249.672 134.788 249.672 135.992C249.672 137.196 250.648 138.172 251.851 138.172Z" fill="#E6E6E6"/>
<path d="M262.877 138.172C264.081 138.172 265.056 137.196 265.056 135.992C265.056 134.788 264.081 133.813 262.877 133.813C261.674 133.813 260.699 134.788 260.699 135.992C260.699 137.196 261.674 138.172 262.877 138.172Z" fill="#E6E6E6"/>
<path d="M273.904 138.172C275.107 138.172 276.083 137.196 276.083 135.992C276.083 134.788 275.107 133.813 273.904 133.813C272.701 133.813 271.726 134.788 271.726 135.992C271.726 137.196 272.701 138.172 273.904 138.172Z" fill="#E6E6E6"/>
<path d="M284.931 138.172C286.134 138.172 287.109 137.196 287.109 135.992C287.109 134.788 286.134 133.813 284.931 133.813C283.728 133.813 282.753 134.788 282.753 135.992C282.753 137.196 283.728 138.172 284.931 138.172Z" fill="#E6E6E6"/>
<path d="M295.958 138.172C297.161 138.172 298.136 137.196 298.136 135.992C298.136 134.788 297.161 133.813 295.958 133.813C294.755 133.813 293.779 134.788 293.779 135.992C293.779 137.196 294.755 138.172 295.958 138.172Z" fill="#E6E6E6"/>
<path d="M306.984 138.172C308.188 138.172 309.163 137.196 309.163 135.992C309.163 134.788 308.188 133.813 306.984 133.813C305.781 133.813 304.806 134.788 304.806 135.992C304.806 137.196 305.781 138.172 306.984 138.172Z" fill="#E6E6E6"/>
<path d="M318.011 138.172C319.214 138.172 320.19 137.196 320.19 135.992C320.19 134.788 319.214 133.813 318.011 133.813C316.808 133.813 315.833 134.788 315.833 135.992C315.833 137.196 316.808 138.172 318.011 138.172Z" fill="#E6E6E6"/>
<path d="M329.038 138.172C330.241 138.172 331.216 137.196 331.216 135.992C331.216 134.788 330.241 133.813 329.038 133.813C327.835 133.813 326.86 134.788 326.86 135.992C326.86 137.196 327.835 138.172 329.038 138.172Z" fill="#E6E6E6"/>
<path d="M340.065 138.172C341.268 138.172 342.243 137.196 342.243 135.992C342.243 134.788 341.268 133.813 340.065 133.813C338.862 133.813 337.886 134.788 337.886 135.992C337.886 137.196 338.862 138.172 340.065 138.172Z" fill="#E6E6E6"/>
<path d="M240.824 149.343C242.027 149.343 243.002 148.367 243.002 147.164C243.002 145.96 242.027 144.984 240.824 144.984C239.621 144.984 238.646 145.96 238.646 147.164C238.646 148.367 239.621 149.343 240.824 149.343Z" fill="#E6E6E6"/>
<path d="M251.851 149.343C253.054 149.343 254.029 148.367 254.029 147.164C254.029 145.96 253.054 144.984 251.851 144.984C250.648 144.984 249.672 145.96 249.672 147.164C249.672 148.367 250.648 149.343 251.851 149.343Z" fill="#E6E6E6"/>
<path d="M262.877 149.343C264.081 149.343 265.056 148.367 265.056 147.164C265.056 145.96 264.081 144.984 262.877 144.984C261.674 144.984 260.699 145.96 260.699 147.164C260.699 148.367 261.674 149.343 262.877 149.343Z" fill="#E6E6E6"/>
<path d="M273.904 149.343C275.107 149.343 276.083 148.367 276.083 147.164C276.083 145.96 275.107 144.984 273.904 144.984C272.701 144.984 271.726 145.96 271.726 147.164C271.726 148.367 272.701 149.343 273.904 149.343Z" fill="#E6E6E6"/>
<path d="M284.931 149.343C286.134 149.343 287.109 148.367 287.109 147.164C287.109 145.96 286.134 144.984 284.931 144.984C283.728 144.984 282.753 145.96 282.753 147.164C282.753 148.367 283.728 149.343 284.931 149.343Z" fill="#E6E6E6"/>
<path d="M295.958 149.343C297.161 149.343 298.136 148.367 298.136 147.164C298.136 145.96 297.161 144.984 295.958 144.984C294.755 144.984 293.779 145.96 293.779 147.164C293.779 148.367 294.755 149.343 295.958 149.343Z" fill="#E6E6E6"/>
<path d="M306.984 149.343C308.188 149.343 309.163 148.367 309.163 147.164C309.163 145.96 308.188 144.984 306.984 144.984C305.781 144.984 304.806 145.96 304.806 147.164C304.806 148.367 305.781 149.343 306.984 149.343Z" fill="#E6E6E6"/>
<path d="M318.011 149.343C319.214 149.343 320.19 148.367 320.19 147.164C320.19 145.96 319.214 144.984 318.011 144.984C316.808 144.984 315.833 145.96 315.833 147.164C315.833 148.367 316.808 149.343 318.011 149.343Z" fill="#E6E6E6"/>
<path d="M329.038 149.343C330.241 149.343 331.216 148.367 331.216 147.164C331.216 145.96 330.241 144.984 329.038 144.984C327.835 144.984 326.86 145.96 326.86 147.164C326.86 148.367 327.835 149.343 329.038 149.343Z" fill="#E6E6E6"/>
<path d="M340.065 149.343C341.268 149.343 342.243 148.367 342.243 147.164C342.243 145.96 341.268 144.984 340.065 144.984C338.862 144.984 337.886 145.96 337.886 147.164C337.886 148.367 338.862 149.343 340.065 149.343Z" fill="#E6E6E6"/>
<path d="M240.824 160.514C242.027 160.514 243.002 159.538 243.002 158.334C243.002 157.131 242.027 156.155 240.824 156.155C239.621 156.155 238.646 157.131 238.646 158.334C238.646 159.538 239.621 160.514 240.824 160.514Z" fill="#E6E6E6"/>
<path d="M251.851 160.514C253.054 160.514 254.029 159.538 254.029 158.334C254.029 157.131 253.054 156.155 251.851 156.155C250.648 156.155 249.672 157.131 249.672 158.334C249.672 159.538 250.648 160.514 251.851 160.514Z" fill="#E6E6E6"/>
<path d="M262.877 160.514C264.081 160.514 265.056 159.538 265.056 158.334C265.056 157.131 264.081 156.155 262.877 156.155C261.674 156.155 260.699 157.131 260.699 158.334C260.699 159.538 261.674 160.514 262.877 160.514Z" fill="#E6E6E6"/>
<path d="M273.904 160.514C275.107 160.514 276.083 159.538 276.083 158.334C276.083 157.131 275.107 156.155 273.904 156.155C272.701 156.155 271.726 157.131 271.726 158.334C271.726 159.538 272.701 160.514 273.904 160.514Z" fill="#E6E6E6"/>
<path d="M284.931 160.514C286.134 160.514 287.109 159.538 287.109 158.334C287.109 157.131 286.134 156.155 284.931 156.155C283.728 156.155 282.753 157.131 282.753 158.334C282.753 159.538 283.728 160.514 284.931 160.514Z" fill="#E6E6E6"/>
<path d="M295.958 160.514C297.161 160.514 298.136 159.538 298.136 158.334C298.136 157.131 297.161 156.155 295.958 156.155C294.755 156.155 293.779 157.131 293.779 158.334C293.779 159.538 294.755 160.514 295.958 160.514Z" fill="#E6E6E6"/>
<path d="M306.984 160.514C308.188 160.514 309.163 159.538 309.163 158.334C309.163 157.131 308.188 156.155 306.984 156.155C305.781 156.155 304.806 157.131 304.806 158.334C304.806 159.538 305.781 160.514 306.984 160.514Z" fill="#E6E6E6"/>
<path d="M318.011 160.514C319.214 160.514 320.19 159.538 320.19 158.334C320.19 157.131 319.214 156.155 318.011 156.155C316.808 156.155 315.833 157.131 315.833 158.334C315.833 159.538 316.808 160.514 318.011 160.514Z" fill="#E6E6E6"/>
<path d="M329.038 160.514C330.241 160.514 331.216 159.538 331.216 158.334C331.216 157.131 330.241 156.155 329.038 156.155C327.835 156.155 326.86 157.131 326.86 158.334C326.86 159.538 327.835 160.514 329.038 160.514Z" fill="#E6E6E6"/>
<path d="M340.065 160.514C341.268 160.514 342.243 159.538 342.243 158.334C342.243 157.131 341.268 156.155 340.065 156.155C338.862 156.155 337.886 157.131 337.886 158.334C337.886 159.538 338.862 160.514 340.065 160.514Z" fill="#E6E6E6"/>
</g>
<g opacity="0.3">
<path d="M53.9065 219.66C55.1095 219.66 56.0848 218.684 56.0848 217.481C56.0848 216.277 55.1095 215.301 53.9065 215.301C52.7034 215.301 51.7281 216.277 51.7281 217.481C51.7281 218.684 52.7034 219.66 53.9065 219.66Z" fill="#E6E6E6"/>
<path d="M64.9334 219.66C66.1364 219.66 67.1117 218.684 67.1117 217.48C67.1117 216.277 66.1364 215.301 64.9334 215.301C63.7303 215.301 62.755 216.277 62.755 217.48C62.755 218.684 63.7303 219.66 64.9334 219.66Z" fill="#E6E6E6"/>
<path d="M75.9602 219.66C77.1633 219.66 78.1386 218.684 78.1386 217.48C78.1386 216.277 77.1633 215.301 75.9602 215.301C74.7571 215.301 73.7819 216.277 73.7819 217.48C73.7819 218.684 74.7571 219.66 75.9602 219.66Z" fill="#E6E6E6"/>
<path d="M86.9869 219.66C88.19 219.66 89.1653 218.684 89.1653 217.48C89.1653 216.277 88.19 215.301 86.9869 215.301C85.7838 215.301 84.8086 216.277 84.8086 217.48C84.8086 218.684 85.7838 219.66 86.9869 219.66Z" fill="#E6E6E6"/>
<path d="M98.0138 219.66C99.2169 219.66 100.192 218.684 100.192 217.48C100.192 216.277 99.2169 215.301 98.0138 215.301C96.8107 215.301 95.8354 216.277 95.8354 217.48C95.8354 218.684 96.8107 219.66 98.0138 219.66Z" fill="#E6E6E6"/>
<path d="M109.04 219.66C110.244 219.66 111.219 218.684 111.219 217.48C111.219 216.277 110.244 215.301 109.04 215.301C107.837 215.301 106.862 216.277 106.862 217.48C106.862 218.684 107.837 219.66 109.04 219.66Z" fill="#E6E6E6"/>
<path d="M120.067 219.66C121.27 219.66 122.246 218.684 122.246 217.48C122.246 216.277 121.27 215.301 120.067 215.301C118.864 215.301 117.889 216.277 117.889 217.48C117.889 218.684 118.864 219.66 120.067 219.66Z" fill="#E6E6E6"/>
<path d="M131.094 219.66C132.297 219.66 133.272 218.684 133.272 217.48C133.272 216.277 132.297 215.301 131.094 215.301C129.891 215.301 128.916 216.277 128.916 217.48C128.916 218.684 129.891 219.66 131.094 219.66Z" fill="#E6E6E6"/>
<path d="M142.121 219.66C143.324 219.66 144.299 218.684 144.299 217.48C144.299 216.277 143.324 215.301 142.121 215.301C140.918 215.301 139.942 216.277 139.942 217.48C139.942 218.684 140.918 219.66 142.121 219.66Z" fill="#E6E6E6"/>
<path d="M153.147 219.66C154.35 219.66 155.326 218.684 155.326 217.48C155.326 216.277 154.35 215.301 153.147 215.301C151.944 215.301 150.969 216.277 150.969 217.48C150.969 218.684 151.944 219.66 153.147 219.66Z" fill="#E6E6E6"/>
<path d="M53.9067 230.831C55.1097 230.831 56.085 229.855 56.085 228.652C56.085 227.448 55.1097 226.472 53.9067 226.472C52.7036 226.472 51.7283 227.448 51.7283 228.652C51.7283 229.855 52.7036 230.831 53.9067 230.831Z" fill="#E6E6E6"/>
<path d="M64.9334 230.831C66.1364 230.831 67.1117 229.855 67.1117 228.652C67.1117 227.448 66.1364 226.472 64.9334 226.472C63.7303 226.472 62.755 227.448 62.755 228.652C62.755 229.855 63.7303 230.831 64.9334 230.831Z" fill="#E6E6E6"/>
<path d="M75.9602 230.831C77.1633 230.831 78.1386 229.855 78.1386 228.652C78.1386 227.448 77.1633 226.472 75.9602 226.472C74.7571 226.472 73.7819 227.448 73.7819 228.652C73.7819 229.855 74.7571 230.831 75.9602 230.831Z" fill="#E6E6E6"/>
<path d="M86.9869 230.831C88.19 230.831 89.1653 229.855 89.1653 228.652C89.1653 227.448 88.19 226.472 86.9869 226.472C85.7838 226.472 84.8086 227.448 84.8086 228.652C84.8086 229.855 85.7838 230.831 86.9869 230.831Z" fill="#04B0EA"/>
<path d="M98.0138 230.831C99.2169 230.831 100.192 229.855 100.192 228.652C100.192 227.448 99.2169 226.472 98.0138 226.472C96.8107 226.472 95.8354 227.448 95.8354 228.652C95.8354 229.855 96.8107 230.831 98.0138 230.831Z" fill="#E6E6E6"/>
<path d="M109.04 230.831C110.244 230.831 111.219 229.855 111.219 228.652C111.219 227.448 110.244 226.472 109.04 226.472C107.837 226.472 106.862 227.448 106.862 228.652C106.862 229.855 107.837 230.831 109.04 230.831Z" fill="#E6E6E6"/>
<path d="M120.067 230.831C121.27 230.831 122.246 229.855 122.246 228.652C122.246 227.448 121.27 226.472 120.067 226.472C118.864 226.472 117.889 227.448 117.889 228.652C117.889 229.855 118.864 230.831 120.067 230.831Z" fill="#E6E6E6"/>
<path d="M131.094 230.831C132.297 230.831 133.272 229.855 133.272 228.652C133.272 227.448 132.297 226.472 131.094 226.472C129.891 226.472 128.916 227.448 128.916 228.652C128.916 229.855 129.891 230.831 131.094 230.831Z" fill="#E6E6E6"/>
<path d="M142.121 230.831C143.324 230.831 144.299 229.855 144.299 228.652C144.299 227.448 143.324 226.472 142.121 226.472C140.918 226.472 139.942 227.448 139.942 228.652C139.942 229.855 140.918 230.831 142.121 230.831Z" fill="#E6E6E6"/>
<path d="M153.147 230.831C154.35 230.831 155.326 229.855 155.326 228.652C155.326 227.448 154.35 226.472 153.147 226.472C151.944 226.472 150.969 227.448 150.969 228.652C150.969 229.855 151.944 230.831 153.147 230.831Z" fill="#E6E6E6"/>
<path d="M53.9067 242.002C55.1097 242.002 56.085 241.026 56.085 239.822C56.085 238.619 55.1097 237.643 53.9067 237.643C52.7036 237.643 51.7283 238.619 51.7283 239.822C51.7283 241.026 52.7036 242.002 53.9067 242.002Z" fill="#E6E6E6"/>
<path d="M64.9334 242.002C66.1364 242.002 67.1117 241.026 67.1117 239.822C67.1117 238.619 66.1364 237.643 64.9334 237.643C63.7303 237.643 62.755 238.619 62.755 239.822C62.755 241.026 63.7303 242.002 64.9334 242.002Z" fill="#E6E6E6"/>
<path d="M75.9602 242.002C77.1633 242.002 78.1386 241.026 78.1386 239.822C78.1386 238.619 77.1633 237.643 75.9602 237.643C74.7571 237.643 73.7819 238.619 73.7819 239.822C73.7819 241.026 74.7571 242.002 75.9602 242.002Z" fill="#E6E6E6"/>
<path d="M86.9869 242.002C88.19 242.002 89.1653 241.026 89.1653 239.822C89.1653 238.619 88.19 237.643 86.9869 237.643C85.7838 237.643 84.8086 238.619 84.8086 239.822C84.8086 241.026 85.7838 242.002 86.9869 242.002Z" fill="#E6E6E6"/>
<path d="M98.0138 242.002C99.2169 242.002 100.192 241.026 100.192 239.822C100.192 238.619 99.2169 237.643 98.0138 237.643C96.8107 237.643 95.8354 238.619 95.8354 239.822C95.8354 241.026 96.8107 242.002 98.0138 242.002Z" fill="#E6E6E6"/>
<path d="M109.04 242.002C110.244 242.002 111.219 241.026 111.219 239.822C111.219 238.619 110.244 237.643 109.04 237.643C107.837 237.643 106.862 238.619 106.862 239.822C106.862 241.026 107.837 242.002 109.04 242.002Z" fill="#E6E6E6"/>
<path d="M120.067 242.002C121.27 242.002 122.246 241.026 122.246 239.822C122.246 238.619 121.27 237.643 120.067 237.643C118.864 237.643 117.889 238.619 117.889 239.822C117.889 241.026 118.864 242.002 120.067 242.002Z" fill="#E6E6E6"/>
<path d="M131.094 242.002C132.297 242.002 133.272 241.026 133.272 239.822C133.272 238.619 132.297 237.643 131.094 237.643C129.891 237.643 128.916 238.619 128.916 239.822C128.916 241.026 129.891 242.002 131.094 242.002Z" fill="#E6E6E6"/>
<path d="M142.121 242.002C143.324 242.002 144.299 241.026 144.299 239.822C144.299 238.619 143.324 237.643 142.121 237.643C140.918 237.643 139.942 238.619 139.942 239.822C139.942 241.026 140.918 242.002 142.121 242.002Z" fill="#E6E6E6"/>
<path d="M153.147 242.002C154.35 242.002 155.326 241.026 155.326 239.822C155.326 238.619 154.35 237.643 153.147 237.643C151.944 237.643 150.969 238.619 150.969 239.822C150.969 241.026 151.944 242.002 153.147 242.002Z" fill="#E6E6E6"/>
<path d="M53.9067 253.173C55.1097 253.173 56.085 252.197 56.085 250.993C56.085 249.789 55.1097 248.814 53.9067 248.814C52.7036 248.814 51.7283 249.789 51.7283 250.993C51.7283 252.197 52.7036 253.173 53.9067 253.173Z" fill="#E6E6E6"/>
<path d="M64.9334 253.173C66.1364 253.173 67.1117 252.197 67.1117 250.993C67.1117 249.789 66.1364 248.814 64.9334 248.814C63.7303 248.814 62.755 249.789 62.755 250.993C62.755 252.197 63.7303 253.173 64.9334 253.173Z" fill="#E6E6E6"/>
<path d="M75.9602 253.173C77.1633 253.173 78.1386 252.197 78.1386 250.993C78.1386 249.789 77.1633 248.814 75.9602 248.814C74.7571 248.814 73.7819 249.789 73.7819 250.993C73.7819 252.197 74.7571 253.173 75.9602 253.173Z" fill="#E6E6E6"/>
<path d="M86.9869 253.173C88.19 253.173 89.1653 252.197 89.1653 250.993C89.1653 249.789 88.19 248.814 86.9869 248.814C85.7838 248.814 84.8086 249.789 84.8086 250.993C84.8086 252.197 85.7838 253.173 86.9869 253.173Z" fill="#E6E6E6"/>
<path d="M98.0138 253.173C99.2169 253.173 100.192 252.197 100.192 250.993C100.192 249.789 99.2169 248.814 98.0138 248.814C96.8107 248.814 95.8354 249.789 95.8354 250.993C95.8354 252.197 96.8107 253.173 98.0138 253.173Z" fill="#E6E6E6"/>
<path d="M109.04 253.173C110.244 253.173 111.219 252.197 111.219 250.993C111.219 249.789 110.244 248.814 109.04 248.814C107.837 248.814 106.862 249.789 106.862 250.993C106.862 252.197 107.837 253.173 109.04 253.173Z" fill="#E6E6E6"/>
<path d="M120.067 253.173C121.27 253.173 122.246 252.197 122.246 250.993C122.246 249.789 121.27 248.814 120.067 248.814C118.864 248.814 117.889 249.789 117.889 250.993C117.889 252.197 118.864 253.173 120.067 253.173Z" fill="#E6E6E6"/>
<path d="M131.094 253.173C132.297 253.173 133.272 252.197 133.272 250.993C133.272 249.789 132.297 248.814 131.094 248.814C129.891 248.814 128.916 249.789 128.916 250.993C128.916 252.197 129.891 253.173 131.094 253.173Z" fill="#E6E6E6"/>
<path d="M142.121 253.173C143.324 253.173 144.299 252.197 144.299 250.993C144.299 249.789 143.324 248.814 142.121 248.814C140.918 248.814 139.942 249.789 139.942 250.993C139.942 252.197 140.918 253.173 142.121 253.173Z" fill="#E6E6E6"/>
<path d="M153.147 253.173C154.35 253.173 155.326 252.197 155.326 250.993C155.326 249.789 154.35 248.814 153.147 248.814C151.944 248.814 150.969 249.789 150.969 250.993C150.969 252.197 151.944 253.173 153.147 253.173Z" fill="#E6E6E6"/>
<path d="M53.9067 264.344C55.1097 264.344 56.085 263.368 56.085 262.164C56.085 260.96 55.1097 259.985 53.9067 259.985C52.7036 259.985 51.7283 260.96 51.7283 262.164C51.7283 263.368 52.7036 264.344 53.9067 264.344Z" fill="#E6E6E6"/>
<path d="M64.9334 264.344C66.1364 264.344 67.1117 263.368 67.1117 262.164C67.1117 260.96 66.1364 259.985 64.9334 259.985C63.7303 259.985 62.755 260.96 62.755 262.164C62.755 263.368 63.7303 264.344 64.9334 264.344Z" fill="#04B0EA"/>
<path d="M75.9602 264.344C77.1633 264.344 78.1386 263.368 78.1386 262.164C78.1386 260.96 77.1633 259.985 75.9602 259.985C74.7571 259.985 73.7819 260.96 73.7819 262.164C73.7819 263.368 74.7571 264.344 75.9602 264.344Z" fill="#E6E6E6"/>
<path d="M86.9869 264.344C88.19 264.344 89.1653 263.368 89.1653 262.164C89.1653 260.96 88.19 259.985 86.9869 259.985C85.7838 259.985 84.8086 260.96 84.8086 262.164C84.8086 263.368 85.7838 264.344 86.9869 264.344Z" fill="#E6E6E6"/>
<path d="M98.0138 264.344C99.2169 264.344 100.192 263.368 100.192 262.164C100.192 260.96 99.2169 259.985 98.0138 259.985C96.8107 259.985 95.8354 260.96 95.8354 262.164C95.8354 263.368 96.8107 264.344 98.0138 264.344Z" fill="#E6E6E6"/>
<path d="M109.04 264.344C110.244 264.344 111.219 263.368 111.219 262.164C111.219 260.96 110.244 259.985 109.04 259.985C107.837 259.985 106.862 260.96 106.862 262.164C106.862 263.368 107.837 264.344 109.04 264.344Z" fill="#E6E6E6"/>
<path d="M120.067 264.344C121.27 264.344 122.246 263.368 122.246 262.164C122.246 260.96 121.27 259.985 120.067 259.985C118.864 259.985 117.889 260.96 117.889 262.164C117.889 263.368 118.864 264.344 120.067 264.344Z" fill="#E6E6E6"/>
<path d="M131.094 264.344C132.297 264.344 133.272 263.368 133.272 262.164C133.272 260.96 132.297 259.985 131.094 259.985C129.891 259.985 128.916 260.96 128.916 262.164C128.916 263.368 129.891 264.344 131.094 264.344Z" fill="#E6E6E6"/>
<path d="M142.121 264.344C143.324 264.344 144.299 263.368 144.299 262.164C144.299 260.96 143.324 259.985 142.121 259.985C140.918 259.985 139.942 260.96 139.942 262.164C139.942 263.368 140.918 264.344 142.121 264.344Z" fill="#E6E6E6"/>
<path d="M153.147 264.344C154.35 264.344 155.326 263.368 155.326 262.164C155.326 260.96 154.35 259.985 153.147 259.985C151.944 259.985 150.969 260.96 150.969 262.164C150.969 263.368 151.944 264.344 153.147 264.344Z" fill="#E6E6E6"/>
<path d="M53.9067 275.515C55.1097 275.515 56.085 274.539 56.085 273.335C56.085 272.131 55.1097 271.156 53.9067 271.156C52.7036 271.156 51.7283 272.131 51.7283 273.335C51.7283 274.539 52.7036 275.515 53.9067 275.515Z" fill="#E6E6E6"/>
<path d="M64.9334 275.515C66.1364 275.515 67.1117 274.539 67.1117 273.335C67.1117 272.131 66.1364 271.156 64.9334 271.156C63.7303 271.156 62.755 272.131 62.755 273.335C62.755 274.539 63.7303 275.515 64.9334 275.515Z" fill="#E6E6E6"/>
<path d="M75.9602 275.515C77.1633 275.515 78.1386 274.539 78.1386 273.335C78.1386 272.131 77.1633 271.156 75.9602 271.156C74.7571 271.156 73.7819 272.131 73.7819 273.335C73.7819 274.539 74.7571 275.515 75.9602 275.515Z" fill="#E6E6E6"/>
<path d="M86.9869 275.515C88.19 275.515 89.1653 274.539 89.1653 273.335C89.1653 272.131 88.19 271.156 86.9869 271.156C85.7838 271.156 84.8086 272.131 84.8086 273.335C84.8086 274.539 85.7838 275.515 86.9869 275.515Z" fill="#E6E6E6"/>
<path d="M98.0138 275.515C99.2169 275.515 100.192 274.539 100.192 273.335C100.192 272.131 99.2169 271.156 98.0138 271.156C96.8107 271.156 95.8354 272.131 95.8354 273.335C95.8354 274.539 96.8107 275.515 98.0138 275.515Z" fill="#E6E6E6"/>
<path d="M109.04 275.515C110.244 275.515 111.219 274.539 111.219 273.335C111.219 272.131 110.244 271.156 109.04 271.156C107.837 271.156 106.862 272.131 106.862 273.335C106.862 274.539 107.837 275.515 109.04 275.515Z" fill="#E6E6E6"/>
<path d="M120.067 275.515C121.27 275.515 122.246 274.539 122.246 273.335C122.246 272.131 121.27 271.156 120.067 271.156C118.864 271.156 117.889 272.131 117.889 273.335C117.889 274.539 118.864 275.515 120.067 275.515Z" fill="#E6E6E6"/>
<path d="M131.094 275.515C132.297 275.515 133.272 274.539 133.272 273.335C133.272 272.131 132.297 271.156 131.094 271.156C129.891 271.156 128.916 272.131 128.916 273.335C128.916 274.539 129.891 275.515 131.094 275.515Z" fill="#E6E6E6"/>
<path d="M142.121 275.515C143.324 275.515 144.299 274.539 144.299 273.335C144.299 272.131 143.324 271.156 142.121 271.156C140.918 271.156 139.942 272.131 139.942 273.335C139.942 274.539 140.918 275.515 142.121 275.515Z" fill="#E6E6E6"/>
<path d="M153.147 275.515C154.35 275.515 155.326 274.539 155.326 273.335C155.326 272.131 154.35 271.156 153.147 271.156C151.944 271.156 150.969 272.131 150.969 273.335C150.969 274.539 151.944 275.515 153.147 275.515Z" fill="#E6E6E6"/>
<path d="M53.9067 286.685C55.1097 286.685 56.085 285.709 56.085 284.506C56.085 283.302 55.1097 282.326 53.9067 282.326C52.7036 282.326 51.7283 283.302 51.7283 284.506C51.7283 285.709 52.7036 286.685 53.9067 286.685Z" fill="#E6E6E6"/>
<path d="M64.9334 286.685C66.1364 286.685 67.1117 285.709 67.1117 284.506C67.1117 283.302 66.1364 282.326 64.9334 282.326C63.7303 282.326 62.755 283.302 62.755 284.506C62.755 285.709 63.7303 286.685 64.9334 286.685Z" fill="#E6E6E6"/>
<path d="M75.9602 286.685C77.1633 286.685 78.1386 285.709 78.1386 284.506C78.1386 283.302 77.1633 282.326 75.9602 282.326C74.7571 282.326 73.7819 283.302 73.7819 284.506C73.7819 285.709 74.7571 286.685 75.9602 286.685Z" fill="#04B0EA"/>
<path d="M86.9869 286.685C88.19 286.685 89.1653 285.709 89.1653 284.506C89.1653 283.302 88.19 282.326 86.9869 282.326C85.7838 282.326 84.8086 283.302 84.8086 284.506C84.8086 285.709 85.7838 286.685 86.9869 286.685Z" fill="#E6E6E6"/>
<path d="M98.0138 286.685C99.2169 286.685 100.192 285.709 100.192 284.506C100.192 283.302 99.2169 282.326 98.0138 282.326C96.8107 282.326 95.8354 283.302 95.8354 284.506C95.8354 285.709 96.8107 286.685 98.0138 286.685Z" fill="#E6E6E6"/>
<path d="M109.04 286.685C110.244 286.685 111.219 285.709 111.219 284.506C111.219 283.302 110.244 282.326 109.04 282.326C107.837 282.326 106.862 283.302 106.862 284.506C106.862 285.709 107.837 286.685 109.04 286.685Z" fill="#E6E6E6"/>
<path d="M120.067 286.685C121.27 286.685 122.246 285.709 122.246 284.506C122.246 283.302 121.27 282.326 120.067 282.326C118.864 282.326 117.889 283.302 117.889 284.506C117.889 285.709 118.864 286.685 120.067 286.685Z" fill="#E6E6E6"/>
<path d="M131.094 286.685C132.297 286.685 133.272 285.709 133.272 284.506C133.272 283.302 132.297 282.326 131.094 282.326C129.891 282.326 128.916 283.302 128.916 284.506C128.916 285.709 129.891 286.685 131.094 286.685Z" fill="#E6E6E6"/>
<path d="M142.121 286.685C143.324 286.685 144.299 285.709 144.299 284.506C144.299 283.302 143.324 282.326 142.121 282.326C140.918 282.326 139.942 283.302 139.942 284.506C139.942 285.709 140.918 286.685 142.121 286.685Z" fill="#E6E6E6"/>
<path d="M153.147 286.685C154.35 286.685 155.326 285.709 155.326 284.506C155.326 283.302 154.35 282.326 153.147 282.326C151.944 282.326 150.969 283.302 150.969 284.506C150.969 285.709 151.944 286.685 153.147 286.685Z" fill="#E6E6E6"/>
<path d="M53.9067 297.856C55.1097 297.856 56.085 296.88 56.085 295.677C56.085 294.473 55.1097 293.497 53.9067 293.497C52.7036 293.497 51.7283 294.473 51.7283 295.677C51.7283 296.88 52.7036 297.856 53.9067 297.856Z" fill="#E6E6E6"/>
<path d="M64.9334 297.856C66.1364 297.856 67.1117 296.88 67.1117 295.677C67.1117 294.473 66.1364 293.497 64.9334 293.497C63.7303 293.497 62.755 294.473 62.755 295.677C62.755 296.88 63.7303 297.856 64.9334 297.856Z" fill="#E6E6E6"/>
<path d="M75.9602 297.856C77.1633 297.856 78.1386 296.88 78.1386 295.677C78.1386 294.473 77.1633 293.497 75.9602 293.497C74.7571 293.497 73.7819 294.473 73.7819 295.677C73.7819 296.88 74.7571 297.856 75.9602 297.856Z" fill="#E6E6E6"/>
<path d="M86.9869 297.856C88.19 297.856 89.1653 296.88 89.1653 295.677C89.1653 294.473 88.19 293.497 86.9869 293.497C85.7838 293.497 84.8086 294.473 84.8086 295.677C84.8086 296.88 85.7838 297.856 86.9869 297.856Z" fill="#E6E6E6"/>
<path d="M98.0138 297.856C99.2169 297.856 100.192 296.88 100.192 295.677C100.192 294.473 99.2169 293.497 98.0138 293.497C96.8107 293.497 95.8354 294.473 95.8354 295.677C95.8354 296.88 96.8107 297.856 98.0138 297.856Z" fill="#E6E6E6"/>
<path d="M109.04 297.856C110.244 297.856 111.219 296.88 111.219 295.677C111.219 294.473 110.244 293.497 109.04 293.497C107.837 293.497 106.862 294.473 106.862 295.677C106.862 296.88 107.837 297.856 109.04 297.856Z" fill="#E6E6E6"/>
<path d="M120.067 297.856C121.27 297.856 122.246 296.88 122.246 295.677C122.246 294.473 121.27 293.497 120.067 293.497C118.864 293.497 117.889 294.473 117.889 295.677C117.889 296.88 118.864 297.856 120.067 297.856Z" fill="#E6E6E6"/>
<path d="M131.094 297.856C132.297 297.856 133.272 296.88 133.272 295.677C133.272 294.473 132.297 293.497 131.094 293.497C129.891 293.497 128.916 294.473 128.916 295.677C128.916 296.88 129.891 297.856 131.094 297.856Z" fill="#E6E6E6"/>
<path d="M142.121 297.856C143.324 297.856 144.299 296.88 144.299 295.677C144.299 294.473 143.324 293.497 142.121 293.497C140.918 293.497 139.942 294.473 139.942 295.677C139.942 296.88 140.918 297.856 142.121 297.856Z" fill="#E6E6E6"/>
<path d="M153.147 297.856C154.35 297.856 155.326 296.88 155.326 295.677C155.326 294.473 154.35 293.497 153.147 293.497C151.944 293.497 150.969 294.473 150.969 295.677C150.969 296.88 151.944 297.856 153.147 297.856Z" fill="#E6E6E6"/>
<path d="M53.9067 309.027C55.1097 309.027 56.085 308.052 56.085 306.848C56.085 305.644 55.1097 304.668 53.9067 304.668C52.7036 304.668 51.7283 305.644 51.7283 306.848C51.7283 308.052 52.7036 309.027 53.9067 309.027Z" fill="#E6E6E6"/>
<path d="M64.9334 309.027C66.1364 309.027 67.1117 308.052 67.1117 306.848C67.1117 305.644 66.1364 304.668 64.9334 304.668C63.7303 304.668 62.755 305.644 62.755 306.848C62.755 308.052 63.7303 309.027 64.9334 309.027Z" fill="#E6E6E6"/>
<path d="M75.9602 309.027C77.1633 309.027 78.1386 308.052 78.1386 306.848C78.1386 305.644 77.1633 304.668 75.9602 304.668C74.7571 304.668 73.7819 305.644 73.7819 306.848C73.7819 308.052 74.7571 309.027 75.9602 309.027Z" fill="#E6E6E6"/>
<path d="M86.9869 309.027C88.19 309.027 89.1653 308.052 89.1653 306.848C89.1653 305.644 88.19 304.668 86.9869 304.668C85.7838 304.668 84.8086 305.644 84.8086 306.848C84.8086 308.052 85.7838 309.027 86.9869 309.027Z" fill="#E6E6E6"/>
<path d="M98.0138 309.027C99.2169 309.027 100.192 308.052 100.192 306.848C100.192 305.644 99.2169 304.668 98.0138 304.668C96.8107 304.668 95.8354 305.644 95.8354 306.848C95.8354 308.052 96.8107 309.027 98.0138 309.027Z" fill="#E6E6E6"/>
<path d="M109.04 309.027C110.244 309.027 111.219 308.052 111.219 306.848C111.219 305.644 110.244 304.668 109.04 304.668C107.837 304.668 106.862 305.644 106.862 306.848C106.862 308.052 107.837 309.027 109.04 309.027Z" fill="#E6E6E6"/>
<path d="M120.067 309.027C121.27 309.027 122.246 308.052 122.246 306.848C122.246 305.644 121.27 304.668 120.067 304.668C118.864 304.668 117.889 305.644 117.889 306.848C117.889 308.052 118.864 309.027 120.067 309.027Z" fill="#E6E6E6"/>
<path d="M131.094 309.027C132.297 309.027 133.272 308.052 133.272 306.848C133.272 305.644 132.297 304.668 131.094 304.668C129.891 304.668 128.916 305.644 128.916 306.848C128.916 308.052 129.891 309.027 131.094 309.027Z" fill="#E6E6E6"/>
<path d="M142.121 309.027C143.324 309.027 144.299 308.052 144.299 306.848C144.299 305.644 143.324 304.668 142.121 304.668C140.918 304.668 139.942 305.644 139.942 306.848C139.942 308.052 140.918 309.027 142.121 309.027Z" fill="#E6E6E6"/>
<path d="M153.147 309.027C154.35 309.027 155.326 308.052 155.326 306.848C155.326 305.644 154.35 304.668 153.147 304.668C151.944 304.668 150.969 305.644 150.969 306.848C150.969 308.052 151.944 309.027 153.147 309.027Z" fill="#E6E6E6"/>
<path d="M53.9067 320.198C55.1097 320.198 56.085 319.222 56.085 318.019C56.085 316.815 55.1097 315.839 53.9067 315.839C52.7036 315.839 51.7283 316.815 51.7283 318.019C51.7283 319.222 52.7036 320.198 53.9067 320.198Z" fill="#E6E6E6"/>
<path d="M64.9334 320.198C66.1364 320.198 67.1117 319.222 67.1117 318.019C67.1117 316.815 66.1364 315.839 64.9334 315.839C63.7303 315.839 62.755 316.815 62.755 318.019C62.755 319.222 63.7303 320.198 64.9334 320.198Z" fill="#E6E6E6"/>
<path d="M75.9602 320.198C77.1633 320.198 78.1386 319.222 78.1386 318.019C78.1386 316.815 77.1633 315.839 75.9602 315.839C74.7571 315.839 73.7819 316.815 73.7819 318.019C73.7819 319.222 74.7571 320.198 75.9602 320.198Z" fill="#E6E6E6"/>
<path d="M86.9869 320.198C88.19 320.198 89.1653 319.222 89.1653 318.019C89.1653 316.815 88.19 315.839 86.9869 315.839C85.7838 315.839 84.8086 316.815 84.8086 318.019C84.8086 319.222 85.7838 320.198 86.9869 320.198Z" fill="#E6E6E6"/>
<path d="M98.0138 320.198C99.2169 320.198 100.192 319.222 100.192 318.019C100.192 316.815 99.2169 315.839 98.0138 315.839C96.8107 315.839 95.8354 316.815 95.8354 318.019C95.8354 319.222 96.8107 320.198 98.0138 320.198Z" fill="#E6E6E6"/>
<path d="M109.04 320.198C110.244 320.198 111.219 319.222 111.219 318.019C111.219 316.815 110.244 315.839 109.04 315.839C107.837 315.839 106.862 316.815 106.862 318.019C106.862 319.222 107.837 320.198 109.04 320.198Z" fill="#E6E6E6"/>
<path d="M120.067 320.198C121.27 320.198 122.246 319.222 122.246 318.019C122.246 316.815 121.27 315.839 120.067 315.839C118.864 315.839 117.889 316.815 117.889 318.019C117.889 319.222 118.864 320.198 120.067 320.198Z" fill="#E6E6E6"/>
<path d="M131.094 320.198C132.297 320.198 133.272 319.222 133.272 318.019C133.272 316.815 132.297 315.839 131.094 315.839C129.891 315.839 128.916 316.815 128.916 318.019C128.916 319.222 129.891 320.198 131.094 320.198Z" fill="#E6E6E6"/>
<path d="M142.121 320.198C143.324 320.198 144.299 319.222 144.299 318.019C144.299 316.815 143.324 315.839 142.121 315.839C140.918 315.839 139.942 316.815 139.942 318.019C139.942 319.222 140.918 320.198 142.121 320.198Z" fill="#E6E6E6"/>
<path d="M153.147 320.198C154.35 320.198 155.326 319.222 155.326 318.019C155.326 316.815 154.35 315.839 153.147 315.839C151.944 315.839 150.969 316.815 150.969 318.019C150.969 319.222 151.944 320.198 153.147 320.198Z" fill="#E6E6E6"/>
</g>
<path d="M123.97 116.166H100.234V139.902H123.97V116.166Z" fill="#D5D8DC"/>
<path d="M122.513 136.563H102.177C101.999 136.563 101.83 136.492 101.704 136.367C101.579 136.242 101.509 136.072 101.509 135.895C101.509 135.718 101.579 135.548 101.704 135.423C101.83 135.298 101.999 135.227 102.177 135.227H122.513C122.69 135.227 122.86 135.298 122.985 135.423C123.11 135.548 123.18 135.718 123.18 135.895C123.18 136.072 123.11 136.242 122.985 136.367C122.86 136.492 122.69 136.563 122.513 136.563Z" fill="#E6F8FF"/>
<path d="M122.27 136.563C122.136 136.569 122.004 136.531 121.894 136.454C121.784 136.377 121.703 136.266 121.663 136.138L116.078 122.54L111.768 130.371C111.675 130.54 111.524 130.67 111.343 130.735C111.249 130.76 111.15 130.762 111.055 130.741C110.96 130.72 110.871 130.676 110.797 130.614L108.368 128.975L103.026 136.32C102.979 136.393 102.916 136.455 102.842 136.501C102.768 136.547 102.685 136.577 102.599 136.589C102.512 136.601 102.425 136.593 102.341 136.568C102.258 136.542 102.181 136.499 102.116 136.441C101.973 136.343 101.874 136.193 101.841 136.023C101.807 135.853 101.84 135.677 101.934 135.531L107.64 127.639C107.758 127.502 107.923 127.413 108.102 127.391C108.282 127.369 108.463 127.414 108.611 127.518L110.918 129.096L115.592 120.658C115.652 120.553 115.741 120.468 115.849 120.414C115.958 120.36 116.079 120.339 116.199 120.355C116.329 120.365 116.454 120.409 116.561 120.484C116.668 120.559 116.752 120.661 116.806 120.78L122.877 135.652C122.916 135.731 122.937 135.817 122.94 135.905C122.942 135.993 122.926 136.081 122.891 136.161C122.856 136.242 122.805 136.314 122.739 136.373C122.674 136.432 122.597 136.476 122.513 136.502L122.27 136.563Z" fill="#E6F8FF"/>
<path d="M107.822 125.757C107.229 125.769 106.645 125.604 106.147 125.281C105.649 124.959 105.258 124.495 105.026 123.949C104.793 123.403 104.729 122.8 104.842 122.218C104.955 121.635 105.239 121.1 105.659 120.68C106.078 120.26 106.614 119.976 107.196 119.863C107.779 119.75 108.382 119.814 108.928 120.047C109.474 120.28 109.938 120.67 110.26 121.168C110.582 121.667 110.748 122.25 110.736 122.843C110.72 123.611 110.408 124.344 109.865 124.887C109.322 125.43 108.59 125.742 107.822 125.757ZM107.822 121.204C107.585 121.158 107.34 121.165 107.106 121.224C106.871 121.284 106.653 121.394 106.466 121.548C106.279 121.702 106.129 121.895 106.026 122.114C105.923 122.332 105.869 122.571 105.869 122.813C105.869 123.055 105.923 123.294 106.026 123.513C106.129 123.731 106.279 123.924 106.466 124.078C106.653 124.232 106.871 124.343 107.106 124.402C107.34 124.461 107.585 124.468 107.822 124.422C108.195 124.349 108.532 124.149 108.773 123.855C109.015 123.562 109.147 123.193 109.147 122.813C109.147 122.433 109.015 122.065 108.773 121.771C108.532 121.478 108.195 121.277 107.822 121.204Z" fill="#E6F8FF"/>
<path d="M322.96 114.648H91.0068C88.9281 114.648 87.2431 116.333 87.2431 118.412V273.962C87.2431 276.041 88.9281 277.726 91.0068 277.726H322.96C325.039 277.726 326.724 276.041 326.724 273.962V118.412C326.724 116.333 325.039 114.648 322.96 114.648Z" fill="#CCCCCC"/>
<path d="M322.293 117.319H90.764V270.423H322.293V117.319Z" fill="white"/>
<path d="M322.232 117.319H90.7032V125.102H322.232V117.319Z" fill="#2F2E41"/>
<path d="M96.5602 122.918C97.5716 122.678 98.1977 121.665 97.9586 120.653C97.7195 119.642 96.7058 119.016 95.6943 119.255C94.6829 119.494 94.0568 120.508 94.2959 121.519C94.535 122.531 95.5487 123.157 96.5602 122.918Z" fill="#8CE2FF"/>
<path d="M103.241 122.899C104.252 122.66 104.878 121.646 104.639 120.635C104.4 119.623 103.386 118.997 102.375 119.236C101.363 119.475 100.737 120.489 100.976 121.501C101.216 122.512 102.229 123.138 103.241 122.899Z" fill="#8CE2FF"/>
<path d="M110.098 122.96C111.11 122.721 111.736 121.707 111.497 120.696C111.258 119.684 110.244 119.058 109.233 119.297C108.221 119.536 107.595 120.55 107.834 121.561C108.073 122.573 109.087 123.199 110.098 122.96Z" fill="#0091C1"/>
<path d="M70.4886 166.248C70.4886 166.187 70.4279 166.187 70.4279 166.126C70.4279 166.065 70.3672 166.065 70.3672 166.005L70.1851 165.883H46.8744C46.7617 165.883 46.6536 165.928 46.5739 166.008C46.4942 166.087 46.4494 166.196 46.4494 166.308V181.059C46.4494 181.12 46.5101 181.181 46.5101 181.242C46.5101 181.302 46.5101 181.363 46.5708 181.363C46.596 181.421 46.6389 181.47 46.6933 181.503C46.7478 181.536 46.8111 181.55 46.8744 181.545H70.0029C70.0662 181.55 70.1295 181.536 70.184 181.503C70.2384 181.47 70.2813 181.421 70.3065 181.363H70.3672V181.242C70.3672 181.181 70.4279 181.12 70.4279 181.059L70.4886 166.248ZM47.2993 167.522L54.6446 173.411L47.2993 180.028V167.522ZM58.1048 175.05L47.7242 166.733H68.7281L58.1048 175.05ZM55.3123 173.957L57.862 175.96L58.1048 176.082L58.4083 175.96L61.2007 173.775L68.8495 180.574H48.0278L55.3123 173.957ZM61.8685 173.229L69.578 167.158V180.028L61.8685 173.229Z" fill="#ADB2BE"/>
<path d="M69.7601 171.043C72.1405 171.043 74.0701 169.114 74.0701 166.733C74.0701 164.353 72.1405 162.423 69.7601 162.423C67.3797 162.423 65.45 164.353 65.45 166.733C65.45 169.114 67.3797 171.043 69.7601 171.043Z" fill="#04B0EA"/>
<path d="M326.238 267.928H311.609V272.056H326.238V267.928Z" fill="#CCCCCC"/>
<path d="M281.802 267.928H267.173V272.056H281.802V267.928Z" fill="#CCCCCC"/>
<path d="M263.955 267.928H249.325V272.056H263.955V267.928Z" fill="#CCCCCC"/>
<path d="M246.047 267.928H231.417V272.056H246.047V267.928Z" fill="#CCCCCC"/>
<path d="M146.552 267.928H131.922V272.056H146.552V267.928Z" fill="#CCCCCC"/>
<path d="M127.976 267.928H113.346V272.056H127.976V267.928Z" fill="#CCCCCC"/>
<path d="M109.218 267.928H94.5883V272.056H109.218V267.928Z" fill="#CCCCCC"/>
<path d="M228.261 267.685H151.348V272.074H228.261V267.685Z" fill="#CCCCCC"/>
<path d="M306.813 267.928H285.627V272.056H306.813V267.928Z" fill="#CCCCCC"/>
<path d="M77.1053 270.174H336.497V282.194C336.497 282.242 336.488 282.289 336.47 282.333C336.451 282.377 336.425 282.418 336.391 282.451C336.357 282.485 336.317 282.512 336.273 282.53C336.228 282.549 336.181 282.558 336.133 282.558H77.4089C77.3284 282.558 77.2512 282.526 77.1942 282.469C77.1373 282.412 77.1053 282.335 77.1053 282.255V270.174Z" fill="#EBEDEF"/>
<path d="M306.813 154.592H109.947C109.746 154.592 109.583 154.629 109.583 154.674V155.117C109.583 155.163 109.746 155.199 109.947 155.199H306.813C307.014 155.199 307.177 155.163 307.177 155.117V154.674C307.177 154.629 307.014 154.592 306.813 154.592Z" fill="#ABB2B9"/>
<path d="M306.873 182.274H142.06C141.858 182.274 141.695 182.31 141.695 182.356V182.799C141.695 182.844 141.858 182.881 142.06 182.881H306.873C307.075 182.881 307.238 182.844 307.238 182.799V182.356C307.238 182.31 307.075 182.274 306.873 182.274Z" fill="#ABB2B9"/>
<path d="M306.873 208.802H142.06C141.858 208.802 141.695 208.838 141.695 208.884V209.327C141.695 209.372 141.858 209.409 142.06 209.409H306.873C307.075 209.409 307.238 209.372 307.238 209.327V208.884C307.238 208.838 307.075 208.802 306.873 208.802Z" fill="#ABB2B9"/>
<path d="M306.873 231.687H142.06C141.858 231.687 141.695 231.724 141.695 231.769V232.212C141.695 232.258 141.858 232.294 142.06 232.294H306.873C307.075 232.294 307.238 232.258 307.238 232.212V231.769C307.238 231.724 307.075 231.687 306.873 231.687Z" fill="#ABB2B9"/>
<path d="M306.813 259.126H109.947C109.746 259.126 109.583 259.163 109.583 259.208V259.651C109.583 259.696 109.746 259.733 109.947 259.733H306.813C307.014 259.733 307.177 259.696 307.177 259.651V259.208C307.177 259.163 307.014 259.126 306.813 259.126Z" fill="#ABB2B9"/>
<path d="M307.116 128.246H109.947C109.746 128.246 109.583 128.283 109.583 128.328V128.771C109.583 128.817 109.746 128.853 109.947 128.853H307.116C307.317 128.853 307.481 128.817 307.481 128.771V128.328C307.481 128.283 307.317 128.246 307.116 128.246Z" fill="#ABB2B9"/>
<path d="M110.107 128.732H109.665C109.62 128.732 109.583 128.895 109.583 129.096V260.389C109.583 260.59 109.62 260.753 109.665 260.753H110.107C110.153 260.753 110.19 260.59 110.19 260.389V129.096C110.19 128.895 110.153 128.732 110.107 128.732Z" fill="#ABB2B9"/>
<path d="M141.552 128.732H141.11C141.065 128.732 141.028 128.895 141.028 129.096V260.389C141.028 260.59 141.065 260.753 141.11 260.753H141.552C141.598 260.753 141.635 260.59 141.635 260.389V129.096C141.635 128.895 141.598 128.732 141.552 128.732Z" fill="#ABB2B9"/>
<path d="M173.968 128.732H173.527C173.481 128.732 173.444 128.895 173.444 129.096V260.389C173.444 260.59 173.481 260.753 173.527 260.753H173.968C174.014 260.753 174.051 260.59 174.051 260.389V129.096C174.051 128.895 174.014 128.732 173.968 128.732Z" fill="#ABB2B9"/>
<path d="M207.66 128.732H207.218C207.172 128.732 207.135 128.895 207.135 129.096V260.389C207.135 260.59 207.172 260.753 207.218 260.753H207.66C207.705 260.753 207.742 260.59 207.742 260.389V129.096C207.742 128.895 207.705 128.732 207.66 128.732Z" fill="#ABB2B9"/>
<path d="M240.076 128.732H239.635C239.589 128.732 239.552 128.895 239.552 129.096V260.389C239.552 260.59 239.589 260.753 239.635 260.753H240.076C240.122 260.753 240.159 260.59 240.159 260.389V129.096C240.159 128.895 240.122 128.732 240.076 128.732Z" fill="#ABB2B9"/>
<path d="M273.342 128.732H272.901C272.855 128.732 272.818 128.895 272.818 129.096V260.389C272.818 260.59 272.855 260.753 272.901 260.753H273.342C273.388 260.753 273.425 260.59 273.425 260.389V129.096C273.425 128.895 273.388 128.732 273.342 128.732Z" fill="#ABB2B9"/>
<path d="M308.005 128.853H307.563C307.518 128.853 307.48 129.016 307.48 129.217V260.22C307.48 260.42 307.518 260.583 307.563 260.583H308.005C308.05 260.583 308.088 260.42 308.088 260.22V129.217C308.088 129.016 308.05 128.853 308.005 128.853Z" fill="#ABB2B9"/>
<path d="M135.2 140.205H116.321V141.419H135.2V140.205Z" fill="#D9D9D9"/>
<path d="M167.556 140.205H148.676V141.419H167.556V140.205Z" fill="#ABB2B9"/>
<path d="M201.065 140.205H182.186V141.419H201.065V140.205Z" fill="#ABB2B9"/>
<path d="M233.542 140.205H214.663V141.419H233.542V140.205Z" fill="#ABB2B9"/>
<path d="M266.14 140.205H247.261V141.419H266.14V140.205Z" fill="#D9D9D9"/>
<path d="M299.346 140.205H280.467V141.419H299.346V140.205Z" fill="#ABB2B9"/>
<path d="M201.611 186.098H180.547V207.163H201.611V186.098Z" fill="#50A4D6"/>
<path d="M198.03 191.44H183.339V192.861H198.03V191.44Z" fill="white"/>
<path d="M193.72 195.75H183.4V197.171H193.72V195.75Z" fill="white"/>
<path d="M199.365 161.998H182.793C182.591 161.998 182.428 162.072 182.428 162.162V163.048C182.428 163.139 182.591 163.212 182.793 163.212H199.365C199.566 163.212 199.729 163.139 199.729 163.048V162.162C199.729 162.072 199.566 161.998 199.365 161.998Z" fill="#ABB2B9"/>
<path d="M204.161 170.436H181.275C181.074 170.436 180.911 170.51 180.911 170.6V171.486C180.911 171.577 181.074 171.65 181.275 171.65H204.161C204.362 171.65 204.525 171.577 204.525 171.486V170.6C204.525 170.51 204.362 170.436 204.161 170.436Z" fill="#ABB2B9"/>
<path d="M231.417 191.015H214.845C214.644 191.015 214.481 191.089 214.481 191.179V192.065C214.481 192.156 214.644 192.229 214.845 192.229H231.417C231.618 192.229 231.782 192.156 231.782 192.065V191.179C231.782 191.089 231.618 191.015 231.417 191.015Z" fill="#D9D9D9"/>
<path d="M236.213 199.453H213.327C213.126 199.453 212.963 199.527 212.963 199.617V200.503C212.963 200.594 213.126 200.667 213.327 200.667H236.213C236.414 200.667 236.577 200.594 236.577 200.503V199.617C236.577 199.527 236.414 199.453 236.213 199.453Z" fill="#D9D9D9"/>
<path d="M295.461 161.998H278.889C278.687 161.998 278.524 162.072 278.524 162.162V163.048C278.524 163.139 278.687 163.212 278.889 163.212H295.461C295.662 163.212 295.825 163.139 295.825 163.048V162.162C295.825 162.072 295.662 161.998 295.461 161.998Z" fill="#ABB2B9"/>
<path d="M300.257 170.436H277.371C277.17 170.436 277.007 170.51 277.007 170.6V171.486C277.007 171.577 277.17 171.65 277.371 171.65H300.257C300.458 171.65 300.621 171.577 300.621 171.486V170.6C300.621 170.51 300.458 170.436 300.257 170.436Z" fill="#ABB2B9"/>
<path d="M164.278 216.329H147.705C147.504 216.329 147.341 216.403 147.341 216.493V217.379C147.341 217.47 147.504 217.543 147.705 217.543H164.278C164.479 217.543 164.642 217.47 164.642 217.379V216.493C164.642 216.403 164.479 216.329 164.278 216.329Z" fill="#ABB2B9"/>
<path d="M169.073 224.767H146.188C145.986 224.767 145.823 224.84 145.823 224.931V225.817C145.823 225.908 145.986 225.981 146.188 225.981H169.073C169.274 225.981 169.438 225.908 169.438 225.817V224.931C169.438 224.84 169.274 224.767 169.073 224.767Z" fill="#D9D9D9"/>
<path d="M197.847 241.097H181.275C181.074 241.097 180.911 241.17 180.911 241.261V242.147C180.911 242.237 181.074 242.311 181.275 242.311H197.847C198.049 242.311 198.212 242.237 198.212 242.147V241.261C198.212 241.17 198.049 241.097 197.847 241.097Z" fill="#D9D9D9"/>
<path d="M202.643 249.535H179.757C179.556 249.535 179.393 249.608 179.393 249.699V250.585C179.393 250.675 179.556 250.749 179.757 250.749H202.643C202.844 250.749 203.007 250.675 203.007 250.585V249.699C203.007 249.608 202.844 249.535 202.643 249.535Z" fill="#ABB2B9"/>
<path d="M263.591 163.394H247.018C246.817 163.394 246.654 163.468 246.654 163.558V164.444C246.654 164.535 246.817 164.608 247.018 164.608H263.591C263.792 164.608 263.955 164.535 263.955 164.444V163.558C263.955 163.468 263.792 163.394 263.591 163.394Z" fill="#D9D9D9"/>
<path d="M268.387 171.772H245.501C245.3 171.772 245.137 171.845 245.137 171.936V172.822C245.137 172.912 245.3 172.986 245.501 172.986H268.387C268.588 172.986 268.751 172.912 268.751 172.822V171.936C268.751 171.845 268.588 171.772 268.387 171.772Z" fill="#D9D9D9"/>
<path d="M263.591 228.591H251.753C251.661 228.6 251.567 228.589 251.479 228.559C251.391 228.529 251.31 228.482 251.241 228.419C251.173 228.356 251.118 228.279 251.081 228.194C251.044 228.109 251.025 228.017 251.025 227.924V216.086C251.025 215.893 251.102 215.708 251.238 215.571C251.375 215.435 251.56 215.358 251.753 215.358H263.591C263.684 215.357 263.776 215.376 263.861 215.414C263.947 215.451 264.023 215.506 264.086 215.574C264.149 215.643 264.197 215.724 264.226 215.812C264.256 215.9 264.267 215.994 264.259 216.086V227.924C264.259 228.101 264.188 228.271 264.063 228.396C263.938 228.521 263.768 228.591 263.591 228.591ZM252.421 227.195H262.862V216.754H252.421V227.195Z" fill="#ABB2B9"/>
<path d="M258.552 226.527L252.603 220.518L255.578 217.482L258.188 220.093L262.68 214.447L266.019 217.118L258.552 226.527Z" fill="#04B0EA"/>
<path d="M230.992 175.414H219.155C219.067 175.414 218.98 175.397 218.899 175.363C218.818 175.33 218.745 175.28 218.683 175.218C218.621 175.156 218.571 175.083 218.538 175.002C218.504 174.921 218.487 174.834 218.487 174.746V162.848C218.487 162.76 218.504 162.674 218.538 162.593C218.571 162.512 218.621 162.438 218.683 162.376C218.745 162.314 218.818 162.265 218.899 162.231C218.98 162.198 219.067 162.18 219.155 162.18H230.992C231.085 162.172 231.178 162.183 231.266 162.213C231.355 162.242 231.436 162.29 231.504 162.353C231.573 162.416 231.627 162.492 231.665 162.578C231.702 162.663 231.721 162.755 231.721 162.848V174.746C231.721 174.839 231.702 174.931 231.665 175.017C231.627 175.102 231.573 175.178 231.504 175.241C231.436 175.304 231.355 175.352 231.266 175.382C231.178 175.411 231.085 175.422 230.992 175.414ZM219.883 174.018H230.325V163.577H219.883V174.018Z" fill="#CCCCCC"/>
<path d="M226.014 173.35L220.005 167.34L223.04 164.305L225.65 166.915L230.142 161.27L233.481 163.941L226.014 173.35Z" fill="#04B0EA"/>
<path d="M196.815 227.924H184.978C184.885 227.932 184.792 227.921 184.704 227.891C184.616 227.862 184.535 227.814 184.466 227.751C184.397 227.688 184.343 227.612 184.305 227.526C184.268 227.441 184.249 227.349 184.25 227.256V215.419C184.25 215.225 184.326 215.04 184.463 214.903C184.599 214.767 184.785 214.69 184.978 214.69H196.815C196.908 214.69 197.001 214.709 197.086 214.746C197.171 214.783 197.248 214.838 197.31 214.907C197.373 214.975 197.421 215.056 197.451 215.144C197.481 215.232 197.492 215.326 197.483 215.419V227.256C197.483 227.433 197.413 227.603 197.288 227.728C197.162 227.853 196.993 227.924 196.815 227.924ZM185.646 226.528H196.087V216.086H185.646V226.528Z" fill="#ABB2B9"/>
<path d="M191.777 225.86L185.828 219.85L188.863 216.875L191.413 219.425L195.905 213.84L199.244 216.511L191.777 225.86Z" fill="#04B0EA"/>
<path d="M166.099 175.778H154.261C154.169 175.787 154.075 175.776 153.987 175.746C153.899 175.716 153.818 175.668 153.749 175.605C153.681 175.543 153.626 175.466 153.589 175.381C153.551 175.296 153.532 175.203 153.533 175.11V163.273C153.533 163.08 153.61 162.894 153.746 162.758C153.883 162.621 154.068 162.545 154.261 162.545H166.099C166.292 162.545 166.477 162.621 166.614 162.758C166.75 162.894 166.827 163.08 166.827 163.273V175.11C166.812 175.293 166.728 175.463 166.593 175.587C166.458 175.71 166.282 175.779 166.099 175.778ZM154.929 174.382H165.37V163.941H154.929V174.382Z" fill="#CCCCCC"/>
<path d="M161.06 173.714L155.111 167.704L158.146 164.669L160.696 167.279L165.188 161.634L168.527 164.305L161.06 173.714Z" fill="#04B0EA"/>
<path d="M248.247 200.355V179.071H269.526V200.355H248.247Z" fill="white" stroke="#667285"/>
<path d="M254.546 195.265C254.795 195.53 254.945 195.873 254.971 196.236C254.956 196.601 254.804 196.948 254.545 197.207C254.287 197.465 253.94 197.617 253.575 197.632C253.212 197.607 252.868 197.456 252.603 197.207C252.362 196.942 252.231 196.594 252.239 196.236C252.23 196.058 252.259 195.881 252.323 195.715C252.387 195.549 252.485 195.398 252.611 195.272C252.737 195.146 252.887 195.048 253.053 194.984C253.219 194.92 253.397 194.892 253.575 194.9C253.933 194.892 254.281 195.023 254.546 195.265ZM254.728 194.05H252.482V183.124H254.728V194.05Z" fill="#50A4D6"/>
<path d="M259.949 195.265C260.085 195.386 260.193 195.536 260.267 195.704C260.34 195.871 260.376 196.053 260.373 196.236C260.381 196.419 260.346 196.602 260.273 196.77C260.199 196.939 260.088 197.088 259.949 197.207C259.833 197.336 259.693 197.44 259.537 197.513C259.38 197.586 259.211 197.627 259.038 197.632C258.856 197.631 258.675 197.593 258.508 197.52C258.341 197.447 258.191 197.34 258.067 197.207C257.927 197.088 257.816 196.939 257.743 196.77C257.669 196.602 257.635 196.419 257.642 196.236C257.642 196.055 257.678 195.876 257.749 195.71C257.82 195.544 257.924 195.394 258.054 195.269C258.185 195.144 258.339 195.047 258.508 194.984C258.677 194.921 258.858 194.892 259.038 194.9C259.207 194.894 259.375 194.924 259.532 194.986C259.688 195.049 259.83 195.144 259.949 195.265ZM260.131 194.05H257.885V183.124H260.131V194.05Z" fill="#50A4D6"/>
<path d="M265.169 195.265C265.401 195.535 265.53 195.879 265.533 196.236C265.541 196.594 265.411 196.942 265.169 197.207C264.904 197.456 264.561 197.607 264.198 197.632C263.832 197.617 263.486 197.465 263.227 197.207C262.969 196.948 262.817 196.601 262.802 196.236C262.827 195.873 262.977 195.53 263.227 195.265C263.492 195.023 263.839 194.892 264.198 194.9C264.554 194.904 264.898 195.033 265.169 195.265ZM265.291 194.05H263.105V183.124H265.291V194.05Z" fill="#50A4D6"/>
<path d="M127.248 181.302C132.981 181.302 137.628 176.655 137.628 170.922C137.628 165.189 132.981 160.541 127.248 160.541C121.515 160.541 116.867 165.189 116.867 170.922C116.867 176.655 121.515 181.302 127.248 181.302Z" fill="#CDEFFB"/>
<path d="M127.248 213.84C132.981 213.84 137.628 209.193 137.628 203.46C137.628 197.727 132.981 193.079 127.248 193.079C121.515 193.079 116.867 197.727 116.867 203.46C116.867 209.193 121.515 213.84 127.248 213.84Z" fill="#CDEFFB"/>
<path d="M127.248 244.132C132.981 244.132 137.628 239.484 137.628 233.751C137.628 228.018 132.981 223.371 127.248 223.371C121.515 223.371 116.867 228.018 116.867 233.751C116.867 239.484 121.515 244.132 127.248 244.132Z" fill="#CDEFFB"/>
<mask id="path-274-inside-2_444_7725" fill="white">
<path fill-rule="evenodd" clip-rule="evenodd" d="M299.071 120.8C307.432 117.879 313.43 109.922 313.43 100.565C313.43 88.73 303.836 79.136 292.001 79.136C280.166 79.136 270.572 88.73 270.572 100.565C270.572 109.592 276.153 117.315 284.053 120.471L290.908 135.895L299.071 120.8Z"/>
</mask>
<path fill-rule="evenodd" clip-rule="evenodd" d="M299.071 120.8C307.432 117.879 313.43 109.922 313.43 100.565C313.43 88.73 303.836 79.136 292.001 79.136C280.166 79.136 270.572 88.73 270.572 100.565C270.572 109.592 276.153 117.315 284.053 120.471L290.908 135.895L299.071 120.8Z" fill="white"/>
<path d="M299.071 120.8L298.411 118.912L297.68 119.167L297.311 119.849L299.071 120.8ZM284.053 120.471L285.881 119.659L285.55 118.916L284.795 118.614L284.053 120.471ZM290.908 135.895L289.08 136.707L290.732 140.424L292.667 136.846L290.908 135.895ZM299.73 122.688C308.869 119.495 315.43 110.799 315.43 100.565H311.43C311.43 109.046 305.994 116.263 298.411 118.912L299.73 122.688ZM315.43 100.565C315.43 87.6254 304.94 77.136 292.001 77.136V81.136C302.731 81.136 311.43 89.8346 311.43 100.565H315.43ZM292.001 77.136C279.061 77.136 268.572 87.6254 268.572 100.565H272.572C272.572 89.8346 281.27 81.136 292.001 81.136V77.136ZM268.572 100.565C268.572 110.437 274.677 118.879 283.311 122.329L284.795 118.614C277.629 115.751 272.572 108.746 272.572 100.565H268.572ZM292.736 135.083L285.881 119.659L282.225 121.284L289.08 136.707L292.736 135.083ZM297.311 119.849L289.149 134.944L292.667 136.846L300.83 121.751L297.311 119.849Z" fill="#04B0EA" mask="url(#path-274-inside-2_444_7725)"/>
<path d="M291.596 110.095L283.502 101.972L287.585 97.8384L291.099 101.366L297.17 93.7052L301.714 97.3395L291.596 110.095Z" fill="#04B0EA"/>
<path d="M343 247.99H218.975V330.009H343V247.99Z" fill="white"/>
<path d="M343 247.898H218.975V253.2H343V247.898Z" fill="#2F2E41"/>
<path d="M222.644 251.751C223.354 251.751 223.929 251.176 223.929 250.467C223.929 249.757 223.354 249.182 222.644 249.182C221.935 249.182 221.36 249.757 221.36 250.467C221.36 251.176 221.935 251.751 222.644 251.751Z" fill="#8CE2FF"/>
<path d="M227.047 251.751C227.757 251.751 228.332 251.176 228.332 250.467C228.332 249.757 227.757 249.182 227.047 249.182C226.338 249.182 225.763 249.757 225.763 250.467C225.763 251.176 226.338 251.751 227.047 251.751Z" fill="#E6F8FF"/>
<path d="M231.726 251.751C232.435 251.751 233.01 251.176 233.01 250.467C233.01 249.757 232.435 249.182 231.726 249.182C231.017 249.182 230.442 249.757 230.442 250.467C230.442 251.176 231.017 251.751 231.726 251.751Z" fill="#0091C1"/>
<path d="M332.359 261.199H227.69V270.373H332.359V261.199Z" fill="#EBEDEF"/>
<path d="M233.423 289.169C235.624 288.813 237.119 286.74 236.762 284.54C236.406 282.339 234.333 280.844 232.133 281.201C229.932 281.557 228.437 283.63 228.794 285.83C229.15 288.031 231.223 289.526 233.423 289.169Z" fill="#CCCCCC"/>
<path d="M232.393 306.393C234.622 306.393 236.43 304.586 236.43 302.356C236.43 300.127 234.622 298.32 232.393 298.32C230.164 298.32 228.357 300.127 228.357 302.356C228.357 304.586 230.164 306.393 232.393 306.393Z" fill="#CCCCCC"/>
<path d="M232.852 322.721C235.081 322.721 236.888 320.914 236.888 318.685C236.888 316.456 235.081 314.649 232.852 314.649C230.623 314.649 228.816 316.456 228.816 318.685C228.816 320.914 230.623 322.721 232.852 322.721Z" fill="#CCCCCC"/>
<path d="M303.462 285.05H249.247C247.981 285.05 246.954 285.334 246.954 285.683V286.252C246.954 286.602 247.981 286.885 249.247 286.885H303.462C304.729 286.885 305.756 286.602 305.756 286.252V285.683C305.756 285.334 304.729 285.05 303.462 285.05Z" fill="#EBEDEF"/>
<path d="M303.462 301.104H249.247C247.981 301.104 246.954 301.387 246.954 301.737V302.306C246.954 302.655 247.981 302.939 249.247 302.939H303.462C304.729 302.939 305.756 302.655 305.756 302.306V301.737C305.756 301.387 304.729 301.104 303.462 301.104Z" fill="#EBEDEF"/>
<path d="M303.462 318.075H249.247C247.981 318.075 246.954 318.358 246.954 318.707V319.277C246.954 319.626 247.981 319.91 249.247 319.91H303.462C304.729 319.91 305.756 319.626 305.756 319.277V318.707C305.756 318.358 304.729 318.075 303.462 318.075Z" fill="#EBEDEF"/>
<path d="M223.18 67.8624H222.629L222.433 67.6739C223.141 66.8533 223.53 65.8055 223.529 64.722C223.529 63.8248 223.263 62.9478 222.765 62.2018C222.266 61.4559 221.558 60.8744 220.729 60.5311C219.9 60.1878 218.988 60.098 218.108 60.273C217.228 60.448 216.42 60.88 215.785 61.5144C215.151 62.1488 214.719 62.9571 214.544 63.837C214.369 64.7169 214.459 65.629 214.802 66.4579C215.145 67.2867 215.727 67.9952 216.473 68.4936C217.219 68.9921 218.096 69.2581 218.993 69.2581C220.116 69.2581 221.149 68.8464 221.945 68.1625L222.133 68.3579V68.9092L225.623 72.3915L226.662 71.3517L223.18 67.8624ZM218.993 67.8624C217.255 67.8624 215.853 66.4597 215.853 64.722C215.853 62.9843 217.255 61.5816 218.993 61.5816C220.731 61.5816 222.133 62.9843 222.133 64.722C222.133 66.4597 220.731 67.8624 218.993 67.8624Z" fill="#04B0EA"/>
<path d="M156.534 68.142L156.534 67.6723H200.006V68.142H156.894H156.534Z" fill="#CCCCCC"/>
<path d="M204.699 72.8368C203.724 72.8368 202.772 72.5477 201.961 72.006C201.151 71.4643 200.52 70.6944 200.147 69.7936C199.774 68.8928 199.676 67.9016 199.866 66.9453C200.056 65.989 200.526 65.1106 201.215 64.4212C201.904 63.7317 202.782 63.2622 203.738 63.072C204.693 62.8818 205.684 62.9794 206.584 63.3525C207.485 63.7256 208.254 64.3575 208.796 65.1682C209.337 65.9789 209.626 66.932 209.626 67.907C209.625 69.214 209.105 70.4671 208.181 71.3913C207.258 72.3154 206.005 72.8353 204.699 72.8368ZM204.699 63.4468C203.817 63.4468 202.955 63.7084 202.222 64.1985C201.489 64.6886 200.918 65.3852 200.58 66.2002C200.243 67.0152 200.155 67.912 200.327 68.7772C200.499 69.6424 200.923 70.4371 201.547 71.0609C202.17 71.6847 202.964 72.1095 203.829 72.2816C204.694 72.4537 205.59 72.3654 206.405 72.0278C207.219 71.6902 207.916 71.1185 208.406 70.385C208.895 69.6515 209.157 68.7892 209.157 67.907C209.155 66.7245 208.685 65.5908 207.85 64.7546C207.014 63.9185 205.881 63.4481 204.699 63.4468Z" fill="#CCCCCC"/>
<path d="M204.699 69.7851C205.736 69.7851 206.576 68.9443 206.576 67.9071C206.576 66.8699 205.736 66.0291 204.699 66.0291C203.662 66.0291 202.822 66.8699 202.822 67.9071C202.822 68.9443 203.662 69.7851 204.699 69.7851Z" fill="#04B0EA"/>
<rect x="89.1019" y="32.335" width="68.8338" height="68.8338" rx="9" fill="white"/>
<path d="M98.4561 41.6892H120.734V63.9672H98.4561V41.6892ZM126.304 41.6892H148.581V63.9672H126.304V41.6892ZM98.4561 69.5367H120.734V91.8146H98.4561V69.5367ZM106.81 50.0435V55.6129H112.38V50.0435H106.81ZM106.81 77.8909V83.4604H112.38V77.8909H106.81ZM134.658 50.0435V55.6129H140.227V50.0435H134.658Z" fill="#04B0EA"/>
<path d="M134.658 80.6756V77.8909H126.303V69.5367H134.658V75.1062H140.227V69.5367H148.581V75.1062H140.227V80.6756H137.442V86.2451H143.012V80.6756H148.581V91.8146H137.442V86.2451H131.873V91.8146H126.303V83.4604H131.873V80.6756H134.658Z" fill="#04B0EA"/>
<rect x="89.1019" y="32.335" width="68.8338" height="68.8338" rx="9" stroke="#04B0EA" stroke-width="2"/>
<path d="M54.8876 243.529C54.7757 243.402 54.714 243.238 54.714 243.068C54.714 242.899 54.7757 242.735 54.8876 242.608L55.7808 241.603C55.8793 241.493 55.9404 241.355 55.9554 241.208C55.9705 241.062 55.9387 240.914 55.8646 240.786L54.4688 238.372C54.3955 238.244 54.2838 238.143 54.1497 238.083C54.0157 238.023 53.866 238.007 53.7221 238.037L52.4101 238.302C52.2432 238.336 52.0694 238.309 51.9215 238.224C51.7737 238.139 51.662 238.003 51.6076 237.841L51.1819 236.564C51.1351 236.426 51.0459 236.305 50.9269 236.22C50.8079 236.135 50.6652 236.089 50.5189 236.09H47.7274C47.5753 236.082 47.4247 236.124 47.2986 236.21C47.1726 236.295 47.0781 236.42 47.0296 236.564L46.6388 237.841C46.5843 238.003 46.4727 238.139 46.3248 238.224C46.177 238.309 46.0032 238.336 45.8362 238.302L44.4893 238.037C44.3529 238.018 44.2139 238.039 44.0897 238.099C43.9655 238.158 43.8617 238.253 43.7915 238.372L42.3957 240.786C42.3198 240.912 42.2856 241.059 42.2982 241.206C42.3107 241.353 42.3693 241.492 42.4655 241.603L43.3518 242.608C43.4637 242.735 43.5254 242.899 43.5254 243.068C43.5254 243.238 43.4637 243.402 43.3518 243.529L42.4655 244.534C42.3693 244.645 42.3107 244.784 42.2982 244.931C42.2856 245.078 42.3198 245.224 42.3957 245.35L43.7915 247.765C43.8648 247.892 43.9765 247.993 44.1106 248.054C44.2447 248.114 44.3943 248.13 44.5382 248.1L45.8502 247.835C46.0171 247.8 46.1909 247.828 46.3388 247.913C46.4866 247.998 46.5983 248.134 46.6527 248.295L47.0784 249.573C47.127 249.717 47.2215 249.842 47.3475 249.927C47.4735 250.013 47.6241 250.055 47.7763 250.047H50.5678C50.7141 250.047 50.8568 250.002 50.9758 249.917C51.0947 249.832 51.1839 249.711 51.2307 249.573L51.6564 248.295C51.7109 248.134 51.8226 247.998 51.9704 247.913C52.1183 247.828 52.292 247.8 52.459 247.835L53.771 248.1C53.9149 248.13 54.0645 248.114 54.1986 248.054C54.3327 247.993 54.4444 247.892 54.5177 247.765L55.9134 245.35C55.9875 245.223 56.0193 245.075 56.0043 244.929C55.9892 244.782 55.9281 244.644 55.8297 244.534L54.8876 243.529ZM53.8477 244.464L54.406 245.092L53.5128 246.642L52.6893 246.474C52.1867 246.371 51.6638 246.457 51.22 246.714C50.7762 246.971 50.4423 247.383 50.2816 247.87L50.0164 248.651H48.2299L47.9787 247.856C47.8181 247.369 47.4842 246.957 47.0403 246.7C46.5965 246.443 46.0737 246.357 45.571 246.46L44.7475 246.628L43.8403 245.085L44.3986 244.457C44.7419 244.073 44.9317 243.576 44.9317 243.061C44.9317 242.546 44.7419 242.05 44.3986 241.666L43.8403 241.038L44.7336 239.502L45.5571 239.67C46.0597 239.773 46.5825 239.687 47.0264 239.43C47.4702 239.173 47.8041 238.761 47.9647 238.274L48.2299 237.485H50.0164L50.2816 238.281C50.4423 238.768 50.7762 239.18 51.22 239.437C51.6638 239.694 52.1867 239.78 52.6893 239.677L53.5128 239.509L54.406 241.059L53.8477 241.687C53.5083 242.07 53.3208 242.564 53.3208 243.075C53.3208 243.587 53.5083 244.081 53.8477 244.464ZM49.1232 240.277C48.5711 240.277 48.0314 240.441 47.5723 240.747C47.1133 241.054 46.7555 241.49 46.5442 242C46.3329 242.51 46.2776 243.072 46.3853 243.613C46.4931 244.155 46.7589 244.652 47.1493 245.042C47.5397 245.433 48.0371 245.699 48.5786 245.806C49.1201 245.914 49.6814 245.859 50.1914 245.647C50.7015 245.436 51.1375 245.078 51.4442 244.619C51.7509 244.16 51.9147 243.621 51.9147 243.068C51.9147 242.328 51.6205 241.618 51.097 241.095C50.5735 240.571 49.8635 240.277 49.1232 240.277ZM49.1232 244.464C48.8471 244.464 48.5773 244.382 48.3477 244.229C48.1182 244.076 47.9393 243.858 47.8337 243.603C47.728 243.348 47.7004 243.067 47.7543 242.796C47.8081 242.525 47.941 242.277 48.1362 242.081C48.3314 241.886 48.5801 241.753 48.8509 241.7C49.1216 241.646 49.4023 241.673 49.6573 241.779C49.9123 241.885 50.1303 242.063 50.2837 242.293C50.4371 242.523 50.5189 242.792 50.5189 243.068C50.5189 243.439 50.3719 243.794 50.1101 244.055C49.8484 244.317 49.4934 244.464 49.1232 244.464Z" fill="#04B0EA"/>
<path d="M127.68 200.009L128.293 200.152L114.822 244.023L73.1785 243.893L73.1798 243.34L114.336 243.469L127.68 200.009Z" fill="#CCCCCC"/>
<path d="M66.5951 236.345C67.9009 236.347 69.1765 236.737 70.2608 237.464C71.3451 238.192 72.1893 239.224 72.6867 240.432C73.1841 241.639 73.3123 242.967 73.0551 244.247C72.7979 245.527 72.1669 246.702 71.2418 247.624C70.3167 248.545 69.1392 249.172 67.858 249.424C66.5769 249.676 65.2497 249.543 64.0443 249.041C62.8389 248.539 61.8095 247.691 61.0861 246.604C60.3628 245.517 59.978 244.24 59.9805 242.934C59.9859 241.184 60.6853 239.507 61.9253 238.272C63.1654 237.036 64.8448 236.343 66.5951 236.345ZM66.571 248.92C67.7524 248.922 68.9079 248.574 69.8915 247.919C70.875 247.265 71.6424 246.334 72.0966 245.243C72.5508 244.152 72.6714 242.952 72.4431 241.792C72.2148 240.633 71.648 239.568 70.8142 238.731C69.9805 237.894 68.9172 237.323 67.759 237.09C66.6008 236.858 65.3995 236.974 64.3072 237.424C63.2149 237.874 62.2805 238.637 61.6223 239.619C60.9641 240.6 60.6116 241.754 60.6093 242.935C60.6081 244.519 61.235 246.038 62.3527 247.16C63.4703 248.282 64.9874 248.915 66.571 248.92Z" fill="#CCCCCC"/>
<path d="M66.5825 245.422C67.9498 245.422 69.0582 244.314 69.0582 242.947C69.0582 241.579 67.9498 240.471 66.5825 240.471C65.2152 240.471 64.1068 241.579 64.1068 242.947C64.1068 244.314 65.2152 245.422 66.5825 245.422Z" fill="#04B0EA"/>
<path d="M239.786 105.059C239.403 105.059 239.074 104.923 238.8 104.649C238.527 104.375 238.39 104.047 238.391 103.664V95.2892C238.391 94.9054 238.527 94.5767 238.801 94.3032C239.075 94.0296 239.403 93.893 239.786 93.8935H246.835C246.788 94.1261 246.765 94.3588 246.765 94.5914C246.765 94.824 246.788 95.0566 246.835 95.2892H239.786V103.664H250.952V98.0109C251.22 97.9528 251.47 97.8714 251.703 97.7667C251.935 97.662 252.15 97.5341 252.348 97.3828V103.664C252.348 104.047 252.211 104.376 251.938 104.65C251.664 104.923 251.336 105.06 250.952 105.059H239.786ZM250.254 96.685C249.673 96.685 249.179 96.4814 248.772 96.0743C248.364 95.6673 248.161 95.1729 248.161 94.5914C248.161 94.0098 248.364 93.5155 248.772 93.1084C249.179 92.7013 249.673 92.4978 250.254 92.4978C250.836 92.4978 251.33 92.7013 251.737 93.1084C252.145 93.5155 252.348 94.0098 252.348 94.5914C252.348 95.1729 252.145 95.6673 251.737 96.0743C251.33 96.4814 250.836 96.685 250.254 96.685ZM245.369 98.7786L247.917 97.1909C248.079 97.3421 248.257 97.4731 248.449 97.5838C248.641 97.6946 248.842 97.7904 249.051 97.8714L245.736 99.9475C245.619 100.017 245.497 100.052 245.369 100.052C245.241 100.052 245.119 100.017 245.003 99.9475L239.786 96.685V95.2892L245.369 98.7786Z" fill="#04B0EA"/>
<path d="M159.051 138.959L158.597 138.839L168.498 101.574H225.928V102.043H168.859L159.051 138.959Z" fill="#CCCCCC"/>
<path d="M230.621 106.738C229.646 106.738 228.694 106.449 227.883 105.907C227.073 105.366 226.441 104.596 226.069 103.695C225.696 102.794 225.598 101.803 225.788 100.847C225.978 99.8904 226.448 99.012 227.137 98.3226C227.826 97.6331 228.704 97.1636 229.659 96.9734C230.615 96.7832 231.606 96.8808 232.506 97.2539C233.407 97.627 234.176 98.2589 234.718 99.0696C235.259 99.8803 235.548 100.833 235.548 101.808C235.546 103.115 235.027 104.368 234.103 105.293C233.179 106.217 231.927 106.737 230.621 106.738ZM230.621 97.3482C229.739 97.3482 228.877 97.6098 228.144 98.0999C227.411 98.59 226.839 99.2866 226.502 100.102C226.165 100.917 226.076 101.813 226.248 102.679C226.42 103.544 226.845 104.339 227.468 104.962C228.092 105.586 228.886 106.011 229.751 106.183C230.616 106.355 231.512 106.267 232.327 105.929C233.141 105.592 233.838 105.02 234.327 104.286C234.817 103.553 235.079 102.691 235.079 101.808C235.077 100.626 234.607 99.4922 233.771 98.656C232.936 97.8199 231.803 97.3495 230.621 97.3482Z" fill="#CCCCCC"/>
<path d="M230.621 103.686C231.657 103.686 232.498 102.846 232.498 101.808C232.498 100.771 231.657 99.9305 230.621 99.9305C229.584 99.9305 228.744 100.771 228.744 101.808C228.744 102.846 229.584 103.686 230.621 103.686Z" fill="#04B0EA"/>
</svg>
