<svg width="20" height="20" viewBox="0 0 20 20" fill="none" xmlns="http://www.w3.org/2000/svg">
<path d="M3.51848 18.3333H16.4814C16.9726 18.3333 17.4436 18.1577 17.7909 17.8452C18.1382 17.5327 18.3333 17.1087 18.3333 16.6667V9.16703C18.334 9.05736 18.3106 8.94865 18.2645 8.84712C18.2185 8.74559 18.1506 8.65325 18.0648 8.57539L10.6574 1.90899C10.4839 1.75378 10.2492 1.66667 10.0046 1.66667C9.75996 1.66667 9.52529 1.75378 9.3518 1.90899L1.9444 8.57539C1.85691 8.65256 1.78731 8.7446 1.73963 8.84616C1.69195 8.94771 1.66713 9.05678 1.66663 9.16703V16.6667C1.66663 17.1087 1.86173 17.5327 2.20902 17.8452C2.55631 18.1577 3.02733 18.3333 3.51848 18.3333ZM8.1481 16.6667V12.5002H11.8518V16.6667H8.1481ZM3.51848 9.50868L9.99995 3.67558L16.4814 9.50868V16.6667H13.7037V12.5002C13.7037 12.0582 13.5085 11.6343 13.1613 11.3218C12.814 11.0092 12.3429 10.8336 11.8518 10.8336H8.1481C7.65696 10.8336 7.18594 11.0092 6.83865 11.3218C6.49136 11.6343 6.29625 12.0582 6.29625 12.5002V16.6667H3.51848V9.50868Z" fill="#04B0EA"/>
</svg>
