<svg width="20" height="20" viewBox="0 0 20 20" fill="none" xmlns="http://www.w3.org/2000/svg">
<path d="M5.33333 8.75H9.33333V20H5.33333V8.75ZM6.66667 18.75H8V10H6.66667V18.75ZM10.6667 11.25H14.6667V20H10.6667V11.25ZM12 18.75H13.3333V12.5H12V18.75ZM0 13.75H4V20H0V13.75ZM1.33333 18.75H2.66667V15H1.33333V18.75ZM16 6.25H20V20H16V6.25ZM17.3333 18.75H18.6667V7.5H17.3333V18.75ZM14.4688 6.06445C14.6007 6.33138 14.6667 6.60156 14.6667 6.875C14.6667 7.13542 14.6146 7.37956 14.5104 7.60742C14.4062 7.83529 14.2639 8.03385 14.0833 8.20312C13.9028 8.3724 13.691 8.50586 13.4479 8.60352C13.2049 8.70117 12.9444 8.75 12.6667 8.75C12.3889 8.75 12.1285 8.70117 11.8854 8.60352C11.6424 8.50586 11.4306 8.3724 11.25 8.20312C11.0694 8.03385 10.9271 7.83529 10.8229 7.60742C10.7188 7.37956 10.6667 7.13542 10.6667 6.875V6.75781C10.6667 6.71875 10.6701 6.67969 10.6771 6.64062L8.71875 5.72266C8.53819 5.89193 8.32639 6.02214 8.08333 6.11328C7.84028 6.20443 7.59028 6.25 7.33333 6.25C7.04167 6.25 6.75347 6.18815 6.46875 6.06445L3.80208 8.56445C3.93403 8.83138 4 9.10156 4 9.375C4 9.63542 3.94792 9.87956 3.84375 10.1074C3.73958 10.3353 3.59722 10.5339 3.41667 10.7031C3.23611 10.8724 3.02431 11.0059 2.78125 11.1035C2.53819 11.2012 2.27778 11.25 2 11.25C1.72222 11.25 1.46181 11.2012 1.21875 11.1035C0.975694 11.0059 0.763889 10.8724 0.583333 10.7031C0.402778 10.5339 0.260417 10.3353 0.15625 10.1074C0.0520833 9.87956 0 9.63542 0 9.375C0 9.11458 0.0520833 8.87044 0.15625 8.64258C0.260417 8.41471 0.402778 8.21615 0.583333 8.04688C0.763889 7.8776 0.975694 7.74414 1.21875 7.64648C1.46181 7.54883 1.72222 7.5 2 7.5C2.29167 7.5 2.57986 7.56185 2.86458 7.68555L5.53125 5.18555C5.39931 4.91862 5.33333 4.64844 5.33333 4.375C5.33333 4.11458 5.38542 3.87044 5.48958 3.64258C5.59375 3.41471 5.73611 3.21615 5.91667 3.04688C6.09722 2.8776 6.30903 2.74414 6.55208 2.64648C6.79514 2.54883 7.05556 2.5 7.33333 2.5C7.61111 2.5 7.87153 2.54883 8.11458 2.64648C8.35764 2.74414 8.56944 2.8776 8.75 3.04688C8.93056 3.21615 9.07292 3.41471 9.17708 3.64258C9.28125 3.87044 9.33333 4.11458 9.33333 4.375V4.49219C9.33333 4.53125 9.32986 4.57031 9.32292 4.60938L11.2812 5.52734C11.4618 5.35807 11.6736 5.22786 11.9167 5.13672C12.1597 5.04557 12.4097 5 12.6667 5C12.9583 5 13.2465 5.06185 13.5312 5.18555L16.1979 2.68555C16.066 2.41862 16 2.14844 16 1.875C16 1.61458 16.0521 1.37044 16.1562 1.14258C16.2604 0.914714 16.4028 0.716146 16.5833 0.546875C16.7639 0.377604 16.9757 0.244141 17.2188 0.146484C17.4618 0.0488281 17.7222 0 18 0C18.2778 0 18.5382 0.0488281 18.7812 0.146484C19.0243 0.244141 19.2361 0.377604 19.4167 0.546875C19.5972 0.716146 19.7396 0.914714 19.8438 1.14258C19.9479 1.37044 20 1.61458 20 1.875C20 2.13542 19.9479 2.37956 19.8438 2.60742C19.7396 2.83529 19.5972 3.03385 19.4167 3.20312C19.2361 3.3724 19.0243 3.50586 18.7812 3.60352C18.5382 3.70117 18.2778 3.75 18 3.75C17.7083 3.75 17.4201 3.68815 17.1354 3.56445L14.4688 6.06445ZM2 10C2.18056 10 2.33681 9.93815 2.46875 9.81445C2.60069 9.69076 2.66667 9.54427 2.66667 9.375C2.66667 9.20573 2.60069 9.05925 2.46875 8.93555C2.33681 8.81185 2.18056 8.75 2 8.75C1.81944 8.75 1.66319 8.81185 1.53125 8.93555C1.39931 9.05925 1.33333 9.20573 1.33333 9.375C1.33333 9.54427 1.39931 9.69076 1.53125 9.81445C1.66319 9.93815 1.81944 10 2 10ZM18 1.25C17.8194 1.25 17.6632 1.31185 17.5312 1.43555C17.3993 1.55924 17.3333 1.70573 17.3333 1.875C17.3333 2.04427 17.3993 2.19076 17.5312 2.31445C17.6632 2.43815 17.8194 2.5 18 2.5C18.1806 2.5 18.3368 2.43815 18.4688 2.31445C18.6007 2.19076 18.6667 2.04427 18.6667 1.875C18.6667 1.70573 18.6007 1.55924 18.4688 1.43555C18.3368 1.31185 18.1806 1.25 18 1.25ZM7.33333 5C7.51389 5 7.67014 4.93815 7.80208 4.81445C7.93403 4.69076 8 4.54427 8 4.375C8 4.20573 7.93403 4.05925 7.80208 3.93555C7.67014 3.81185 7.51389 3.75 7.33333 3.75C7.15278 3.75 6.99653 3.81185 6.86458 3.93555C6.73264 4.05925 6.66667 4.20573 6.66667 4.375C6.66667 4.54427 6.73264 4.69076 6.86458 4.81445C6.99653 4.93815 7.15278 5 7.33333 5ZM12.6667 7.5C12.8472 7.5 13.0035 7.43815 13.1354 7.31445C13.2674 7.19076 13.3333 7.04427 13.3333 6.875C13.3333 6.70573 13.2674 6.55925 13.1354 6.43555C13.0035 6.31185 12.8472 6.25 12.6667 6.25C12.4861 6.25 12.3299 6.31185 12.1979 6.43555C12.066 6.55925 12 6.70573 12 6.875C12 7.04427 12.066 7.19076 12.1979 7.31445C12.3299 7.43815 12.4861 7.5 12.6667 7.5Z" fill="#76828F"/>
</svg>
