<svg width="24" height="24" viewBox="0 0 24 24" fill="none" xmlns="http://www.w3.org/2000/svg">
<path d="M12.431 6.01582C11.5725 5.95333 10.7106 6.07641 9.90397 6.37671C9.0973 6.677 8.36474 7.14745 7.7561 7.7561C7.14745 8.36474 6.677 9.0973 6.37671 9.90397C6.07641 10.7106 5.95333 11.5725 6.01582 12.431C6.23186 15.6056 9.00437 18 12.1849 18H14.3993C14.7294 18 14.9995 17.73 14.9995 17.3999C14.9995 17.0698 14.7294 16.7998 14.3993 16.7998H12.1969C9.95854 16.7998 7.90617 15.3475 7.34807 13.1811C6.4539 9.70049 9.69449 6.4539 13.1751 7.35407C15.3475 7.90617 16.7998 9.95854 16.7998 12.1969V12.8571C16.7998 13.3312 16.3737 13.7992 15.8996 13.7992C15.4255 13.7992 14.9995 13.3312 14.9995 12.8571V12.1069C14.9995 10.6007 13.9313 9.24441 12.443 9.03437C11.9695 8.96396 11.486 9.00769 11.0328 9.16191C10.5796 9.31612 10.1698 9.57637 9.83752 9.92098C9.50524 10.2656 9.26008 10.6846 9.12247 11.1431C8.98486 11.6016 8.95877 12.0864 9.04637 12.557C9.15163 13.1241 9.41822 13.6488 9.81418 14.0682C10.2101 14.4876 10.7187 14.7838 11.2788 14.9214C12.383 15.1795 13.4332 14.8254 14.1233 14.1233C14.6574 14.8554 15.7256 15.2395 16.7038 14.8494C17.5079 14.5314 18 13.7092 18 12.8451V12.1909C18 9.00437 15.6056 6.23186 12.431 6.01582ZM11.9989 13.7992C11.0027 13.7992 10.1986 12.9951 10.1986 11.9989C10.1986 11.0027 11.0027 10.1986 11.9989 10.1986C12.9951 10.1986 13.7992 11.0027 13.7992 11.9989C13.7992 12.9951 12.9951 13.7992 11.9989 13.7992Z" fill="#ABB2B9"/>
</svg>
