<svg width="24" height="24" viewBox="0 0 24 24" fill="none" xmlns="http://www.w3.org/2000/svg">
<path d="M12 9.06667C13.0029 9.06341 13.9865 9.33695 14.8375 9.85585C15.6886 10.3748 16.3726 11.118 16.8109 12C15.9109 13.7973 14.0727 14.9333 12 14.9333C9.92727 14.9333 8.08909 13.7973 7.18909 12C7.62743 11.118 8.31144 10.3748 9.16248 9.85585C10.0135 9.33695 10.9971 9.06341 12 9.06667ZM12 8C9.27273 8 6.94364 9.65867 6 12C6.94364 14.3413 9.27273 16 12 16C14.7273 16 17.0564 14.3413 18 12C17.0564 9.65867 14.7273 8 12 8ZM12 10.6667C12.3617 10.6667 12.7085 10.8071 12.9642 11.0572C13.22 11.3072 13.3636 11.6464 13.3636 12C13.3636 12.3536 13.22 12.6928 12.9642 12.9428C12.7085 13.1929 12.3617 13.3333 12 13.3333C11.6383 13.3333 11.2915 13.1929 11.0358 12.9428C10.78 12.6928 10.6364 12.3536 10.6364 12C10.6364 11.6464 10.78 11.3072 11.0358 11.0572C11.2915 10.8071 11.6383 10.6667 12 10.6667ZM12 9.6C10.6473 9.6 9.54545 10.6773 9.54545 12C9.54545 13.3227 10.6473 14.4 12 14.4C13.3527 14.4 14.4545 13.3227 14.4545 12C14.4545 10.6773 13.3527 9.6 12 9.6Z" fill="#04B0EA"/>
</svg>
