<svg width="12" height="11" viewBox="0 0 12 11" fill="none" xmlns="http://www.w3.org/2000/svg">
<path d="M11 0.571289H1C0.455 0.592342 0.02 1.05024 0 1.62392V8.99234C0.02 9.56603 0.455 10.0239 1 10.045H11C11.545 10.0239 11.98 9.56603 12 8.99234V1.62392C11.9908 1.34783 11.8825 1.08568 11.6969 0.890334C11.5113 0.694988 11.2623 0.580976 11 0.571289ZM11 8.99234H1V1.62392H11V8.99234ZM7 7.93971V7.28182C7 6.40813 5.33 5.96603 4.5 5.96603C3.67 5.96603 2 6.40813 2 7.28182V7.93971H7ZM4.5 2.67655C4.16848 2.67655 3.85054 2.81518 3.61612 3.06194C3.3817 3.3087 3.25 3.64337 3.25 3.99234C3.25 4.16513 3.28233 4.33623 3.34515 4.49587C3.40797 4.65551 3.50004 4.80056 3.61612 4.92275C3.85054 5.1695 4.16848 5.30813 4.5 5.30813C4.66415 5.30813 4.8267 5.2741 4.97835 5.20797C5.13001 5.14185 5.26781 5.04493 5.38388 4.92275C5.49996 4.80056 5.59203 4.65551 5.65485 4.49587C5.71767 4.33623 5.75 4.16513 5.75 3.99234C5.75 3.81955 5.71767 3.64845 5.65485 3.48881C5.59203 3.32917 5.49996 3.18412 5.38388 3.06194C5.26781 2.93976 5.13001 2.84284 4.97835 2.77671C4.8267 2.71059 4.66415 2.67655 4.5 2.67655ZM7 2.67655V3.20287H10V2.67655H7ZM7 3.72918V4.2555H10V3.72918H7ZM7 4.78182V5.30813H9V4.78182H7Z" fill="#212F3D"/>
</svg>
