<svg width="21" height="27" viewBox="0 0 21 27" fill="none" xmlns="http://www.w3.org/2000/svg">
<path d="M15.0455 13.6298C15.0455 13.2282 14.9018 12.843 14.6461 12.5589C14.3903 12.2749 14.0435 12.1154 13.6818 12.1154H7.31818C6.95652 12.1154 6.60968 12.2749 6.35395 12.5589C6.09821 12.843 5.95455 13.2282 5.95455 13.6298V14.1346C5.95455 16.1246 7.64545 18.1731 10.5 18.1731C13.3545 18.1731 15.0455 16.1246 15.0455 14.1346V13.6298ZM13 8.32933C13 7.59297 12.7366 6.88677 12.2678 6.36609C11.7989 5.8454 11.163 5.55289 10.5 5.55289C9.83696 5.55289 9.20107 5.8454 8.73223 6.36609C8.26339 6.88677 8 7.59297 8 8.32933C8 9.06569 8.26339 9.77188 8.73223 10.2926C9.20107 10.8133 9.83696 11.1058 10.5 11.1058C11.163 11.1058 11.7989 10.8133 12.2678 10.2926C12.7366 9.77188 13 9.06569 13 8.32933ZM18.6818 23.2212H2.39545C2.48949 23.5165 2.66371 23.7723 2.8941 23.9531C3.12449 24.1339 3.3997 24.2309 3.68182 24.2308H19.5909C19.832 24.2308 20.0632 24.3371 20.2337 24.5265C20.4042 24.7158 20.5 24.9726 20.5 25.2404C20.5 25.5082 20.4042 25.765 20.2337 25.9543C20.0632 26.1436 19.832 26.25 19.5909 26.25H3.68182C2.83795 26.25 2.02864 25.8777 1.43193 25.215C0.835227 24.5523 0.5 23.6535 0.5 22.7163V3.53365C0.5 2.59647 0.835227 1.69767 1.43193 1.03498C2.02864 0.372295 2.83795 0 3.68182 0H17.3182C18.1621 0 18.9714 0.372295 19.5681 1.03498C20.1648 1.69767 20.5 2.59647 20.5 3.53365V21.2019C20.5 21.7375 20.3084 22.2511 19.9675 22.6297C19.6265 23.0084 19.164 23.2212 18.6818 23.2212ZM2.31818 3.53365V21.2019H18.6818V3.53365C18.6818 3.132 18.5381 2.7468 18.2824 2.4628C18.0267 2.17879 17.6798 2.01923 17.3182 2.01923H3.68182C3.32016 2.01923 2.97331 2.17879 2.71758 2.4628C2.46185 2.7468 2.31818 3.132 2.31818 3.53365Z" fill="#76828F"/>
</svg>
