<svg width="17" height="20" viewBox="0 0 17 20" fill="none" xmlns="http://www.w3.org/2000/svg">
<path d="M8.5 7C7.96957 7 7.46086 7.21071 7.08579 7.58579C6.71071 7.96086 6.5 8.46957 6.5 9C6.5 9.53043 6.71071 10.0391 7.08579 10.4142C7.46086 10.7893 7.96957 11 8.5 11C9.03043 11 9.53914 10.7893 9.91421 10.4142C10.2893 10.0391 10.5 9.53043 10.5 9C10.5 8.46957 10.2893 7.96086 9.91421 7.58579C9.53914 7.21071 9.03043 7 8.5 7ZM4.5 15.5C4.5 14.7044 4.81607 13.9413 5.37868 13.3787C5.94129 12.8161 6.70435 12.5 7.5 12.5H9.5C10.2956 12.5 11.0587 12.8161 11.6213 13.3787C12.1839 13.9413 12.5 14.7044 12.5 15.5C12.5 15.7652 12.3946 16.0196 12.2071 16.2071C12.0196 16.3946 11.7652 16.5 11.5 16.5H5.5C5.23478 16.5 4.98043 16.3946 4.79289 16.2071C4.60536 16.0196 4.5 15.7652 4.5 15.5Z" fill="#0090E8"/>
<path fill-rule="evenodd" clip-rule="evenodd" d="M3.5 0.25C2.77065 0.25 2.07118 0.539731 1.55546 1.05546C1.03973 1.57118 0.75 2.27065 0.75 3V17C0.75 17.7293 1.03973 18.4288 1.55546 18.9445C2.07118 19.4603 2.77065 19.75 3.5 19.75H13.5C14.2293 19.75 14.9288 19.4603 15.4445 18.9445C15.9603 18.4288 16.25 17.7293 16.25 17V6.198C16.25 5.83207 16.1353 5.47534 15.922 5.178L12.908 0.98C12.7461 0.75427 12.5328 0.570329 12.2857 0.44339C12.0386 0.31645 11.7648 0.25016 11.487 0.25H3.5ZM2.25 3C2.25 2.31 2.81 1.75 3.5 1.75H10.75V6.147C10.75 6.561 11.086 6.897 11.5 6.897H14.75V17C14.75 17.69 14.19 18.25 13.5 18.25H3.5C2.81 18.25 2.25 17.69 2.25 17V3Z" fill="#0090E8"/>
</svg>
