<svg width="24" height="24" viewBox="0 0 24 24" fill="none" xmlns="http://www.w3.org/2000/svg">
<path fill-rule="evenodd" clip-rule="evenodd" d="M7 2.25C6.27065 2.25 5.57118 2.53973 5.05546 3.05546C4.53973 3.57118 4.25 4.27065 4.25 5V19C4.25 19.7293 4.53973 20.4288 5.05546 20.9445C5.57118 21.4603 6.27065 21.75 7 21.75H17C17.7293 21.75 18.4288 21.4603 18.9445 20.9445C19.4603 20.4288 19.75 19.7293 19.75 19V8.198C19.75 7.83207 19.6353 7.47534 19.422 7.178L16.408 2.98C16.2461 2.75427 16.0328 2.57033 15.7857 2.44339C15.5386 2.31645 15.2648 2.25016 14.987 2.25H7ZM5.75 5C5.75 4.31 6.31 3.75 7 3.75H14.25V8.147C14.25 8.561 14.586 8.897 15 8.897H18.25V19C18.25 19.69 17.69 20.25 17 20.25H7C6.31 20.25 5.75 19.69 5.75 19V5Z" fill="#0090E8"/>
<path d="M14.561 14.46H12.293V16.788H10.709V14.46H8.44102V12.996H10.709V10.668H12.293V12.996H14.561V14.46Z" fill="#0090E8"/>
</svg>
