<svg width="40" height="40" viewBox="0 0 40 40" fill="none" xmlns="http://www.w3.org/2000/svg">
<path fill-rule="evenodd" clip-rule="evenodd" d="M16.921 10.8581C17.2931 9.60838 18.3845 8.33331 20.001 8.33331C21.618 8.33331 22.7082 9.60843 23.0832 10.8558C23.085 10.8581 23.0876 10.8611 23.0908 10.8644C23.0985 10.8725 23.1072 10.8798 23.1154 10.8855C23.1217 10.8899 23.1255 10.8918 23.1259 10.892C24.0669 11.2794 25.1745 11.8983 26.0408 13.0314C26.914 14.1736 27.4821 15.7592 27.4821 17.9713C27.4821 20.1769 27.7148 21.3864 28.0574 22.2166C28.3579 22.9446 28.753 23.4232 29.3152 24.1041C29.3973 24.2036 29.483 24.3074 29.5724 24.4169L29.5727 24.4171C30.6088 25.6864 29.6304 27.4689 28.0343 27.4689H24.1609C24.1609 28.5721 23.7226 29.6302 22.9425 30.4104C22.1624 31.1905 21.1043 31.6288 20.001 31.6288C18.8977 31.6288 17.8397 31.1905 17.0595 30.4104C16.2794 29.6302 15.8411 28.5721 15.8411 27.4689H11.9729C10.3798 27.4689 9.38487 25.6954 10.4296 24.4169C10.5191 24.3073 10.6049 24.2034 10.687 24.1039C11.2492 23.4231 11.6443 22.9445 11.945 22.2164C12.288 21.3861 12.5213 20.1766 12.5226 17.9713M17.5051 27.4689C17.5051 28.1308 17.768 28.7657 18.2361 29.2338C18.7042 29.7018 19.3391 29.9648 20.001 29.9648C20.663 29.9648 21.2978 29.7018 21.7659 29.2338C22.234 28.7657 22.497 28.1308 22.497 27.4689H17.5051ZM11.9729 25.8049C11.8019 25.8049 11.725 25.7262 11.694 25.6656C11.6762 25.6308 11.6709 25.5969 11.6735 25.5685C11.6757 25.5435 11.685 25.5103 11.7181 25.4697L11.7181 25.4697C11.7985 25.3713 11.8795 25.2738 11.9605 25.1761C12.5182 24.5039 13.0803 23.8265 13.4829 22.8517C13.9458 21.7311 14.1852 20.2719 14.1865 17.9718V17.9713C14.1865 16.0549 14.6716 14.8428 15.2849 14.0409C15.905 13.2301 16.7175 12.7579 17.5123 12.4306C17.5124 12.4306 17.5124 12.4306 17.5125 12.4305C17.9361 12.2563 18.3587 11.8681 18.5114 11.348L18.512 11.3459C18.7487 10.5314 19.3605 9.99727 20.001 9.99727C20.6416 9.99727 21.2535 10.531 21.4933 11.3472L21.494 11.3493C21.6457 11.8608 22.0639 12.2544 22.4922 12.4306C23.2853 12.7571 24.0982 13.2302 24.7189 14.042C25.3327 14.8448 25.8181 16.0573 25.8181 17.9713C25.8181 20.2714 26.0568 21.7307 26.5193 22.8514C26.9217 23.8265 27.4839 24.504 28.0417 25.1762C28.1227 25.2739 28.2036 25.3714 28.2839 25.4697C28.336 25.5337 28.3402 25.6 28.3064 25.6666C28.2749 25.7288 28.1991 25.8049 28.0343 25.8049H11.9729ZM16.921 10.8581C16.9196 10.8598 16.9178 10.8618 16.9156 10.8641C16.9085 10.8714 16.9001 10.8785 16.8918 10.8843C16.884 10.8896 16.8794 10.8917 16.8794 10.8917L16.8789 10.8919C15.9375 11.2796 14.8295 11.8973 13.9632 13.0301C13.09 14.1719 12.5226 15.7572 12.5226 17.9708" fill="#76828F"/>
</svg>
