<svg width="26" height="20" viewBox="0 0 26 20" fill="none" xmlns="http://www.w3.org/2000/svg">
<path fill-rule="evenodd" clip-rule="evenodd" d="M1.76504 1.09835C2.4683 0.395088 3.42213 0 4.41669 0H21.9167C22.9113 0 23.8651 0.395088 24.5683 1.09835C25.2716 1.80161 25.6667 2.75544 25.6667 3.75V7.5C25.6667 7.83152 25.535 8.14946 25.3006 8.38388C25.0662 8.6183 24.7482 8.75 24.4167 8.75C24.0852 8.75 23.7672 8.8817 23.5328 9.11612C23.2984 9.35054 23.1667 9.66848 23.1667 10C23.1667 10.3315 23.2984 10.6495 23.5328 10.8839C23.7672 11.1183 24.0852 11.25 24.4167 11.25C25.107 11.25 25.6667 11.8096 25.6667 12.5V16.25C25.6667 17.2446 25.2716 18.1984 24.5683 18.9016C23.8651 19.6049 22.9113 20 21.9167 20H4.41669C3.42212 20 2.4683 19.6049 1.76504 18.9016C1.06178 18.1984 0.666687 17.2446 0.666687 16.25V12.5C0.666687 11.8096 1.22633 11.25 1.91669 11.25C2.24821 11.25 2.56615 11.1183 2.80057 10.8839C3.03499 10.6495 3.16669 10.3315 3.16669 10C3.16669 9.66848 3.03499 9.35054 2.80057 9.11612C2.56615 8.8817 2.24821 8.75 1.91669 8.75C1.22633 8.75 0.666687 8.19036 0.666687 7.5V3.75C0.666687 2.75544 1.06177 1.80161 1.76504 1.09835ZM18.1667 17.5V16.25C18.1667 15.5596 17.607 15 16.9167 15C16.2263 15 15.6667 15.5596 15.6667 16.25V17.5H4.41669C4.08517 17.5 3.76722 17.3683 3.5328 17.1339C3.29838 16.8995 3.16669 16.5815 3.16669 16.25V13.5355C3.68907 13.3508 4.16908 13.0509 4.56834 12.6516C5.2716 11.9484 5.66669 10.9946 5.66669 10C5.66669 9.00544 5.2716 8.05161 4.56834 7.34835C4.16908 6.94909 3.68907 6.64916 3.16669 6.46446V3.75C3.16669 3.41848 3.29838 3.10054 3.5328 2.86612C3.76722 2.6317 4.08517 2.5 4.41669 2.5H15.6667V3.75C15.6667 4.44036 16.2263 5 16.9167 5C17.607 5 18.1667 4.44036 18.1667 3.75V2.5H21.9167C22.2482 2.5 22.5661 2.6317 22.8006 2.86612C23.035 3.10054 23.1667 3.41848 23.1667 3.75V6.46446C22.6443 6.64916 22.1643 6.94909 21.765 7.34835C21.0618 8.05161 20.6667 9.00544 20.6667 10C20.6667 10.9946 21.0618 11.9484 21.765 12.6516C22.1643 13.0509 22.6443 13.3508 23.1667 13.5355V16.25C23.1667 16.5815 23.035 16.8995 22.8006 17.1339C22.5661 17.3683 22.2482 17.5 21.9167 17.5H18.1667ZM16.9167 7.5C17.607 7.5 18.1667 8.05964 18.1667 8.75V11.25C18.1667 11.9404 17.607 12.5 16.9167 12.5C16.2263 12.5 15.6667 11.9404 15.6667 11.25V8.75C15.6667 8.05964 16.2263 7.5 16.9167 7.5Z" fill="#76828F"/>
</svg>
