<svg width="24" height="24" viewBox="0 0 24 24" fill="none" xmlns="http://www.w3.org/2000/svg">
<path d="M11.6364 15.1429C11.329 15.1429 11.0341 15.0224 10.8168 14.8081C10.5994 14.5938 10.4773 14.3031 10.4773 14C10.4773 13.3657 10.9931 12.8571 11.6364 12.8571C11.9438 12.8571 12.2386 12.9776 12.456 13.1919C12.6733 13.4062 12.7955 13.6969 12.7955 14C12.7955 14.3031 12.6733 14.5938 12.456 14.8081C12.2386 15.0224 11.9438 15.1429 11.6364 15.1429ZM15.1136 16.8571V11.1429H8.15909V16.8571H15.1136ZM15.1136 10C15.421 10 15.7159 10.1204 15.9332 10.3347C16.1506 10.5491 16.2727 10.8398 16.2727 11.1429V16.8571C16.2727 17.1602 16.1506 17.4509 15.9332 17.6653C15.7159 17.8796 15.421 18 15.1136 18H8.15909C7.85168 18 7.55686 17.8796 7.33949 17.6653C7.12212 17.4509 7 17.1602 7 16.8571V11.1429C7 10.5086 7.5158 10 8.15909 10H8.73864V8.85714C8.73864 8.09938 9.04393 7.37266 9.58736 6.83684C10.1308 6.30102 10.8678 6 11.6364 6C12.0169 6 12.3937 6.0739 12.7453 6.21749C13.0968 6.36107 13.4163 6.57153 13.6854 6.83684C13.9544 7.10215 14.1679 7.41712 14.3135 7.76376C14.4591 8.11041 14.5341 8.48194 14.5341 8.85714V10H15.1136ZM11.6364 7.14286C11.1752 7.14286 10.733 7.32347 10.407 7.64496C10.0809 7.96645 9.89773 8.40249 9.89773 8.85714V10H13.375V8.85714C13.375 8.40249 13.1918 7.96645 12.8658 7.64496C12.5397 7.32347 12.0975 7.14286 11.6364 7.14286Z" fill="#ABB2B9"/>
</svg>
