<svg width="20" height="20" viewBox="0 0 20 20" fill="none" xmlns="http://www.w3.org/2000/svg">
<path d="M10.6488 0.663606C10.2644 0.293246 9.65593 0.293246 9.27155 0.663606L0.619801 8.99984C0.281282 9.32601 0.281282 9.86806 0.619801 10.1942C0.940994 10.5037 1.44944 10.5037 1.77064 10.1942L2.31076 9.67381V18.3494C2.31076 18.8101 2.47676 19.2004 2.80876 19.5203C3.14077 19.8402 3.54582 20.0001 4.0239 20.0001H15.8964C16.3745 20.0001 16.7795 19.8402 17.1116 19.5203C17.4436 19.2004 17.6096 18.8101 17.6096 18.3494V9.67381L18.2294 10.271C18.5506 10.5805 19.059 10.5805 19.3802 10.271C19.7187 9.94483 19.7187 9.40279 19.3802 9.07661L10.6488 0.663606ZM8.24701 18.3494V15.1633H11.6733V18.3494H8.24701ZM13.3466 18.3494V15.1633C13.3466 14.7282 13.1806 14.3443 12.8486 14.0116C12.5166 13.6789 12.1248 13.5126 11.6733 13.5126H8.24701C7.79549 13.5126 7.40372 13.6789 7.07171 14.0116C6.73971 14.3443 6.57371 14.7282 6.57371 15.1633V18.3494H4.0239V8.06153L9.61203 2.64105C9.80599 2.45291 10.1143 2.45292 10.3083 2.64105L15.8964 8.06153V18.3494H13.3466ZM9.96016 7.79281C9.24303 7.79281 8.63878 8.02954 8.14741 8.50299C7.65604 8.97643 7.41036 9.55865 7.41036 10.2496C7.41036 10.9406 7.65604 11.5228 8.14741 11.9963C8.63878 12.4697 9.24303 12.7064 9.96016 12.7064C10.6773 12.7064 11.2815 12.4697 11.7729 11.9963C12.2643 11.5228 12.51 10.9406 12.51 10.2496C12.51 9.55865 12.2643 8.97643 11.7729 8.50299C11.2815 8.02954 10.6773 7.79281 9.96016 7.79281ZM9.96016 11.0558C9.40239 11.0558 9.12351 10.7871 9.12351 10.2496C9.12351 9.7122 9.40239 9.44349 9.96016 9.44349C10.5179 9.44349 10.7968 9.7122 10.7968 10.2496C10.7968 10.7871 10.5179 11.0558 9.96016 11.0558Z" fill="#76828F"/>
</svg>
